<svg width="13" height="7" viewBox="0 0 13 7" fill="none" xmlns="http://www.w3.org/2000/svg">
<path d="M6.51287 5.82338C4.15664 5.82338 2.53433 4.17783 1.9678 3.50426C2.53433 2.83069 4.15664 1.18088 6.51287 1.18088C8.86909 1.18088 10.4914 2.83069 11.0536 3.50426C10.4914 4.17783 8.86909 5.82338 6.51287 5.82338ZM12.2854 3.17601C12.1996 3.04811 10.1395 0 6.49999 0C2.86051 0 0.800429 3.04811 0.714592 3.17601L0.5 3.50001L0.714592 3.82399C0.800429 3.95615 2.82617 7 6.49999 7C10.1738 7 12.1996 3.95615 12.2854 3.82399L12.5 3.50001L12.2854 3.17601Z" fill="#1C1F1C"/>
<path d="M8.04497 2.89296C8.13091 2.89273 8.21591 2.91042 8.29435 2.94485C8.37279 2.97929 8.4429 3.02968 8.5 3.0927C8.39976 2.7441 8.17436 2.44286 7.86541 2.24462C7.55647 2.04638 7.18485 1.96451 6.81919 2.01416C6.45353 2.06381 6.11852 2.2416 5.87605 2.51471C5.63357 2.78782 5.5 3.13779 5.5 3.5C5.5 3.86221 5.63357 4.21219 5.87605 4.4853C6.11852 4.75841 6.45353 4.93619 6.81919 4.98584C7.18485 5.03548 7.55647 4.95363 7.86541 4.75539C8.17436 4.55715 8.39976 4.25591 8.5 3.90731C8.43075 3.9824 8.34346 4.03929 8.24608 4.07281C8.14869 4.10633 8.04431 4.11542 7.94243 4.09924C7.84056 4.08306 7.74442 4.04214 7.66279 3.98018C7.58115 3.91823 7.51659 3.83723 7.47502 3.74455C7.43344 3.65187 7.41616 3.55045 7.42473 3.44954C7.43331 3.34862 7.46749 3.25142 7.52414 3.16678C7.58079 3.08213 7.65812 3.01273 7.74909 2.96491C7.84005 2.91708 7.94177 2.89235 8.04497 2.89296" fill="#1C1F1C"/>
</svg>
