<svg width="61" height="59" viewBox="0 0 61 59" fill="none" xmlns="http://www.w3.org/2000/svg">
<path d="M60.4911 28.5237C60.447 27.9212 60.2042 27.3499 59.8002 26.8982C59.3961 26.4465 58.8534 26.1396 58.2559 26.0251L56.1728 25.67C56.1102 25.2262 56.0342 24.8312 55.9537 24.414L57.7776 23.38C58.3057 23.0696 58.7151 22.594 58.9417 22.0278C59.1682 21.4615 59.199 20.8366 59.0293 20.2511C59.0293 20.2511 58.9354 19.9493 58.7074 19.328C58.4794 18.7067 58.3543 18.4138 58.3453 18.396C58.1289 17.9136 57.7766 17.5036 57.3309 17.2154C56.8851 16.9272 56.365 16.7731 55.833 16.7717C55.6831 16.7721 55.5336 16.7854 55.386 16.8116L53.3118 17.1888C53.1062 16.8116 52.8916 16.4477 52.6681 16.0838L54.0092 14.4905C54.4001 14.0194 54.6216 13.4324 54.6386 12.8222C54.6556 12.2121 54.4672 11.6138 54.103 11.122C54.103 11.122 53.9108 10.8735 53.4861 10.3675C53.0615 9.86158 52.838 9.62192 52.838 9.61749C52.5802 9.35114 52.2705 9.13977 51.9277 8.99631C51.5849 8.85285 51.2162 8.78031 50.8442 8.78312C50.3737 8.77913 49.9106 8.90019 49.5031 9.13374L47.6748 10.1944C47.3529 9.91484 47.0266 9.63967 46.6958 9.37782L47.4245 7.41176C47.6283 6.83759 47.634 6.21238 47.4406 5.63465C47.2472 5.05692 46.8656 4.55951 46.3561 4.22078C46.3561 4.22078 46.0878 4.04769 45.5112 3.71484C44.9345 3.38198 44.6529 3.23996 44.6171 3.23552C44.2469 3.05052 43.838 2.95472 43.4236 2.95592C43.0229 2.95424 42.6266 3.03911 42.2623 3.20464C41.8979 3.37018 41.5742 3.61241 41.3136 3.91455L39.9725 5.52558C39.5761 5.36876 39.1738 5.22083 38.7655 5.08177V2.99587C38.7603 2.38711 38.5509 1.79742 38.1704 1.32C37.79 0.84259 37.2601 0.504673 36.6645 0.359651C36.6645 0.359651 36.3516 0.288643 35.6945 0.173253C35.0373 0.0578626 34.7244 0.0179172 34.7065 0.0179172C34.6068 0.0111605 34.5067 0.0111605 34.407 0.0179172C33.8481 0.0214755 33.3034 0.192987 32.8446 0.509867C32.3858 0.826747 32.0343 1.27414 31.8366 1.79315L30.7503 4.82436C30.6918 4.99134 30.6616 5.16681 30.6609 5.34361H30.3391C30.3395 5.16633 30.3077 4.99043 30.2452 4.82436L29.1455 1.77984C28.9488 1.26012 28.5977 0.812039 28.1386 0.494996C27.6796 0.177953 27.1343 0.00692788 26.5751 0.00460351C26.4694 -0.0015345 26.3634 -0.0015345 26.2577 0.00460351C26.2577 0.00460351 25.9448 0.0445489 25.2877 0.159939C24.6305 0.275329 24.3176 0.346335 24.3042 0.350773C23.7126 0.497941 23.1868 0.835629 22.8091 1.31101C22.4314 1.78639 22.223 2.37266 22.2166 2.97812V5.06845C21.8143 5.20751 21.4119 5.35545 21.0096 5.51226L19.6685 3.90124C19.4081 3.59887 19.0844 3.35647 18.72 3.19092C18.3556 3.02536 17.9593 2.94063 17.5586 2.94261C17.1395 2.94334 16.7264 3.04056 16.3516 3.22665C16.3516 3.22665 16.0655 3.37311 15.4888 3.70152C14.9122 4.02994 14.6439 4.20747 14.6305 4.21634C14.1256 4.55574 13.7482 5.05167 13.5573 5.62661C13.3665 6.20154 13.3729 6.82306 13.5755 7.394L14.3087 9.36451C13.9734 9.62636 13.6471 9.90152 13.3252 10.1811L11.5013 9.12042C11.093 8.88885 10.6305 8.76794 10.1603 8.76981C9.78611 8.76693 9.41533 8.84028 9.07087 8.98532C8.7264 9.13035 8.41557 9.344 8.15758 9.61304C8.15758 9.61304 7.93853 9.84383 7.50492 10.3542C7.0713 10.8646 6.88802 11.1087 6.87461 11.1264C6.51867 11.6178 6.33584 12.2119 6.35443 12.8169C6.37302 13.4218 6.59199 14.0038 6.97743 14.4727L8.31851 16.0704C8.09947 16.4344 7.87148 16.7983 7.67926 17.1755L5.60058 16.7983C5.45306 16.7719 5.30346 16.7585 5.15356 16.7584C4.61761 16.7598 4.09362 16.9158 3.64525 17.2073C3.19689 17.4988 2.84344 17.9133 2.62785 18.4004C2.62785 18.4004 2.50715 18.6934 2.27917 19.3147C2.05119 19.936 1.95731 20.2334 1.95284 20.2511C1.78503 20.833 1.81644 21.4537 2.04215 22.0159C2.26786 22.5781 2.67511 23.0501 3.20005 23.3578L5.03286 24.3963C4.94792 24.8135 4.8764 25.2306 4.80934 25.6523L2.73514 26.0073C2.13527 26.1218 1.59054 26.4304 1.18612 26.8849C0.781705 27.3394 0.540418 27.9142 0.5 28.5193C0.5 28.5193 0.5 28.8344 0.5 29.5001C0.5 30.1658 0.5 30.4809 0.5 30.4898C0.541575 31.0936 0.783457 31.6667 1.18784 32.1195C1.59223 32.5724 2.13634 32.8795 2.73514 32.9929L4.81381 33.3479C4.88087 33.7651 4.95239 34.1823 5.03733 34.5994L3.21793 35.6557C2.6941 35.9645 2.28778 36.4366 2.06221 36.9985C1.83665 37.5603 1.80448 38.1805 1.97072 38.7624C1.97072 38.7624 2.0646 39.0641 2.29258 39.6855C2.52056 40.3068 2.64126 40.5731 2.6502 40.613C2.8666 41.0955 3.21889 41.5055 3.66464 41.7937C4.11038 42.0819 4.63056 42.236 5.16249 42.2374C5.31241 42.2373 5.46201 42.224 5.60952 42.1974L8.73871 41.6338C8.94335 41.6095 9.14097 41.5446 9.31985 41.443L9.48078 41.7137C9.30748 41.8191 9.15581 41.9562 9.03375 42.1175L6.97743 44.523C6.59072 44.9962 6.3723 45.583 6.35613 46.1921C6.33997 46.8013 6.52695 47.3987 6.88802 47.8915C6.88802 47.8915 7.08024 48.14 7.50939 48.646C7.93853 49.1519 8.15311 49.3827 8.16205 49.396C8.42093 49.662 8.73151 49.8732 9.07498 50.0166C9.41844 50.16 9.78766 50.2327 10.1603 50.2304C10.6309 50.2309 11.0934 50.1084 11.5013 49.8753L13.3252 48.819C13.6471 49.0986 13.9734 49.3694 14.3087 49.6357L13.58 51.5973C13.3742 52.172 13.3676 52.7984 13.5611 53.3773C13.7546 53.9561 14.1373 54.4543 14.6484 54.7927C14.6484 54.7927 14.9166 54.9658 15.4933 55.2942C16.07 55.6226 16.3561 55.7691 16.365 55.778C16.7357 55.9611 17.1445 56.0554 17.5586 56.0531C17.9589 56.0556 18.3551 55.9716 18.7194 55.8068C19.0838 55.642 19.4077 55.4005 19.6685 55.0989L21.0096 53.4879C21.4075 53.6432 21.8098 53.7897 22.2166 53.9317V56.022C22.2236 56.631 22.4342 57.2204 22.8153 57.6976C23.1964 58.1748 23.7265 58.5127 24.3221 58.6583C24.3221 58.6583 24.635 58.7293 25.2877 58.8447C25.9403 58.9601 26.2622 58.9956 26.2756 59C26.3739 59 26.4768 59 26.5751 59C27.1342 58.9971 27.6792 58.8258 28.1381 58.5088C28.597 58.1919 28.9483 57.7441 29.1455 57.2248L29.8563 55.2498H31.1393L31.85 57.2248C32.0478 57.7438 32.3992 58.1912 32.858 58.508C33.3168 58.8249 33.8615 58.9964 34.4204 59C34.5251 58.9989 34.6296 58.9915 34.7333 58.9778C34.7333 58.9778 35.0552 58.9379 35.7079 58.8269C36.3605 58.716 36.6734 58.6405 36.6958 58.6361C37.2869 58.4888 37.8121 58.1509 38.1891 57.6754C38.5661 57.2 38.7735 56.6138 38.7789 56.0087V53.914C39.1857 53.7808 39.5881 53.6344 39.9859 53.4701L41.327 55.0812C41.587 55.3826 41.91 55.6242 42.2737 55.789C42.6373 55.9538 43.0328 56.0378 43.4325 56.0354C43.8498 56.0363 44.2615 55.9406 44.635 55.7558C44.635 55.7558 44.9256 55.6093 45.5067 55.2764C46.0878 54.9436 46.3471 54.7749 46.3561 54.7661C46.8631 54.4285 47.2428 53.9331 47.4354 53.3579C47.628 52.7827 47.6226 52.1602 47.42 51.5884L46.6869 49.649C47.0177 49.3827 47.344 49.112 47.6658 48.8324L49.4897 49.8886C49.8976 50.1217 50.3601 50.2442 50.8308 50.2437C51.2052 50.2457 51.5761 50.1716 51.9206 50.0258C52.265 49.88 52.5757 49.6656 52.8335 49.396C52.8335 49.396 53.0525 49.1652 53.4817 48.6593C53.9108 48.1533 54.0986 47.9048 54.1165 47.8826C54.4729 47.392 54.6556 46.7981 54.6362 46.1935C54.6168 45.589 54.3963 45.0078 54.0092 44.5407L51.9439 42.1397C51.8215 41.9786 51.6699 41.8417 51.4969 41.7359L51.6623 41.4651C51.8411 41.5668 52.0388 41.6317 52.2434 41.656L55.3726 42.2196C55.5202 42.2455 55.6697 42.2589 55.8196 42.2596C56.3548 42.2572 56.8778 42.1009 57.3253 41.8094C57.7728 41.518 58.1256 41.1039 58.3409 40.6175C58.3409 40.6175 58.466 40.3246 58.694 39.7299C58.922 39.1352 59.0159 38.8023 59.0203 38.789C59.1854 38.2066 59.1522 37.5864 58.9259 37.0246C58.6995 36.4629 58.2928 35.9911 57.7687 35.6823L55.9671 34.6172C56.0476 34.2 56.1236 33.7828 56.1862 33.3612L58.2649 33.0106C58.8651 32.8936 59.4097 32.5831 59.8138 32.1272C60.218 31.6714 60.4592 31.0957 60.5 30.4898C60.5 30.4898 60.5 30.1747 60.5 29.5178C60.5 28.861 60.5 28.5415 60.5 28.5237" fill="white"/>
<path d="M57.4956 28.9479C57.4725 28.6928 57.3696 28.4519 57.2021 28.2603C57.0347 28.0688 56.8113 27.9366 56.5646 27.883L53.4364 27.3572C53.3222 26.2257 53.1303 25.1036 52.8621 23.9992L55.6161 22.3997C55.8305 22.2638 55.9963 22.0618 56.0895 21.8233C56.1827 21.5848 56.1982 21.3223 56.1339 21.0741C56.1339 21.0741 56.0469 20.7958 55.8424 20.2258C55.6379 19.6558 55.5248 19.3819 55.5248 19.3819C55.417 19.1508 55.2395 18.9607 55.0181 18.8391C54.7967 18.7176 54.5429 18.6709 54.2935 18.7058L51.174 19.2847C50.6851 18.2661 50.1253 17.2841 49.499 16.3463L51.5525 13.8852C51.7074 13.6833 51.7948 13.4363 51.8018 13.1804C51.8089 12.9245 51.7352 12.673 51.5917 12.4625C51.5917 12.4625 51.4177 12.2327 51.0348 11.7644C50.6519 11.296 50.4518 11.0839 50.4518 11.0839C50.2731 10.904 50.0421 10.7871 49.7931 10.7505C49.544 10.7139 49.2899 10.7596 49.0683 10.8807L46.336 12.5111C45.5354 11.7244 44.6821 10.9951 43.7821 10.3284L44.8829 7.30168C44.9612 7.05928 44.9612 6.79782 44.8829 6.55541C44.8047 6.31299 44.6522 6.1023 44.4478 5.95404C44.4478 5.95404 44.2042 5.79497 43.6864 5.4901C43.1687 5.18522 42.912 5.04825 42.912 5.04825C42.6833 4.94122 42.4269 4.91136 42.1803 4.96304C41.9336 5.01472 41.7098 5.14523 41.5415 5.33545L39.5141 7.81423C38.4958 7.35092 37.446 6.96257 36.3728 6.65216V3.43108C36.3632 3.17563 36.2737 2.92993 36.1172 2.72969C35.9607 2.52945 35.7455 2.3851 35.5027 2.31762C35.5027 2.31762 35.2199 2.25134 34.6325 2.1453C34.0452 2.03925 33.7624 2.0039 33.7624 2.0039C33.5113 1.98331 33.2603 2.04462 33.0459 2.17893C32.8315 2.31323 32.6649 2.51351 32.5703 2.75063L31.5 5.78613V8.26491C33.4172 8.41577 35.3053 8.83049 37.1125 9.49768H37.1386C39.4526 10.3558 41.602 11.6162 43.4906 13.2225L43.5646 13.2887C43.7517 13.4478 43.9344 13.6069 44.1128 13.7704L44.1432 13.7969C46.7122 16.1639 48.6744 19.1311 49.8601 22.4417C51.0457 25.7522 51.4191 29.3063 50.9478 32.7964C50.8738 33.331 50.7825 33.8613 50.6737 34.3826C50.6757 34.3958 50.6757 34.4092 50.6737 34.4224C50.3277 36.0655 49.7918 37.6614 49.077 39.1767L51.1958 40.4139L54.3153 40.9883C54.5647 41.024 54.8188 40.9776 55.0403 40.8559C55.2619 40.7342 55.4393 40.5437 55.5465 40.3123C55.5465 40.3123 55.6596 40.0428 55.8641 39.4728C56.0686 38.9028 56.1556 38.62 56.1556 38.62C56.2193 38.3718 56.2034 38.1096 56.1103 37.8712C56.0172 37.6328 55.8517 37.4308 55.6379 37.2944L52.8621 35.6994C53.131 34.5994 53.3243 33.4817 53.4408 32.3546L56.5689 31.8111C56.8156 31.7575 57.039 31.6254 57.2065 31.4338C57.374 31.2422 57.4768 31.0013 57.5 30.7462C57.5 30.7462 57.5 30.4546 57.5 29.8625C57.5 29.2705 57.5 28.9788 57.5 28.9788" fill="#1C1F1C"/>
<path d="M50.1215 43.5372L47.9545 42.2852C46.9957 43.6809 45.8788 44.9607 44.626 46.0991L44.5681 46.1526C44.3902 46.313 44.2122 46.4689 44.0297 46.6204L43.874 46.7496L43.429 47.1061L43.3489 47.1684C41.7843 48.386 40.0611 49.3843 38.2272 50.1358L38.1649 50.1581C37.9468 50.2517 37.7199 50.3363 37.5018 50.4165L37.4307 50.4433C35.216 51.249 32.8847 51.6869 30.529 51.7398H29.995H29.4566C27.1023 51.6869 24.7725 51.2489 22.5594 50.4433L22.4837 50.4165C22.2612 50.3363 22.0388 50.2472 21.8207 50.1581L21.7584 50.1358C19.9224 49.3838 18.1977 48.3839 16.6322 47.164L16.5521 47.0971L16.1072 46.7452L15.9425 46.6115C15.7601 46.46 15.5865 46.3041 15.4085 46.1437L15.3462 46.0902C14.092 44.9519 12.9736 43.6721 12.0133 42.2762L12.4939 42L9.85072 43.5283L7.75042 46.01C7.59112 46.2177 7.5033 46.4714 7.50009 46.7333C7.49688 46.9951 7.57846 47.251 7.73262 47.4625C7.73262 47.4625 7.91506 47.6986 8.30664 48.1665C8.69823 48.6343 8.89847 48.8526 8.89847 48.8526C9.08184 49.0345 9.3185 49.153 9.57388 49.1906C9.82926 49.2283 10.09 49.1833 10.318 49.062L13.1213 47.4224C13.9417 48.2143 14.816 48.9482 15.7378 49.619L14.612 52.671C14.5316 52.9161 14.5314 53.1805 14.6114 53.4257C14.6915 53.6709 14.8476 53.8842 15.057 54.0344C15.057 54.0344 15.3062 54.1904 15.8357 54.48C16.3653 54.7696 16.6278 54.9255 16.6278 54.9255C16.8617 55.0335 17.124 55.0636 17.3762 55.0114C17.6284 54.9593 17.8573 54.8277 18.0295 54.6359L20.1031 52.1408C21.1452 52.6066 22.2187 52.9982 23.3159 53.3126V56.5563C23.324 56.8148 23.4149 57.0639 23.5751 57.2669C23.7354 57.4698 23.9564 57.6159 24.2058 57.6835C24.2058 57.6835 24.4951 57.7459 25.0958 57.8528C25.6965 57.9598 25.9857 57.9954 25.9857 57.9954C26.2422 58.0179 26.4992 57.9573 26.7187 57.8226C26.9382 57.6878 27.1087 57.486 27.205 57.2469L28.2996 54.1814C28.8648 54.2215 29.4343 54.2438 30.0084 54.2438C30.5824 54.2438 31.152 54.2215 31.7171 54.1814L32.8117 57.2469C32.908 57.486 33.0785 57.6878 33.298 57.8226C33.5175 57.9573 33.7745 58.0179 34.031 57.9954C34.031 57.9954 34.3202 57.9598 34.921 57.8528C35.5217 57.7459 35.8109 57.6835 35.8109 57.6835C36.0599 57.6152 36.2806 57.469 36.4408 57.2662C36.6009 57.0634 36.692 56.8146 36.7009 56.5563V53.3126C37.7985 52.9996 38.8722 52.608 39.9136 52.1408L41.9873 54.6359C42.1594 54.8277 42.3883 54.9593 42.6406 55.0114C42.8928 55.0636 43.155 55.0335 43.3889 54.9255C43.3889 54.9255 43.6515 54.7919 44.181 54.48C44.7105 54.1681 44.9597 54.0344 44.9597 54.0344C45.1697 53.8846 45.3262 53.6714 45.4063 53.4261C45.4864 53.1807 45.4858 52.9161 45.4047 52.671L44.2789 49.619C45.2016 48.9493 46.0759 48.2153 46.8954 47.4224L49.7032 49.062C49.9304 49.1836 50.1905 49.2289 50.4453 49.1912C50.7 49.1535 50.936 49.0348 51.1183 48.8526C51.1183 48.8526 51.3185 48.6388 51.7145 48.1665C52.1106 47.6942 52.2841 47.4625 52.2841 47.4625C52.4312 47.2512 52.5067 46.9982 52.4995 46.7408C52.4923 46.4833 52.4028 46.235 52.2441 46.0323L50.1215 43.5372Z" fill="#1C1F1C"/>
<path d="M9.08063 40.4395L11.2757 39.2002C10.5286 37.6852 9.96468 36.0899 9.59552 34.4466C9.59552 34.4466 9.59552 34.4157 9.59552 34.3979C9.4826 33.8801 9.38775 33.3534 9.31549 32.8223C9.03846 30.8665 9.03846 28.8826 9.31549 26.9268C9.66374 24.4218 10.4587 21.9963 11.6641 19.7611V19.7611C12.8702 17.5267 14.4643 15.5152 16.3749 13.817L16.4065 13.7904L16.9756 13.3035L17.0524 13.2416C19.0136 11.6334 21.2448 10.371 23.6465 9.51044H23.6782C25.5528 8.84261 27.5113 8.4272 29.5 8.27558V5.79258L28.3889 2.75191C28.2907 2.51438 28.1178 2.31376 27.8952 2.17923C27.6726 2.0447 27.412 1.98328 27.1514 2.00391C27.1514 2.00391 26.8533 2.04375 26.2481 2.14554C25.6429 2.24734 25.3448 2.31816 25.3448 2.31816C25.0924 2.38513 24.8685 2.52956 24.7059 2.73027C24.5434 2.93098 24.4507 3.17743 24.4414 3.43351V6.66008C23.3279 6.97247 22.2382 7.36145 21.1805 7.82413L19.0758 5.34113C18.9011 5.15058 18.6687 5.01985 18.4127 4.96808C18.1567 4.91631 17.8905 4.94623 17.6531 5.05344C17.6531 5.05344 17.3911 5.19064 16.8491 5.49604C16.3071 5.80143 16.0587 5.96077 16.0587 5.96077C15.8471 6.10975 15.6892 6.32083 15.608 6.56349C15.5268 6.80616 15.5265 7.06784 15.6071 7.31071L16.7497 10.3425C15.814 11.0104 14.9267 11.741 14.094 12.529L11.2486 10.9002C11.0178 10.7785 10.7533 10.7327 10.4939 10.7693C10.2346 10.806 9.99408 10.9232 9.80779 11.1038C9.80779 11.1038 9.60455 11.3207 9.20709 11.7854C8.80963 12.2501 8.62897 12.4493 8.62897 12.4493C8.47996 12.6601 8.40354 12.9121 8.41086 13.1684C8.41817 13.4248 8.50882 13.6722 8.66962 13.8745L10.8014 16.3398C10.151 17.2782 9.57139 18.262 9.06708 19.2831L5.82419 18.7033C5.56534 18.6683 5.30184 18.7151 5.07198 18.8368C4.84212 18.9586 4.65787 19.149 4.546 19.3805C4.546 19.3805 4.43309 19.6504 4.21629 20.2258C3.9995 20.8012 3.9182 21.0756 3.9182 21.0756C3.84918 21.3241 3.86425 21.5879 3.96116 21.8273C4.05807 22.0667 4.23158 22.2689 4.45567 22.4034L7.31465 24.0057C7.03337 25.1056 6.83263 26.2238 6.71395 27.3517L3.46654 27.9005C3.21019 27.952 2.97763 28.0832 2.80348 28.2746C2.62933 28.466 2.52289 28.7073 2.5 28.9628C2.5 28.9628 2.5 29.2549 2.5 29.848C2.5 30.4411 2.5 30.7332 2.5 30.7332C2.52359 30.9884 2.63028 31.2294 2.80431 31.4207C2.97834 31.612 3.21051 31.7433 3.46654 31.7954L6.71395 32.3398C6.83333 33.4688 7.03254 34.5884 7.31014 35.6903L4.45567 37.2881C4.23212 37.4232 4.05904 37.6254 3.9622 37.8647C3.86536 38.1039 3.84993 38.3674 3.9182 38.6159C3.9182 38.6159 4.00853 38.8948 4.22081 39.4702C4.43309 40.0455 4.546 40.3111 4.546 40.3111C4.6573 40.543 4.84145 40.7338 5.07146 40.8557C5.30147 40.9775 5.56527 41.024 5.82419 40.9883L9.06708 40.4129" fill="#1C1F1C"/>
</svg>
