<svg width="44" height="43" viewBox="0 0 44 43" fill="none" xmlns="http://www.w3.org/2000/svg">
<path d="M23.7496 0V2.52647C26.5804 2.78346 29.3188 3.69002 31.7628 5.17926C34.2068 6.66851 36.294 8.70241 37.8703 11.1309L35.743 12.3941C33.5125 9.02986 30.1802 6.59985 26.3523 5.54626C22.5245 4.49267 18.4555 4.88553 14.8859 6.65335L16.1159 8.84266C17.6059 8.12483 19.2078 7.68346 20.8476 7.53896V10.0699C18.199 10.3574 15.7265 11.5694 13.8433 13.5036C11.96 15.4378 10.7799 17.9771 10.5 20.6973H12.9687C13.0721 19.8977 13.2751 19.1151 13.5728 18.3686L15.7219 19.6409C15.2984 20.8735 15.223 22.2041 15.5046 23.4789C15.7861 24.7536 16.4131 25.9206 17.3131 26.8449C18.213 27.7692 19.3493 28.4131 20.5905 28.7023C21.8317 28.9914 23.1272 28.914 24.3274 28.479L23.0668 26.2313C22.741 26.3091 22.4076 26.3483 22.0732 26.3482C21.0416 26.3514 20.0436 25.9724 19.2622 25.2808C18.4808 24.5891 17.9686 23.6311 17.8196 22.5828C17.6706 21.5345 17.8948 20.4662 18.451 19.5739C19.0072 18.6817 19.8582 18.0255 20.8476 17.7258V15.1498C19.3275 15.4394 17.9506 16.2568 16.9475 17.465L14.8027 16.1883C15.6617 15.0479 16.7636 14.1248 18.0239 13.4896C19.2842 12.8545 20.6693 12.5242 22.0732 12.5242C23.477 12.5242 24.8622 12.8545 26.1225 13.4896C27.3828 14.1248 28.4846 15.0479 29.3436 16.1883L27.1944 17.465C26.1937 16.2563 24.8179 15.4386 23.2988 15.1498V17.7348C24.0001 17.9505 24.6361 18.347 25.146 18.8866C25.656 19.4261 26.023 20.0908 26.2121 20.8172C26.4012 21.5436 26.4061 22.3077 26.2264 23.0366C26.0467 23.7655 25.6883 24.4351 25.1853 24.9815L26.4459 27.2293C27.4823 26.3188 28.2259 25.1074 28.579 23.7545C28.9322 22.4016 28.8783 20.9707 28.4244 19.6499L30.5692 18.3776C30.8681 19.1239 31.0726 19.9065 31.1776 20.7063H33.6464C33.3665 17.986 32.1864 15.4468 30.3031 13.5126C28.4198 11.5784 25.9474 10.3663 23.2988 10.0789V7.55245C25.5557 7.75415 27.7319 8.51196 29.6429 9.7616C31.5538 11.0112 33.1431 12.7158 34.2759 14.7308C35.4087 16.7457 36.0516 19.0115 36.15 21.336C36.2485 23.6605 35.7995 25.9751 34.8413 28.0834L32.7096 26.8202C33.2054 25.6799 33.5216 24.466 33.6464 23.2238H31.1776C30.9889 24.6551 30.4829 26.0229 29.6985 27.2219C28.9141 28.4208 27.8724 29.4189 26.6534 30.1393C25.4344 30.8598 24.0707 31.2833 22.6673 31.3774C21.2639 31.4714 19.8581 31.2334 18.5583 30.6818L17.3196 32.8756C19.7553 33.9896 22.4896 34.2112 25.0653 33.5034C27.641 32.7957 29.9022 31.2014 31.4709 28.987L33.6026 30.2502C32.6582 31.6345 31.4849 32.838 30.1359 33.8062L31.3659 36C34.6426 33.7091 37.0097 30.2861 38.0363 26.354C39.063 22.4218 38.681 18.2417 36.9599 14.5744L39.0871 13.3112C40.343 15.9295 41.0124 18.8033 41.0465 21.7218C41.0806 24.6404 40.4784 27.5298 39.2841 30.1783L41.4114 31.4416C42.9091 28.2161 43.6202 24.6649 43.4834 21.0942C43.3467 17.5235 42.3662 14.0406 40.6265 10.9459C38.8868 7.85123 36.4402 5.23768 33.4977 3.33072C30.5552 1.42377 27.2051 0.280656 23.7365 0" fill="#E53324"/>
<path d="M23.7187 40.5006V38.0344C25.8356 37.8837 27.9042 37.3408 29.8153 36.4343L28.5575 34.2934C25.4856 35.7031 22.0058 36.0034 18.7307 35.1414C15.4556 34.2794 12.5951 32.3103 10.6527 29.5809L12.8326 28.3456C13.5629 29.328 14.4431 30.1939 15.4422 30.9128L16.709 28.7676C14.7494 27.2867 13.4628 25.1071 13.1281 22.7011H10.608C10.7355 23.9158 11.0589 25.1029 11.5659 26.2179L9.38595 27.4532C7.95098 24.4367 7.645 21.0198 8.52184 17.8036C9.39869 14.5874 11.4022 11.7778 14.18 9.86908L12.9222 7.72821C11.164 8.90654 9.64577 10.3975 8.44595 12.1242L6.27052 10.889C7.88276 8.51446 10.0172 6.52573 12.5165 5.06947C15.0157 3.61321 17.816 2.72657 20.7107 2.47496V0C17.1636 0.274445 13.7378 1.39226 10.7287 3.25702C7.71957 5.12178 5.21758 7.6775 3.43853 10.7037C1.65948 13.7299 0.656789 17.1357 0.516948 20.6274C0.377108 24.1191 1.10432 27.5917 2.63585 30.7458L4.81576 29.5105C3.5913 26.9214 2.97376 24.0956 3.00862 21.2411C3.04348 18.3866 3.72985 15.5761 5.01719 13.0166L7.19262 14.2519C5.99527 16.6905 5.42293 19.3796 5.5254 22.085C5.62788 24.7905 6.40207 27.4303 7.78059 29.7748C9.15911 32.1193 11.1002 34.0974 13.4349 35.537C15.7696 36.9765 18.4271 37.8339 21.1763 38.0344V40.5006C18.276 40.3182 15.4545 39.4983 12.9203 38.1013C10.386 36.7043 8.20372 34.7659 6.53462 32.4295L4.35471 33.6648C6.37042 36.5435 9.06887 38.8976 12.2174 40.5239C15.3659 42.1502 18.8699 43 22.4274 43C25.9848 43 29.4888 42.1502 32.6373 40.5239C35.7858 38.8976 38.4843 36.5435 40.5 33.6648L38.3246 32.4295C36.655 34.7655 34.4726 36.7035 31.9384 38.1004C29.4043 39.4974 26.583 40.3176 23.6829 40.5006" fill="#E53324"/>
</svg>
