<svg width="207" height="57" viewBox="0 0 207 57" fill="none" xmlns="http://www.w3.org/2000/svg">
<path d="M26.5 30.8335V22.5408C26.5 22.1321 26.3395 21.7402 26.0538 21.4513C25.7682 21.1623 25.3807 21 24.9768 21H2.02322C1.61924 21 1.2318 21.1623 0.946139 21.4513C0.660478 21.7402 0.5 22.1321 0.5 22.5408V55.4592C0.5 55.8679 0.660478 56.2598 0.946139 56.5487C1.2318 56.8377 1.61924 57 2.02322 57H10.2172C10.6212 57 11.0086 56.8377 11.2943 56.5487C11.5799 56.2598 11.7404 55.8679 11.7404 55.4592V32.3698H24.9768C25.1766 32.3704 25.3746 32.3311 25.5594 32.2541C25.7441 32.1772 25.9121 32.0641 26.0536 31.9214C26.1951 31.7787 26.3074 31.6091 26.384 31.4224C26.4606 31.2357 26.5 31.0356 26.5 30.8335Z" fill="white"/>
<path d="M156.764 45.1692V42.3939H169.931C170.134 43.3388 170.409 44.2666 170.754 45.1692H156.764ZM156.764 31.8485H170.758C170.589 32.2933 170.438 32.7381 170.314 33.1828H156.764V31.8485ZM116.564 44.1463C115.739 44.7685 114.743 45.1224 113.711 45.1604V31.8441H119.639C119.541 35.5001 119.292 41.8024 116.564 44.1463ZM55.6365 38.1064C55.0899 42.1449 53.9033 43.8572 53.2456 44.5199C52.419 45.3516 51.0236 45.7697 49.0905 45.7697H48.4194L45.4375 38.9559C46.7594 39.7969 48.2929 40.2442 49.8593 40.2457C52.0161 40.229 54.0872 39.3982 55.6587 37.9196C55.6587 37.9818 55.6587 38.0397 55.6365 38.1019M187.996 20C184.668 20.0022 181.402 20.9032 178.542 22.6081C175.683 24.313 173.336 26.7586 171.749 29.687V21.9703C171.749 21.5598 171.586 21.1661 171.296 20.8759C171.006 20.5856 170.613 20.4225 170.203 20.4225H103.832C103.578 20.4229 103.328 20.4855 103.104 20.6049C102.88 20.7243 102.689 20.8969 102.547 21.1075L93.126 35.0642C93.126 35.0998 93.126 34.7395 93.126 34.7395V21.9703C93.126 21.5598 92.963 21.1661 92.673 20.8759C92.383 20.5856 91.9896 20.4225 91.5795 20.4225H51.8902C51.6873 20.4225 51.4864 20.4626 51.299 20.5404C51.1116 20.6183 50.9415 20.7323 50.7982 20.8761C50.655 21.0199 50.5415 21.1906 50.4642 21.3783C50.387 21.5661 50.3475 21.7673 50.3481 21.9703V29.8782C50.1837 29.8782 50.0281 29.8515 49.8593 29.8515C46.2419 29.8515 43.9177 32.1643 42.9755 33.3341L42.0867 31.346L42.0334 31.2348L37.7316 21.3654C37.6109 21.0895 37.4126 20.8548 37.1609 20.6897C36.9092 20.5247 36.6149 20.4365 36.314 20.4359H32.0833C31.7824 20.4365 31.4881 20.5247 31.2364 20.6897C30.9847 20.8548 30.7864 21.0895 30.6657 21.3654L21.6177 42.0781H16.0449C15.7859 42.0784 15.5311 42.1438 15.3038 42.2683C15.0766 42.3928 14.8843 42.5724 14.7445 42.7907C14.6047 43.0089 14.5219 43.2589 14.5038 43.5175C14.4857 43.7761 14.5327 44.0351 14.6406 44.2708L17.7203 50.9823L16.2227 54.4204C16.1191 54.6555 16.0758 54.9127 16.0968 55.1688C16.1177 55.4249 16.2022 55.6717 16.3425 55.8868C16.4829 56.102 16.6747 56.2786 16.9006 56.4008C17.1264 56.5229 17.3792 56.5867 17.6359 56.5864H26.7594C27.0593 56.5864 27.3528 56.4989 27.6038 56.3346C27.8548 56.1703 28.0525 55.9363 28.1726 55.6612L29.5058 52.5835H38.9493L40.2825 55.6612C40.4043 55.936 40.603 56.1695 40.8546 56.3337C41.1061 56.4978 41.3998 56.5856 41.7001 56.5864H50.4414C52.1479 56.5864 57.9962 56.2528 61.8136 51.943C64.3867 49.0343 66.9198 45.0669 67.3286 31.8396H69.9461V55.0341C69.9461 55.4446 70.1091 55.8383 70.3991 56.1286C70.6891 56.4188 71.0825 56.5819 71.4926 56.5819H91.2328C91.4816 56.5812 91.7265 56.5206 91.9469 56.4053C92.1674 56.2899 92.3568 56.1232 92.4994 55.9192L102.276 41.8157V55.0341C102.276 55.4446 102.439 55.8383 102.729 56.1286C103.019 56.4188 103.413 56.5819 103.823 56.5819H112.488C115.653 56.5419 120.314 56.1105 124.256 52.8592C127.176 50.4486 130.713 44.8535 131.091 31.8574H133.606V55.0519C133.606 55.4624 133.769 55.8561 134.059 56.1464C134.349 56.4366 134.743 56.5997 135.153 56.5997H143.476C143.887 56.5997 144.28 56.4366 144.57 56.1464C144.86 55.8561 145.023 55.4624 145.023 55.0519V52.0542H145.574C146.223 54.9541 148.56 56.5864 152.213 56.5864H171.149C171.559 56.5864 171.953 56.4233 172.243 56.133C172.533 55.8428 172.696 55.4491 172.696 55.0386V48.8475C174.479 51.4937 176.917 53.633 179.772 55.0571C182.626 56.4813 185.801 57.1418 188.986 56.9746C192.171 56.8074 195.259 55.818 197.949 54.1027C200.639 52.3875 202.839 50.0047 204.337 47.1861C205.834 44.3676 206.577 41.2092 206.494 38.0181C206.41 34.827 205.503 31.7118 203.86 28.9755C202.218 26.2392 199.895 23.975 197.119 22.4029C194.343 20.8309 191.208 20.0046 188.019 20.0045" fill="white"/>
<path d="M7.2561 2.09313H3.7439V12H1.5V0H9.5V12H7.2561V2.09313Z" fill="#1C1F1C"/>
<path d="M14.1884 7.45455H16.7412L15.5352 3.44124H15.3812L14.1884 7.45455ZM17.2033 9.33925H13.647L12.8283 12H10.5L14.3424 0H16.6752L20.5 12H18.0484L17.2033 9.33925Z" fill="#1C1F1C"/>
<path d="M25.8802 2.00146C25.6636 2.00146 25.4555 2.00146 25.2602 2.02768C25.0648 2.0539 24.9035 2.06264 24.7846 2.08449V5.92134C24.849 5.93677 24.9142 5.94844 24.9799 5.9563L25.2602 5.97815C25.3579 5.97815 25.4555 5.97815 25.5489 5.97815H25.7528C26.0477 5.97891 26.342 5.95111 26.6318 5.89512C26.9074 5.8428 27.1711 5.73754 27.4089 5.58485C27.6408 5.42366 27.8304 5.206 27.9609 4.9512C28.1088 4.61704 28.1787 4.25185 28.1647 3.88492C28.1773 3.56544 28.11 3.24798 27.9694 2.96286C27.8445 2.72922 27.6668 2.52989 27.4513 2.38165C27.2301 2.2306 26.9818 2.1266 26.721 2.07575C26.4413 2.0188 26.1568 1.99098 25.8717 1.99272M22.5255 0.284047C22.9841 0.196647 23.4937 0.126729 24.0457 0.0742891C24.5977 0.0218492 25.1498 0 25.6933 0C26.2623 0.0013516 26.8303 0.0495763 27.3919 0.144211C27.9414 0.228573 28.4694 0.42307 28.9461 0.716679C29.4122 1.01317 29.799 1.42475 30.0714 1.91406C30.3802 2.53167 30.5266 3.22167 30.496 3.91552C30.5132 4.55512 30.3838 5.18989 30.1181 5.76839C29.8807 6.26286 29.5382 6.696 29.1159 7.03569C28.6937 7.3705 28.2119 7.61694 27.6976 7.76111C27.1597 7.91424 26.6039 7.9907 26.0458 7.98835H25.7825H25.4046C25.2772 7.98835 25.1455 7.98835 25.0224 7.96213C24.8992 7.93591 24.8058 7.94028 24.7506 7.93154V12H22.5L22.5255 0.284047Z" fill="#1C1F1C"/>
<path d="M35.91 6.99335H34.7436V12H32.5V0H34.7436V4.90466H35.91L38.5353 0H41.0886L37.8567 5.79601L41.5 12H38.7304L35.91 6.99335Z" fill="#1C1F1C"/>
<path d="M49.9827 0V3.83149C49.9388 4.37593 50.0862 4.91883 50.4017 5.37473C50.578 5.5556 50.7957 5.6953 51.0379 5.78298C51.2801 5.87066 51.5403 5.90395 51.7982 5.88027C52.2328 5.8832 52.666 5.83403 53.0877 5.73393C53.44 5.65746 53.7695 5.50583 54.0514 5.29047V0H56.5V12H54.0327V7.1663C53.6367 7.37049 53.2163 7.52833 52.7805 7.63636C52.174 7.79413 51.547 7.86879 50.9184 7.85809C50.4539 7.86051 49.9914 7.79928 49.5451 7.67628C49.1333 7.56075 48.7561 7.3538 48.4445 7.07242C48.1329 6.79104 47.8959 6.44326 47.7528 6.05765C47.5727 5.57247 47.4875 5.05992 47.5015 4.54545V0H49.9827Z" fill="#1C1F1C"/>
<path d="M62.5201 6.24289H63.3516L65.0637 0H67.5L64.7329 8.77426C64.5876 9.23357 64.4129 9.68341 64.2099 10.1211C64.0384 10.4959 63.8041 10.8399 63.517 11.1389C63.2418 11.4184 62.9077 11.6355 62.538 11.7751C62.0961 11.9347 61.6274 12.0106 61.1567 11.9988C60.8563 12.0009 60.5566 11.9715 60.2626 11.9111C59.958 11.8372 59.667 11.7173 59.3999 11.5557L60.0078 9.67363C60.1784 9.76362 60.3603 9.83146 60.5487 9.87544C60.7162 9.91014 60.8872 9.92632 61.0583 9.92369C61.2775 9.93061 61.496 9.89637 61.7021 9.82279C61.8665 9.76151 62.0104 9.65673 62.1178 9.52008C62.2388 9.36563 62.3353 9.19404 62.4039 9.01117C62.4917 8.78254 62.5678 8.54973 62.6319 8.31362H60.884L57.5 0.00439142H60.0391L62.5201 6.24289Z" fill="#1C1F1C"/>
<path d="M73.9276 9.69731V2.05819H71.9215C71.9009 3.05189 71.8555 3.94883 71.7851 4.749C71.7191 5.54627 71.6355 6.26122 71.5387 6.89384C71.4419 7.52646 71.3231 8.06809 71.2044 8.53172C71.0856 8.99536 70.9536 9.39833 70.8348 9.69731H73.9276ZM77.5 14H75.4631V11.7382H69.5413V14H67.5V9.69731H68.5075C68.6604 9.38671 68.797 9.06853 68.9166 8.74405C69.121 8.18048 69.2755 7.60059 69.3786 7.01084C69.5451 6.12532 69.6611 5.23131 69.7261 4.33302C69.8251 3.05435 69.853 1.77131 69.8097 0.489634V0H76.2594V9.69731H77.4912L77.5 14Z" fill="#1C1F1C"/>
<path d="M78.5 0H86.4108V2.09313H80.8634V4.88692H85.9783V6.98005H80.8634V9.91131H86.5V12H78.5V0Z" fill="#1C1F1C"/>
<path d="M95.5613 7.89661H97.5V11.1937C97.0634 11.4711 96.5765 11.672 96.0631 11.7866C95.4795 11.9303 94.8783 12.002 94.2748 11.9999C93.5223 12.0044 92.7739 11.8964 92.0578 11.68C91.3712 11.4707 90.7463 11.1143 90.2331 10.6392C89.6693 10.1133 89.2349 9.47862 88.9604 8.77953C88.6264 7.88671 88.4718 6.94388 88.5042 5.99852C88.4726 5.02746 88.6542 4.06065 89.038 3.15781C89.3497 2.45755 89.816 1.82673 90.4065 1.30664C90.9537 0.852189 91.5972 0.510655 92.295 0.304292C92.9556 0.105691 93.6449 0.00354108 94.3387 0.00144977C94.941 -0.00981348 95.5426 0.0445831 96.1315 0.163535C96.5458 0.250901 96.9494 0.378116 97.3358 0.54315V3.95543H95.397V2.07441C95.0244 2.01905 94.6476 1.99195 94.2703 1.99336C93.8301 1.99094 93.394 2.07221 92.9884 2.23223C92.588 2.3978 92.2348 2.64912 91.9575 2.96587C91.6431 3.33498 91.4091 3.75811 91.2686 4.21135C91.0933 4.78674 91.0103 5.38328 91.0223 5.98146C91.0159 6.5308 91.0943 7.07813 91.255 7.60656C91.3879 8.06883 91.6139 8.50313 91.921 8.88616C92.2094 9.23032 92.5774 9.50886 92.9976 9.70084C93.4513 9.89912 93.9474 9.99831 94.4482 9.99089C94.8262 9.99096 95.2034 9.95811 95.5749 9.89278L95.5613 7.89661Z" fill="#1C1F1C"/>
<path d="M32.1777 43.6198L34.7022 37.9163L37.2357 43.6198H32.1777ZM52.454 22.0089V24.7829H58.0918V27.5525H52.454V30.3221H58.0828C58.0828 31.5471 58.0828 33.7442 58.0828 34.0061C58.0563 35.4488 57.9506 36.889 57.7661 38.3202C57.1863 42.5767 55.9062 44.6273 54.9294 45.5993C53.7965 46.7311 52.0258 47.3037 49.6663 47.3037H47.9759L41.2276 31.9732L36.8432 22H32.597L23.1012 43.6109H16.5L19.8809 50.9344L18.0968 55H27.2536L29.0154 51.0054H40.4961L42.2579 55H51.0312C54.0329 55 58.4352 54.1123 61.2897 50.89C63.7875 48.0804 66.2228 44.2323 66.4725 30.3088H72.1638V54.9956H80.5V22.0089H52.454Z" fill="#1C1F1C"/>
<path d="M143.5 54.9867V22H115.719V24.7729H121.346V27.5414H115.719V30.3099H121.346C121.346 30.5672 121.31 31.5034 121.31 31.5167C121.204 35.594 121.031 42.422 117.7 45.2925C116.216 46.5703 114.156 46.7212 112.738 46.7212H112.295V22H104.002L91.7797 40.115V37.5106H89.0287V34.7377H91.793V33.0784H89.0287V30.3099H91.793V22H83.5V30.3099H86.282V33.0784H83.5177V34.7377H86.282V37.5106H83.5177V54.9867H91.4696L104.002 36.8762V54.9867H110.089H112.623C115.538 54.9468 119.826 54.5652 123.388 51.6237C126.081 49.4054 129.355 44.0813 129.656 31.4058L129.696 30.3232H135.189V55L143.5 54.9867Z" fill="#1C1F1C"/>
<path d="M154.751 46.6956V40.8413H167.96V34.7428H154.751V30.3044H169.593V22H146.5C146.5 22 146.5 49.2966 146.5 50.2597C146.5 53.6196 148.569 55 151.739 55H170.5V46.6956H154.751Z" fill="#1C1F1C"/>
<path d="M141.5 25H129.5V28H141.5V25Z" fill="#FFD900"/>
<path d="M127.5 25H122.5V28H127.5V25Z" fill="#E53324"/>
<path d="M139.5 32.0036C139.499 32.2013 139.44 32.3943 139.33 32.5582C139.219 32.7222 139.063 32.8498 138.88 32.9249C138.697 33 138.496 33.0193 138.303 32.9803C138.109 32.9413 137.931 32.8458 137.792 32.7058C137.652 32.5658 137.557 32.3876 137.519 32.1937C137.481 31.9999 137.501 31.799 137.576 31.6165C137.652 31.434 137.78 31.278 137.945 31.1683C138.109 31.0586 138.302 31 138.5 31C138.632 31 138.762 31.026 138.884 31.0765C139.005 31.127 139.115 31.2009 139.208 31.2942C139.301 31.3874 139.375 31.4981 139.425 31.6199C139.475 31.7416 139.5 31.872 139.5 32.0036Z" fill="white"/>
<path d="M139.5 37C139.5 37.1978 139.441 37.3911 139.331 37.5556C139.222 37.72 139.065 37.8482 138.883 37.9239C138.7 37.9996 138.499 38.0194 138.305 37.9808C138.111 37.9422 137.933 37.847 137.793 37.7071C137.653 37.5673 137.558 37.3891 137.519 37.1951C137.481 37.0011 137.5 36.8 137.576 36.6173C137.652 36.4346 137.78 36.2784 137.944 36.1685C138.109 36.0586 138.302 36 138.5 36C138.765 36 139.02 36.1054 139.207 36.2929C139.395 36.4804 139.5 36.7348 139.5 37Z" fill="white"/>
<path d="M141.5 43H136.5V48H141.5V43Z" fill="#FFD900"/>
<path d="M141.5 49H136.5V54H141.5V49Z" fill="#E53324"/>
<path d="M77.5 30H74.5V53H77.5V30Z" fill="#FFD900"/>
<path d="M64.5 25H59.5V31H64.5V25Z" fill="#FFD900"/>
<path d="M1.5 22V55H9.71053V30.3133H24.5V22H1.5Z" fill="#1C1F1C"/>
<path d="M22.5 27.8244H7.29194V39H4.5V25H22.5V27.8244Z" fill="#FFD900"/>
<path d="M6.5 44C6.5 44.1978 6.44134 44.3911 6.33146 44.5556C6.22158 44.72 6.0654 44.8482 5.88268 44.9239C5.69995 44.9996 5.49889 45.0194 5.30491 44.9808C5.11092 44.9422 4.93274 44.847 4.79289 44.7071C4.65304 44.5673 4.5578 44.3891 4.51921 44.1951C4.48063 44.0011 4.50044 43.8 4.57613 43.6173C4.65181 43.4346 4.77998 43.2784 4.94443 43.1685C5.10888 43.0586 5.30221 43 5.49999 43C5.63132 43 5.76135 43.0259 5.88268 43.0761C6.004 43.1264 6.11425 43.2 6.20711 43.2929C6.29997 43.3858 6.37362 43.496 6.42387 43.6173C6.47413 43.7386 6.5 43.8687 6.5 44Z" fill="white"/>
<path d="M6.5 49C6.5 49.1978 6.44134 49.3911 6.33146 49.5556C6.22158 49.72 6.0654 49.8482 5.88268 49.9239C5.69995 49.9996 5.49889 50.0194 5.30491 49.9808C5.11092 49.9422 4.93274 49.847 4.79289 49.7071C4.65304 49.5673 4.5578 49.3891 4.51921 49.1951C4.48063 49.0011 4.50044 48.8 4.57613 48.6173C4.65181 48.4346 4.77998 48.2784 4.94443 48.1685C5.10888 48.0587 5.30221 48 5.49999 48C5.76491 48.001 6.01871 48.1066 6.20604 48.294C6.39337 48.4813 6.49904 48.7351 6.5 49Z" fill="white"/>
<path d="M86.5 39H84.5V50L86.5 47.4904V39Z" fill="#FFD900"/>
<path d="M90.5 39H88.5V45L90.5 42.4932V39Z" fill="#FFD900"/>
<path d="M126.5 30.4454H123.759C123.609 35.5548 123.697 42.9506 119.479 46.8513C117.659 48.5356 114.94 49.1551 112.428 49.1551H109.25V25H106.5V52H110.07H112.058C114.962 51.9258 119.18 51.1623 121.709 48.6534C126.09 44.2901 126.337 36.5234 126.491 30.4628" fill="#FFD900"/>
<path d="M88.5 54H90.5685L104.5 33.9896V31L88.5 54Z" fill="#FFD900"/>
<path d="M108.5 51C108.5 51.1978 108.441 51.3911 108.331 51.5556C108.222 51.72 108.065 51.8482 107.883 51.9239C107.7 51.9996 107.499 52.0194 107.305 51.9808C107.111 51.9422 106.933 51.847 106.793 51.7071C106.653 51.5673 106.558 51.3891 106.519 51.1951C106.481 51.0011 106.5 50.8 106.576 50.6173C106.652 50.4346 106.78 50.2784 106.944 50.1685C107.109 50.0587 107.302 50 107.5 50C107.765 50 108.02 50.1054 108.207 50.2929C108.395 50.4804 108.5 50.7348 108.5 51Z" fill="#1C1F1C"/>
<path d="M112.5 51C112.5 51.1978 112.441 51.3911 112.331 51.5556C112.222 51.72 112.065 51.8482 111.883 51.9239C111.7 51.9996 111.499 52.0194 111.305 51.9808C111.111 51.9422 110.933 51.847 110.793 51.7071C110.653 51.5673 110.558 51.3891 110.519 51.1951C110.481 51.0011 110.5 50.8 110.576 50.6173C110.652 50.4346 110.78 50.2784 110.944 50.1685C111.109 50.0587 111.302 50 111.5 50C111.765 50 112.02 50.1054 112.207 50.2929C112.395 50.4804 112.5 50.7348 112.5 51Z" fill="#1C1F1C"/>
<path d="M117.5 49.9964C117.501 50.1941 117.443 50.3877 117.333 50.5525C117.224 50.7174 117.068 50.8461 116.886 50.9225C116.704 50.9988 116.503 51.0194 116.308 50.9815C116.114 50.9436 115.936 50.849 115.795 50.7097C115.655 50.5703 115.559 50.3925 115.52 50.1987C115.481 50.0048 115.5 49.8037 115.575 49.6207C115.65 49.4377 115.777 49.281 115.941 49.1706C116.105 49.0601 116.299 49.0007 116.496 49C116.761 49 117.015 49.1047 117.203 49.2914C117.391 49.478 117.498 49.7314 117.5 49.9964Z" fill="#1C1F1C"/>
<path d="M60.3344 39.0799C59.3851 44.2329 58.0483 46.9271 54.8696 48.7058C52.736 49.9047 49.4746 49.9788 47.145 49.9701L39.2766 32H37.5L46.6877 53H49.3221C52.2483 53 56.3632 52.564 59.3372 49.3423C61.079 47.459 62.5725 45.022 63.5 39.093L60.3344 39.0799Z" fill="#FFD900"/>
<path d="M38.5 31L36.0474 25H32.9526L30.5 31H38.5Z" fill="#FFD900"/>
<path d="M25.5 46C25.3022 46 25.1089 46.0586 24.9444 46.1685C24.78 46.2784 24.6518 46.4346 24.5761 46.6173C24.5004 46.8 24.4806 47.0011 24.5192 47.1951C24.5578 47.3891 24.653 47.5673 24.7929 47.7071C24.9327 47.847 25.1109 47.9422 25.3049 47.9808C25.4989 48.0194 25.7 47.9996 25.8827 47.9239C26.0654 47.8482 26.2216 47.72 26.3315 47.5556C26.4414 47.3911 26.5 47.1978 26.5 47C26.5 46.7348 26.3946 46.4804 26.2071 46.2929C26.0196 46.1054 25.7652 46 25.5 46Z" fill="white"/>
<path d="M30.5 46C30.3022 46 30.1089 46.0587 29.9444 46.1685C29.78 46.2784 29.6518 46.4346 29.5761 46.6173C29.5004 46.8 29.4806 47.0011 29.5192 47.1951C29.5578 47.3891 29.653 47.5673 29.7929 47.7071C29.9327 47.847 30.1109 47.9422 30.3049 47.9808C30.4989 48.0194 30.6999 47.9996 30.8827 47.9239C31.0654 47.8482 31.2216 47.72 31.3315 47.5556C31.4413 47.3911 31.5 47.1978 31.5 47C31.5005 46.8685 31.4749 46.7383 31.4248 46.6168C31.3748 46.4952 31.3011 46.3848 31.2082 46.2918C31.1152 46.1989 31.0048 46.1252 30.8832 46.0751C30.7617 46.0251 30.6314 45.9995 30.5 46Z" fill="white"/>
<path d="M35.5 46C35.3022 46 35.1089 46.0586 34.9444 46.1685C34.78 46.2784 34.6518 46.4346 34.5761 46.6173C34.5004 46.8 34.4806 47.0011 34.5192 47.1951C34.5578 47.3891 34.653 47.5673 34.7929 47.7071C34.9327 47.847 35.1109 47.9422 35.3049 47.9808C35.4989 48.0194 35.7 47.9996 35.8827 47.9239C36.0654 47.8482 36.2216 47.72 36.3315 47.5556C36.4413 47.3911 36.5 47.1978 36.5 47C36.5 46.7348 36.3946 46.4804 36.2071 46.2929C36.0196 46.1054 35.7652 46 35.5 46Z" fill="white"/>
<path d="M26.7523 39L24.5 44H30.2431L32.5 39H26.7523Z" fill="#FFD900"/>
<path d="M33.2444 37L35.5 32H29.751L27.5 37H33.2444Z" fill="#E53324"/>
<path d="M64.4872 32H59.7048C59.7048 33.0393 59.7048 34.0208 59.7048 34.1941C59.6664 35.4162 59.6323 36.5998 59.5 38H64.163C64.3208 36.2342 64.4317 34.2518 64.5 32" fill="#E53324"/>
<path d="M153.5 30H150.5V46H153.5V30Z" fill="#FFD900"/>
<path d="M167.5 38H155.5V40H167.5V38Z" fill="#FFD900"/>
<path d="M156.5 50C156.302 50 156.109 50.0586 155.944 50.1685C155.78 50.2784 155.652 50.4346 155.576 50.6173C155.5 50.8 155.481 51.0011 155.519 51.1951C155.558 51.3891 155.653 51.5673 155.793 51.7071C155.933 51.847 156.111 51.9422 156.305 51.9808C156.499 52.0194 156.7 51.9996 156.883 51.9239C157.065 51.8482 157.222 51.72 157.331 51.5556C157.441 51.3911 157.5 51.1978 157.5 51C157.5 50.7348 157.395 50.4804 157.207 50.2929C157.02 50.1054 156.765 50 156.5 50Z" fill="white"/>
<path d="M161.5 50C161.302 50 161.109 50.0587 160.944 50.1685C160.78 50.2784 160.652 50.4346 160.576 50.6173C160.5 50.8 160.481 51.0011 160.519 51.1951C160.558 51.3891 160.653 51.5673 160.793 51.7071C160.933 51.847 161.111 51.9422 161.305 51.9808C161.499 52.0194 161.7 51.9996 161.883 51.9239C162.065 51.8482 162.222 51.72 162.331 51.5556C162.441 51.3911 162.5 51.1978 162.5 51C162.5 50.8685 162.475 50.7383 162.425 50.6168C162.375 50.4952 162.301 50.3848 162.208 50.2918C162.115 50.1989 162.005 50.1252 161.883 50.0751C161.762 50.0251 161.631 49.9995 161.5 50Z" fill="white"/>
<path d="M166.5 50C166.302 50 166.109 50.0587 165.944 50.1685C165.78 50.2784 165.652 50.4346 165.576 50.6173C165.5 50.8 165.481 51.0011 165.519 51.1951C165.558 51.3891 165.653 51.5673 165.793 51.7071C165.933 51.847 166.111 51.9422 166.305 51.9808C166.499 52.0194 166.7 51.9996 166.883 51.9239C167.065 51.8482 167.222 51.72 167.331 51.5556C167.441 51.3911 167.5 51.1978 167.5 51C167.5 50.8685 167.475 50.7383 167.425 50.6168C167.375 50.4952 167.301 50.3848 167.208 50.2918C167.115 50.1989 167.005 50.1252 166.883 50.0751C166.762 50.0251 166.631 49.9995 166.5 50Z" fill="white"/>
<path d="M168.5 25H160.5V28H168.5V25Z" fill="#E53324"/>
<path d="M158.5 25H150.5V28H158.5V25Z" fill="#FFD900"/>
<path d="M69.4964 25C69.6945 24.9993 69.8883 25.0574 70.0533 25.167C70.2183 25.2766 70.347 25.4328 70.4232 25.6156C70.4993 25.7985 70.5194 25.9999 70.481 26.1942C70.4425 26.3885 70.3472 26.567 70.2071 26.7071C70.067 26.8472 69.8885 26.9425 69.6942 26.981C69.4999 27.0194 69.2985 26.9993 69.1156 26.9232C68.9328 26.847 68.7766 26.7183 68.667 26.5533C68.5574 26.3883 68.4993 26.1945 68.5 25.9964C68.5 25.7321 68.605 25.4787 68.7918 25.2918C68.9787 25.105 69.2321 25 69.4964 25Z" fill="white"/>
<path d="M75.4964 25C75.6945 24.9993 75.8883 25.0574 76.0533 25.167C76.2183 25.2766 76.347 25.4328 76.4232 25.6156C76.4993 25.7985 76.5194 25.9999 76.481 26.1942C76.4425 26.3885 76.3472 26.567 76.2071 26.7071C76.067 26.8472 75.8885 26.9425 75.6942 26.981C75.4999 27.0194 75.2985 26.9993 75.1156 26.9232C74.9328 26.847 74.7766 26.7183 74.667 26.5533C74.5574 26.3883 74.4993 26.1945 74.5 25.9964C74.501 25.7324 74.6062 25.4795 74.7929 25.2929C74.9795 25.1063 75.2324 25.001 75.4964 25Z" fill="white"/>
<path d="M200.125 40.2264C199.883 40.2264 199.647 40.1547 199.446 40.0205C199.245 39.8862 199.089 39.6953 198.996 39.4721C198.904 39.2488 198.88 39.0031 198.927 38.7661C198.974 38.529 199.09 38.3113 199.261 38.1404C199.432 37.9695 199.65 37.8532 199.887 37.806C200.124 37.7589 200.369 37.7831 200.593 37.8755C200.816 37.968 201.007 38.1246 201.141 38.3256C201.275 38.5265 201.347 38.7628 201.347 39.0045C201.348 39.1651 201.316 39.3242 201.255 39.4728C201.194 39.6213 201.104 39.7562 200.99 39.8698C200.877 39.9834 200.742 40.0734 200.593 40.1346C200.445 40.1958 200.286 40.227 200.125 40.2264ZM199.492 45.9302C199.371 46.139 199.19 46.3072 198.973 46.4135C198.756 46.5198 198.513 46.5595 198.273 46.5275C198.034 46.4955 197.81 46.3933 197.628 46.2337C197.447 46.0742 197.317 45.8645 197.255 45.6312C197.192 45.3978 197.201 45.1512 197.279 44.9226C197.356 44.694 197.5 44.4935 197.692 44.3466C197.884 44.1996 198.114 44.1128 198.355 44.097C198.596 44.0812 198.837 44.1372 199.046 44.2579C199.326 44.421 199.531 44.6885 199.614 45.0019C199.698 45.3154 199.654 45.6492 199.492 45.9302ZM187.5 47.2369C185.496 47.2414 183.56 46.5147 182.054 45.1931C180.548 43.8714 179.576 42.0458 179.321 40.0585C179.065 38.0713 179.543 36.0591 180.666 34.3994C181.788 32.7397 183.478 31.5467 185.417 31.0441V33.1891C184.029 33.6799 182.858 34.6458 182.113 35.9162C181.367 37.1865 181.095 38.6795 181.344 40.1312C181.593 41.5828 182.347 42.8997 183.473 43.8491C184.599 44.7985 186.025 45.3192 187.498 45.3192C188.971 45.3192 190.396 44.7985 191.522 43.8491C192.648 42.8997 193.402 41.5828 193.651 40.1312C193.9 38.6795 193.628 37.1865 192.883 35.9162C192.137 34.6458 190.967 33.6799 189.578 33.1891V31.0441C191.517 31.5466 193.207 32.7393 194.329 34.3985C195.452 36.0577 195.93 38.0694 195.675 40.0563C195.42 42.0432 194.449 43.8689 192.944 45.1908C191.439 46.5128 189.503 47.2403 187.5 47.2369ZM180.574 27.0126C180.783 26.8914 181.024 26.835 181.265 26.8505C181.506 26.866 181.738 26.9528 181.93 27.0998C182.122 27.2468 182.266 27.4474 182.344 27.6763C182.421 27.9052 182.43 28.152 182.367 28.3856C182.305 28.6191 182.174 28.8289 181.993 28.9884C181.811 29.1478 181.586 29.2498 181.346 29.2814C181.107 29.313 180.863 29.2727 180.646 29.1658C180.429 29.0588 180.249 28.8899 180.128 28.6805C180.048 28.5418 179.995 28.3885 179.974 28.2295C179.953 28.0705 179.963 27.9088 180.004 27.7538C180.046 27.5988 180.118 27.4535 180.215 27.3263C180.313 27.1991 180.435 27.0925 180.574 27.0126ZM186.657 32.8903V30.8166C187.217 30.7572 187.783 30.7572 188.343 30.8166V32.8903C187.785 32.8013 187.216 32.8013 186.657 32.8903ZM187.5 34.0588C188.63 34.0581 189.727 34.4418 190.61 35.1469C191.494 35.8519 192.111 36.8364 192.361 37.9386L192.495 39.1695C192.495 40.4942 191.969 41.7646 191.032 42.7013C190.095 43.638 188.825 44.1642 187.5 44.1642C186.175 44.1642 184.905 43.638 183.968 42.7013C183.031 41.7646 182.505 40.4942 182.505 39.1695L182.635 37.9386C182.886 36.8364 183.505 35.8523 184.388 35.1474C185.272 34.4425 186.369 34.0587 187.5 34.0588ZM187.5 25.1396C187.742 25.1387 187.979 25.2096 188.18 25.3433C188.382 25.477 188.539 25.6676 188.632 25.8908C188.725 26.114 188.75 26.3598 188.703 26.5971C188.657 26.8344 188.541 27.0526 188.37 27.2239C188.199 27.3953 187.982 27.5121 187.744 27.5596C187.507 27.6071 187.261 27.5832 187.038 27.4908C186.814 27.3985 186.623 27.2419 186.489 27.0408C186.354 26.8398 186.283 26.6034 186.283 26.3615C186.284 26.0385 186.412 25.7291 186.64 25.5003C186.868 25.2715 187.177 25.1419 187.5 25.1396ZM192.758 27.4407C192.834 27.2946 192.939 27.1654 193.067 27.0609C193.194 26.9565 193.342 26.8789 193.5 26.8329C193.658 26.7869 193.824 26.7734 193.988 26.7933C194.152 26.8131 194.31 26.8659 194.453 26.9484C194.595 27.0309 194.72 27.1415 194.819 27.2734C194.918 27.4053 194.989 27.5559 195.028 27.7161C195.067 27.8762 195.073 28.0427 195.047 28.2053C195.02 28.368 194.96 28.5236 194.872 28.6626C194.795 28.8088 194.69 28.938 194.563 29.0424C194.435 29.1469 194.288 29.2245 194.129 29.2704C193.971 29.3164 193.805 29.3299 193.641 29.3101C193.478 29.2902 193.32 29.2374 193.177 29.1549C193.034 29.0724 192.91 28.9619 192.811 28.8299C192.712 28.698 192.641 28.5474 192.602 28.3873C192.562 28.2271 192.556 28.0607 192.583 27.898C192.61 27.7353 192.669 27.5798 192.758 27.4407ZM197.82 31.6283C198.029 31.5076 198.269 31.4516 198.51 31.4674C198.751 31.4832 198.982 31.5701 199.174 31.717C199.365 31.8639 199.509 32.0644 199.587 32.293C199.665 32.5217 199.673 32.7682 199.611 33.0016C199.549 33.2349 199.419 33.4446 199.237 33.6041C199.056 33.7637 198.831 33.8659 198.592 33.8979C198.353 33.9299 198.109 33.8902 197.892 33.7839C197.675 33.6776 197.495 33.5094 197.374 33.3006C197.212 33.0196 197.168 32.6858 197.251 32.3724C197.335 32.0589 197.539 31.7914 197.82 31.6283ZM187.5 22C184.138 22 180.851 22.997 178.055 24.865C175.26 26.733 173.081 29.388 171.794 32.4944C170.507 35.6007 170.171 39.0189 170.827 42.3165C171.483 45.6142 173.102 48.6433 175.479 51.0208C177.857 53.3983 180.886 55.0174 184.183 55.6733C187.481 56.3293 190.899 55.9926 194.006 54.7059C197.112 53.4193 199.767 51.2403 201.635 48.4447C203.503 45.6491 204.5 42.3623 204.5 39C204.5 34.4913 202.709 30.1673 199.521 26.9792C196.333 23.7911 192.009 22 187.5 22Z" fill="#1C1F1C"/>
<path d="M187.316 49.4129C185.162 49.412 183.054 48.7922 181.242 47.6272C179.43 46.4622 177.992 44.8011 177.097 42.8417C176.203 40.8823 175.891 38.7072 176.197 36.5753C176.504 34.4434 177.417 32.4445 178.828 30.8167L177.011 29C174.661 31.6297 173.407 35.0591 173.505 38.5845C173.604 42.1098 175.049 45.4635 177.543 47.9573C180.036 50.4511 183.39 51.8957 186.916 51.9946C190.441 52.0935 193.87 50.8392 196.5 48.4892L194.666 46.6856C192.626 48.4551 190.016 49.4282 187.316 49.426" fill="#FFD900"/>
<path d="M184.983 41.5838C185.027 41.7056 185.106 41.8107 185.21 41.8851C185.314 41.9595 185.438 41.9996 185.565 42C185.686 41.9991 185.805 41.9624 185.907 41.8943C186.008 41.8261 186.088 41.7295 186.138 41.6159L187.529 38.282L188.827 41.6067C188.876 41.7238 188.958 41.8235 189.062 41.8935C189.166 41.9634 189.288 42.0005 189.413 42C189.538 41.9984 189.66 41.9577 189.763 41.8833C189.865 41.809 189.943 41.7045 189.985 41.5838L190.912 38.9863H192.5L192.366 37.7195H190.478C190.35 37.72 190.225 37.7606 190.12 37.8358C190.015 37.911 189.935 38.0173 189.891 38.1402L189.377 39.5991L188.12 36.3979C188.074 36.281 187.994 36.1808 187.893 36.1099C187.791 36.0391 187.67 36.0008 187.547 36C187.425 36.0009 187.307 36.0375 187.205 36.1057C187.104 36.1738 187.023 36.2705 186.974 36.3841L185.632 39.654L185.095 38.1448C185.053 38.0218 184.974 37.9154 184.87 37.84C184.765 37.7647 184.641 37.7242 184.513 37.7241H182.63L182.5 38.9908H184.084L184.983 41.5838Z" fill="#E53324"/>
</svg>
