<svg width="51" height="36" viewBox="0 0 51 36" fill="none" xmlns="http://www.w3.org/2000/svg">
<g clip-path="url(#clip0_271_6755)">
<path d="M5.9621 35H1L4.04676 24H9L5.9621 35Z" fill="#E33523"/>
<path d="M6.3995 35.9742H1.7472C1.63206 35.9746 1.51839 35.9476 1.41514 35.8953C1.31188 35.843 1.22186 35.7668 1.15212 35.6727C1.08239 35.5787 1.03482 35.4693 1.01321 35.3532C0.991607 35.2371 0.996563 35.1174 1.02761 35.0036L3.88927 24.5583C3.93157 24.398 4.02413 24.2564 4.15269 24.1555C4.28125 24.0545 4.43864 23.9999 4.60048 24H9.25278C9.36792 23.9996 9.48159 24.0266 9.58484 24.0789C9.6881 24.1312 9.77817 24.2074 9.84791 24.3015C9.91764 24.3956 9.96517 24.5049 9.98677 24.621C10.0084 24.7371 10.0035 24.8568 9.97242 24.9707L7.11909 35.4417C7.07393 35.602 6.97945 35.743 6.84974 35.8437C6.72004 35.9443 6.56209 35.9991 6.3995 36M2.72618 34.471H5.8389L8.2738 25.529H5.16946L2.72618 34.471Z" fill="black"/>
<path d="M4.59303 10C2.61337 10 1 13.132 1 17C1 20.868 2.61337 24 4.59303 24H13V10H4.59303Z" fill="#E33523"/>
<path d="M13.1977 25H4.50741C1.97425 25 0 21.4719 0 17C0 12.5281 1.97425 9 4.50741 9H13.1977C13.4105 9 13.6145 9.08271 13.765 9.22993C13.9155 9.37715 14 9.57682 14 9.78502V24.215C14 24.4232 13.9155 24.6229 13.765 24.7701C13.6145 24.9173 13.4105 25 13.1977 25ZM4.50741 10.57C3.12815 10.57 1.59559 13.2161 1.59559 17C1.59559 20.7839 3.12815 23.43 4.50741 23.43H12.4314V10.57H4.50741Z" fill="black"/>
<path d="M30 33V1L11.9323 9.97923L11.5926 10.1454C10.0907 11.0197 9 13.765 9 16.9825C9 20.2 10.0907 22.9191 11.5926 23.8197L11.9323 23.9858L30 33Z" fill="#FFD905"/>
<path d="M30.2326 33.9114C30.1112 33.9094 29.9918 33.8791 29.8838 33.8228L12.2874 24.7163L11.956 24.548H11.9037C10.1597 23.4673 9 20.42 9 16.9563C9 13.4926 10.1685 10.4454 11.9037 9.36462H11.956L12.2786 9.19631L29.8751 0.0898094C29.9927 0.0268412 30.1245 -0.00396444 30.2574 0.0004084C30.3904 0.00478124 30.52 0.0441643 30.6334 0.114735C30.7468 0.185305 30.8403 0.28463 30.9045 0.402943C30.9688 0.521256 31.0017 0.654493 30.9999 0.789608V33.2116C30.9999 33.3449 30.9662 33.476 30.9021 33.5923C30.8379 33.7086 30.7455 33.8063 30.6337 33.876C30.5106 33.9542 30.369 33.9971 30.2239 34M12.9501 23.3698L29.4217 31.9005V2.04752L12.9501 10.5782L12.6623 10.7288C11.5985 11.4198 10.526 13.7673 10.526 16.9297C10.526 20.0922 11.5985 22.4751 12.6623 23.1306L12.9501 23.3698Z" fill="black"/>
<path d="M41 17.5C41 26.6138 36.95 34 32 34C27.05 34 23 26.6138 23 17.5C23 8.38622 27.05 1 32 1C36.95 1 41 8.38622 41 17.5Z" fill="white"/>
<path d="M31.474 34C26.1655 34 22 26.5273 22 17C22 7.47271 26.1655 0 31.474 0C36.7826 0 41 7.43803 41 16.974C41 26.5099 36.8432 33.974 31.526 33.974M31.526 1.51708C27.196 1.51708 23.5935 8.59968 23.5935 16.974C23.5935 25.3483 27.144 32.4569 31.474 32.4569C35.804 32.4569 39.4065 25.383 39.4065 17C39.4065 8.61702 35.804 1.54309 31.474 1.54309" fill="black"/>
<path d="M35 25.5C35 25.9945 34.824 26.4778 34.4944 26.8889C34.1647 27.3001 33.6963 27.6205 33.1481 27.8097C32.5999 27.9989 31.9967 28.0484 31.4147 27.952C30.8328 27.8555 30.2982 27.6174 29.8787 27.2678C29.4591 26.9181 29.1734 26.4727 29.0576 25.9877C28.9419 25.5028 29.0013 25.0001 29.2284 24.5433C29.4555 24.0865 29.84 23.696 30.3333 23.4213C30.8267 23.1466 31.4067 23 32 23C32.7957 23 33.5587 23.2634 34.1213 23.7322C34.6839 24.2011 35 24.837 35 25.5Z" fill="black"/>
<path d="M32 5.0086C31.2044 5.0086 30.4413 5.28018 29.8787 5.76363C29.3161 6.24707 29 6.90278 29 7.58648V18.4221C29 19.1058 29.3161 19.7615 29.8787 20.245C30.4413 20.7284 31.2044 21 32 21C32.7956 21 33.5587 20.7284 34.1213 20.245C34.6839 19.7615 35 19.1058 35 18.4221V7.57787C35 6.89418 34.6839 6.2385 34.1213 5.75505C33.5587 5.27161 32.7956 5 32 5" fill="black"/>
<path d="M49.9098 17H46.0902C45.801 17 45.5238 16.8946 45.3193 16.7071C45.1149 16.5196 45 16.2652 45 16C45 15.7348 45.1149 15.4804 45.3193 15.2929C45.5238 15.1054 45.801 15 46.0902 15H49.9098C50.199 15 50.4763 15.1054 50.6807 15.2929C50.8852 15.4804 51 15.7348 51 16C51 16.2652 50.8852 16.5196 50.6807 16.7071C50.4763 16.8946 50.199 17 49.9098 17Z" fill="black"/>
<path d="M45.8908 27.9833C45.7369 27.989 45.5836 27.963 45.4401 27.9069C45.2967 27.8508 45.1662 27.7658 45.0568 27.6572L42.3129 24.8981C42.2111 24.7921 42.131 24.6671 42.0774 24.5302C42.0237 24.3932 41.9975 24.247 42.0002 24.0998C42.0029 23.9527 42.0345 23.8076 42.0932 23.6727C42.1519 23.5378 42.2364 23.4158 42.3421 23.3137C42.4478 23.2116 42.5726 23.1313 42.7092 23.0776C42.8458 23.0238 42.9916 22.9975 43.1384 23.0002C43.2852 23.0029 43.4299 23.0346 43.5645 23.0934C43.699 23.1522 43.8207 23.237 43.9226 23.343L46.6748 26.0937C46.8831 26.3036 47 26.5877 47 26.8838C47 27.1799 46.8831 27.464 46.6748 27.6739C46.4669 27.8825 46.1849 27.9998 45.8908 28" fill="black"/>
<path d="M43.102 9C42.8098 8.99976 42.5297 8.86026 42.3231 8.61219C42.1162 8.36252 42 8.02468 42 7.67253C42 7.32038 42.1162 6.98257 42.3231 6.7329L45.0493 3.46149C45.1491 3.32288 45.2716 3.21044 45.4093 3.13119C45.5469 3.05194 45.6966 3.00757 45.8491 3.00089C46.0017 2.9942 46.1537 3.02535 46.2958 3.09235C46.4379 3.15934 46.5669 3.26076 46.6748 3.39027C46.7827 3.51979 46.8673 3.67461 46.9231 3.84508C46.9789 4.01556 47.0048 4.198 46.9993 4.38104C46.9937 4.56408 46.9568 4.74379 46.8907 4.90892C46.8247 5.07405 46.731 5.22106 46.6154 5.34079L43.881 8.61219C43.6744 8.86026 43.3943 8.99976 43.102 9Z" fill="black"/>
</g>
<defs>
<clipPath id="clip0_271_6755">
<rect width="51" height="36" fill="white"/>
</clipPath>
</defs>
</svg>
