<svg width="45" height="45" viewBox="0 0 45 45" fill="none" xmlns="http://www.w3.org/2000/svg">
<path d="M34.1039 16L28 10.4511L32.8961 6L39 11.549L34.1039 16ZM30.0237 10.4511L34.1039 14.1603L36.9191 11.6083L32.839 7.89912L30.0237 10.4511Z" fill="#000100"/>
<path d="M39.0682 13.9989C38.823 13.9988 38.588 13.8904 38.4147 13.6977L31.2266 5.71149C31.0728 5.51364 30.992 5.25845 31.0006 4.9972C31.0092 4.73595 31.1065 4.48799 31.2729 4.30314C31.4392 4.11828 31.6624 4.01023 31.8976 4.00069C32.1327 3.99115 32.3624 4.08084 32.5405 4.25172L39.7286 12.2457C39.8606 12.3921 39.9497 12.5794 39.9841 12.7831C40.0185 12.9868 39.9967 13.1973 39.9216 13.3869C39.8464 13.5765 39.7213 13.7365 39.5628 13.8457C39.4043 13.955 39.2197 14.0084 39.0334 13.9989" fill="#000100"/>
<path d="M11.0514 38.9992C10.9147 39.0051 10.7783 38.9782 10.6508 38.9202C10.5234 38.8622 10.4075 38.7744 10.3103 38.662L6.24153 33.9157C6.07757 33.6943 5.99151 33.4086 6.00066 33.1162C6.00982 32.8238 6.11346 32.5462 6.29084 32.3393C6.46822 32.1324 6.70619 32.0114 6.95687 32.0008C7.20755 31.9901 7.45237 32.0905 7.64222 32.2818L11.711 37.0281C11.8961 37.2451 12 37.5389 12 37.8451C12 38.1512 11.8961 38.445 11.711 38.662C11.5262 38.8777 11.2757 38.999 11.0143 38.9992" fill="#000100"/>
<path d="M30.6075 24H36C36 19.7648 34.4211 15.7024 31.6094 12.7032C28.7976 9.70397 24.9824 8.01267 21 8V13.7428C23.558 13.7428 26.0113 14.8234 27.8201 16.7471C29.6289 18.6707 30.645 21.2796 30.645 24" fill="#FFD905"/>
<path d="M37 24H30.0105V23.3495C30.0105 21.0232 29.0287 18.7923 27.281 17.1474C25.5332 15.5025 23.1628 14.5783 20.6912 14.5783H20V8H20.6912C25.0018 8.01158 29.1321 9.62886 32.1795 12.4983C35.2268 15.3677 36.9432 19.2559 36.9534 23.3129L37 24ZM31.3929 22.699H35.6021C35.4267 19.2137 33.8774 15.915 31.2567 13.4471C28.636 10.9792 25.132 9.51923 21.429 9.35222V13.3211C24.0158 13.4808 26.4528 14.5201 28.2859 16.2454C30.119 17.9707 31.2232 20.2643 31.3929 22.699Z" fill="#000100"/>
<path d="M10.7348 24H5C5 25.9698 5.41385 27.9204 6.21793 29.7403C7.022 31.5601 8.20055 33.2137 9.68628 34.6066C11.172 35.9995 12.9359 37.1044 14.8771 37.8582C16.8183 38.612 18.8989 39 21 39V33.6162C18.2789 33.6162 15.6691 32.6033 13.7442 30.8001C11.8194 28.9969 10.7369 26.551 10.7348 24Z" fill="#E23523"/>
<path d="M21 40H20.3495C16.2785 40 12.3743 38.1807 9.49575 34.9423C6.61717 31.7039 5 27.3117 5 22.7319V22H11.5783V22.7319C11.5783 25.3489 12.5024 27.8587 14.1473 29.7092C15.7922 31.5598 18.0232 32.5994 20.3495 32.5994H21V40ZM6.38146 23.5048C6.54833 27.4265 8.00805 31.1375 10.4758 33.9137C12.9435 36.69 16.2423 38.3321 19.7282 38.5199V34.0548C17.2863 33.885 14.9829 32.7203 13.2489 30.7786C11.5149 28.8369 10.4689 26.2512 10.3065 23.5048H6.38146Z" fill="#000100"/>
<path d="M21 13.7428V8C16.7565 8 12.6869 9.68573 9.68628 12.6863C6.6857 15.6869 5 19.7565 5 24H10.7348C10.7348 22.6523 11.0004 21.3179 11.5163 20.0729C12.0323 18.8279 12.7886 17.6968 13.7419 16.7442C14.6952 15.7917 15.8269 15.0363 17.0723 14.5213C18.3177 14.0063 19.6523 13.7417 21 13.7428Z" fill="#000100"/>
<path d="M11.5783 24H5V23.348C5.00968 19.2741 6.63111 15.3703 9.50865 12.4931C12.3862 9.61582 16.2849 7.99999 20.3495 8H21V14.5934H20.3495C18.0232 14.5934 15.7922 15.5196 14.1473 17.1683C12.5024 18.817 11.5783 21.053 11.5783 23.3846V24ZM6.33761 22.696H10.2919C10.4533 20.2551 11.4941 17.9561 13.2206 16.227C14.947 14.4979 17.2416 13.4566 19.677 13.2967V9.31867C16.1905 9.48429 12.8909 10.9469 10.4228 13.4206C7.95471 15.8943 6.49553 19.2015 6.33029 22.696" fill="#000100"/>
<path d="M36 24H30.6209C30.6209 26.5504 29.6073 28.9963 27.803 30.7997C25.9988 32.603 23.5516 33.6162 21 33.6162V39C24.9725 38.9881 28.7782 37.4025 31.5829 34.5908C34.3877 31.779 35.9626 27.9705 35.9626 24" fill="#000100"/>
<path d="M20.6912 40H20V32.5994H20.6912C23.1628 32.5994 25.5332 31.5598 27.281 29.7092C29.0287 27.8587 30.0105 25.3489 30.0105 22.7319V22H37V22.7319C37 27.3031 35.2882 31.6879 32.2398 34.9249C29.1913 38.1619 25.0551 39.9869 20.7378 40M21.429 34.0548V38.5199C25.1314 38.3301 28.6344 36.6871 31.2547 33.9111C33.8751 31.1351 35.425 27.4251 35.6021 23.5048H31.3929C31.2232 26.2438 30.119 28.8241 28.2859 30.7651C26.4528 32.706 24.0158 33.8752 21.429 34.0548Z" fill="#000100"/>
<path d="M20.5 35C18.4233 35 16.3932 34.3549 14.6665 33.1462C12.9398 31.9375 11.594 30.2195 10.7993 28.2095C10.0046 26.1995 9.79661 23.9878 10.2018 21.854C10.6069 19.7202 11.6069 17.7602 13.0754 16.2218C14.5438 14.6834 16.4147 13.6358 18.4515 13.2114C20.4883 12.7869 22.5996 13.0048 24.5182 13.8373C26.4368 14.6699 28.0767 16.0798 29.2305 17.8887C30.3842 19.6977 31 21.8244 31 24C30.996 26.9161 29.8884 29.7115 27.9201 31.7735C25.9519 33.8355 23.2835 34.9958 20.5 35ZM20.5 14.424C18.6876 14.424 16.9159 14.987 15.409 16.0419C13.902 17.0968 12.7275 18.5961 12.0339 20.3502C11.3403 22.1044 11.1589 24.0347 11.5124 25.8969C11.866 27.7591 12.7388 29.4696 14.0203 30.8122C15.3019 32.1548 16.9347 33.0691 18.7123 33.4396C20.4898 33.81 22.3323 33.6199 24.0068 32.8933C25.6812 32.1667 27.1124 30.9362 28.1193 29.3575C29.1262 27.7788 29.6636 25.9227 29.6636 24.024C29.6636 21.4779 28.6982 19.0361 26.9797 17.2358C25.2612 15.4354 22.9303 14.424 20.5 14.424Z" fill="#000100"/>
<path d="M22 23.5075C22.0012 23.0124 21.8848 22.5281 21.6655 22.1158C21.4462 21.7035 21.1338 21.3819 20.7682 21.1918C20.4025 21.0016 19.9998 20.9514 19.6113 21.0477C19.2228 21.1439 18.8659 21.3822 18.5858 21.7322C18.3057 22.0823 18.1151 22.5285 18.0381 23.0141C17.9612 23.4998 18.0013 24.0031 18.1534 24.4602C18.3055 24.9173 18.5628 25.3077 18.8926 25.5818C19.2224 25.8559 19.61 26.0015 20.006 26C20.5349 26 21.042 25.7374 21.416 25.27C21.7899 24.8025 22 24.1686 22 23.5075Z" fill="#000100"/>
<path d="M26.051 23.9801H20V16.8132C20.0207 16.5913 20.1299 16.3846 20.3063 16.2341C20.4827 16.0835 20.7133 16 20.9526 16C21.1919 16 21.4225 16.0835 21.5988 16.2341C21.7752 16.3846 21.8845 16.5913 21.9052 16.8132V22.2332H26.051C26.3027 22.2332 26.544 22.3263 26.722 22.4919C26.9 22.6576 27 22.8823 27 23.1166C27 23.3509 26.9 23.5756 26.722 23.7413C26.544 23.9069 26.3027 24 26.051 24" fill="#000100"/>
</svg>
