<?xml version="1.0" encoding="utf-8"?>
<!-- Generator: Adobe Illustrator 24.0.2, SVG Export Plug-In . SVG Version: 6.00 Build 0)  -->
<svg version="1.1" id="Слой_1" xmlns="http://www.w3.org/2000/svg" xmlns:xlink="http://www.w3.org/1999/xlink" x="0px" y="0px"
	 viewBox="0 0 29.9 19.7" style="enable-background:new 0 0 29.9 19.7;" xml:space="preserve">
<style type="text/css">
	.st0{fill:#1D1E1C;stroke:#FFFFFF;stroke-width:6;stroke-linecap:round;stroke-linejoin:round;stroke-miterlimit:10;}
	.st1{fill:#1D1E1C;stroke:#FFFFFF;stroke-width:2;stroke-miterlimit:10;}
	.st2{fill:#1D1E1C;}
</style>
<g id="Слой_1__x28_копия_x29_">
	<g id="Layer_1_1_">
		<g>
			<g>
				<g>
					<path class="st0" d="M25.6,9.6c-0.2-0.2-3.9-5.8-10.5-5.8S4.7,9.4,4.6,9.6l-0.4,0.6l0.4,0.6c0.2,0.2,3.8,5.8,10.5,5.8
						s10.4-5.6,10.5-5.8l0.4-0.6L25.6,9.6z M15.1,14.5c-4.3,0-7.2-3-8.3-4.3c1-1.2,4-4.3,8.3-4.3s7.2,3,8.3,4.3
						C22.4,11.5,19.4,14.5,15.1,14.5z"/>
					<path class="st0" d="M17.1,9c0.4,0,0.7,0.1,0.9,0.4c-0.4-1.3-1.5-2.2-2.9-2.2c-1.7,0-3,1.3-3,3c0,1.6,1.3,3,3,3
						c1.4,0,2.5-0.9,2.9-2.2c-0.2,0.2-0.5,0.4-0.9,0.4c-0.7,0-1.2-0.5-1.2-1.2C15.9,9.6,16.4,9,17.1,9z"/>
				</g>
			</g>
		</g>
	</g>
	<g id="Layer_1__x28_копия_x29__1_">
		<g>
			<g>
				<g>
					<path class="st0" d="M25.6,9.6c-0.2-0.2-3.9-5.8-10.5-5.8S4.7,9.4,4.6,9.6l-0.4,0.6l0.4,0.6c0.2,0.2,3.8,5.8,10.5,5.8
						s10.4-5.6,10.5-5.8l0.4-0.6L25.6,9.6z M15.1,14.5c-4.3,0-7.2-3-8.3-4.3c1-1.2,4-4.3,8.3-4.3s7.2,3,8.3,4.3
						C22.4,11.5,19.4,14.5,15.1,14.5z"/>
					<path class="st0" d="M17.1,9c0.4,0,0.7,0.1,0.9,0.4c-0.4-1.3-1.5-2.2-2.9-2.2c-1.7,0-3,1.3-3,3c0,1.6,1.3,3,3,3
						c1.4,0,2.5-0.9,2.9-2.2c-0.2,0.2-0.5,0.4-0.9,0.4c-0.7,0-1.2-0.5-1.2-1.2C15.9,9.6,16.4,9,17.1,9z"/>
				</g>
			</g>
		</g>
	</g>
</g>
<g id="Слой_1_1_">
	<g id="Layer_1">
		<g>
			<g>
				<g>
					<path class="st1" d="M25.6,9.6c-0.2-0.2-3.9-5.8-10.5-5.8S4.7,9.4,4.6,9.6l-0.4,0.6l0.4,0.6c0.2,0.2,3.8,5.8,10.5,5.8
						s10.4-5.6,10.5-5.8l0.4-0.6L25.6,9.6z M15.1,14.5c-4.3,0-7.2-3-8.3-4.3c1-1.2,4-4.3,8.3-4.3s7.2,3,8.3,4.3
						C22.4,11.5,19.4,14.5,15.1,14.5z"/>
					<path class="st1" d="M17.1,9c0.4,0,0.7,0.1,0.9,0.4c-0.4-1.3-1.5-2.2-2.9-2.2c-1.7,0-3,1.3-3,3c0,1.6,1.3,3,3,3
						c1.4,0,2.5-0.9,2.9-2.2c-0.2,0.2-0.5,0.4-0.9,0.4c-0.7,0-1.2-0.5-1.2-1.2C15.9,9.6,16.4,9,17.1,9z"/>
				</g>
			</g>
		</g>
	</g>
	<g id="Layer_1__x28_копия_x29_">
		<g>
			<g>
				<g>
					<path class="st2" d="M25.6,9.6c-0.2-0.2-3.9-5.8-10.5-5.8S4.7,9.4,4.6,9.6l-0.4,0.6l0.4,0.6c0.2,0.2,3.8,5.8,10.5,5.8
						s10.4-5.6,10.5-5.8l0.4-0.6L25.6,9.6z M15.1,14.5c-4.3,0-7.2-3-8.3-4.3c1-1.2,4-4.3,8.3-4.3s7.2,3,8.3,4.3
						C22.4,11.5,19.4,14.5,15.1,14.5z"/>
					<path class="st2" d="M17.1,9c0.4,0,0.7,0.1,0.9,0.4c-0.4-1.3-1.5-2.2-2.9-2.2c-1.7,0-3,1.3-3,3c0,1.6,1.3,3,3,3
						c1.4,0,2.5-0.9,2.9-2.2c-0.2,0.2-0.5,0.4-0.9,0.4c-0.7,0-1.2-0.5-1.2-1.2C15.9,9.6,16.4,9,17.1,9z"/>
				</g>
			</g>
		</g>
	</g>
</g>
</svg>
