<?xml version="1.0" encoding="utf-8"?>
<!-- Generator: Adobe Illustrator 24.0.2, SVG Export Plug-In . SVG Version: 6.00 Build 0)  -->
<svg version="1.1" id="Layer_1" xmlns="http://www.w3.org/2000/svg" xmlns:xlink="http://www.w3.org/1999/xlink" x="0px" y="0px"
	 viewBox="0 0 210.6 210.6" style="enable-background:new 0 0 210.6 210.6;" xml:space="preserve">
<style type="text/css">
	.st0{fill-rule:evenodd;clip-rule:evenodd;fill:#FFFFFF;}
	.st1{clip-path:url(#SVGID_2_);}
	.st2{fill-rule:evenodd;clip-rule:evenodd;fill:#E52D12;}
	.st3{fill-rule:evenodd;clip-rule:evenodd;fill:#050008;}
</style>
<g>
	<circle class="st0" cx="105.3" cy="105.3" r="103.5"/>
	<g>
		<g>
			<defs>
				<circle id="SVGID_1_" cx="105.3" cy="105.3" r="103.5"/>
			</defs>
			<clipPath id="SVGID_2_">
				<use xlink:href="#SVGID_1_"  style="overflow:visible;"/>
			</clipPath>
			<g class="st1">
				<g>
					<path class="st2" d="M113.4,1.7v11.9c28.4,2.5,53.2,18,68.2,40.5L171.2,60c-14.3-21.1-38.6-35-66-35c-12.5,0-24.2,2.8-34.7,8
						l5.9,10.3c7.1-3.3,14.7-5.4,22.9-6.1v11.9c-26.3,2.8-47.3,23.7-50,50h12c0.5-3.8,1.5-7.5,2.9-10.9l10.3,6
						c-1.2,3.4-1.9,7.1-1.9,10.9c0,18,14.5,32.6,32.5,32.6c3.8,0,7.5-0.7,10.9-1.9l-6.1-10.5c-1.6,0.4-3.1,0.6-4.8,0.6
						c-11.4,0-20.7-9.2-20.7-20.7c0-9.4,6.3-17.3,14.8-19.8V73.2c-7.5,1.4-14.1,5.3-18.9,10.9l-10.4-6c8.2-10.5,20.8-17.3,35.1-17.3
						s27,6.8,35.1,17.3l-10.4,6c-4.7-5.6-11.3-9.5-18.9-10.9v12.1c8.5,2.6,14.8,10.5,14.8,19.8c0,5.5-2.2,10.5-5.7,14.2l6.1,10.5
						c7-6,11.4-14.8,11.4-24.8c0-3.8-0.7-7.5-1.9-10.9l10.3-6c1.4,3.4,2.5,7.2,2.9,10.9h11.9c-2.8-26.3-23.7-47.3-50-50V37.3
						c34.8,3,62.1,32.2,62.1,67.9c0,10.3-2.3,20-6.4,28.8l-10.3-6c2.4-5.3,3.9-11,4.5-16.9h-11.9c-2.8,21.7-21.4,38.5-43.9,38.5
						c-6,0-11.7-1.2-16.9-3.3l-6,10.3c7,3.1,14.7,4.9,22.9,4.9c18.7,0,35.2-9.1,45.4-23.2l10.3,6c-4.5,6.5-10.2,12.2-16.7,16.7
						l5.9,10.3c21.1-14.4,34.9-38.6,34.9-66.1c0-12.5-2.8-24.3-8-34.8l10.3-5.9c6.1,12.3,9.4,26.1,9.4,40.7c0,13.9-3,26.9-8.5,38.7
						l11.1,6.5c6.5-13.6,9.7-29.1,9.7-45.1C209.2,50.7,166.7,5.9,113.4,1.7z"/>
					<path class="st2" d="M111.2,196.8v-11.9c10.2-0.8,19.9-3.4,28.8-7.7l-5.9-10.3c-8.7,4.1-18.5,6.4-28.8,6.4
						c-23.1,0-43.4-11.5-55.7-29.1l10.3-6c3.4,4.7,7.6,8.9,12.3,12.4l6-10.3c-9-7-15.2-17.4-16.8-29.2h-12c0.6,6,2.2,11.7,4.5,16.9
						l-10.3,6c-4.1-8.7-6.4-18.5-6.4-28.8c0-23.1,11.5-43.5,29-55.8L60.3,39c-8.3,5.7-15.4,12.8-21,21.1l-10.3-5.9
						c15-22.5,39.8-38,68.2-40.5v-12C43.8,5.9,1.7,50.6,1.7,105.1c0,16,3.6,31.1,10.1,44.7l10.3-6c-5.5-11.8-8.5-24.9-8.5-38.7
						c0-14.6,3.4-28.4,9.5-40.7l10.3,6c-5.1,10.5-8,22.3-8,34.8c0,42.2,32.6,76.7,74,79.8v11.9C70.9,195,45.9,180.1,30.3,158
						L20,163.9c18.7,27.2,49.9,45,85.4,45c35.4,0,66.7-17.8,85.4-45l-10.3-5.9C164.7,180.1,139.8,195,111.2,196.8z"/>
				</g>
			</g>
		</g>
	</g>
	<path class="st3" d="M114.1,105.3c0-4.9-3.9-8.8-8.8-8.8s-8.8,4-8.8,8.8c0,4.9,3.9,8.8,8.8,8.8
		C110.1,114.1,114.1,110.2,114.1,105.3z"/>
</g>
</svg>
