<svg width="277" height="59" viewBox="0 0 277 59" fill="none" xmlns="http://www.w3.org/2000/svg">
<path d="M97 32.8335V24.5408C97 24.1321 96.8395 23.7402 96.5538 23.4513C96.2682 23.1623 95.8808 23 95.4768 23H72.5232C72.1192 23 71.7318 23.1623 71.4461 23.4513C71.1605 23.7402 71 24.1321 71 24.5408V57.4592C71 57.8679 71.1605 58.2598 71.4461 58.5487C71.7318 58.8377 72.1192 59 72.5232 59H80.7172C81.1212 59 81.5086 58.8377 81.7943 58.5487C82.0799 58.2598 82.2404 57.8679 82.2404 57.4592V34.3698H95.4768C95.6766 34.3704 95.8746 34.3311 96.0594 34.2541C96.2441 34.1772 96.4121 34.0641 96.5536 33.9214C96.6951 33.7787 96.8074 33.6091 96.884 33.4224C96.9606 33.2357 97 33.0356 97 32.8335Z" fill="white"/>
<path d="M59.9911 28.5237C59.947 27.9212 59.7042 27.3499 59.3002 26.8982C58.8961 26.4465 58.3534 26.1396 57.7559 26.0251L55.6728 25.67C55.6102 25.2262 55.5342 24.8312 55.4537 24.414L57.2776 23.38C57.8057 23.0696 58.2151 22.594 58.4417 22.0278C58.6682 21.4615 58.699 20.8366 58.5293 20.2511C58.5293 20.2511 58.4354 19.9493 58.2074 19.328C57.9794 18.7067 57.8543 18.4138 57.8453 18.396C57.6289 17.9136 57.2766 17.5036 56.8309 17.2154C56.3851 16.9272 55.865 16.7731 55.333 16.7717C55.1831 16.7721 55.0336 16.7854 54.886 16.8116L52.8118 17.1888C52.6062 16.8116 52.3916 16.4477 52.1681 16.0838L53.5092 14.4905C53.9001 14.0194 54.1216 13.4324 54.1386 12.8222C54.1556 12.2121 53.9672 11.6138 53.603 11.122C53.603 11.122 53.4108 10.8735 52.9861 10.3675C52.5615 9.86158 52.338 9.62192 52.338 9.61749C52.0802 9.35114 51.7705 9.13977 51.4277 8.99631C51.0849 8.85285 50.7162 8.78031 50.3442 8.78312C49.8737 8.77913 49.4106 8.90019 49.0031 9.13374L47.1748 10.1944C46.8529 9.91484 46.5266 9.63967 46.1958 9.37782L46.9245 7.41176C47.1283 6.83759 47.134 6.21238 46.9406 5.63465C46.7472 5.05692 46.3656 4.55951 45.8561 4.22078C45.8561 4.22078 45.5878 4.04769 45.0112 3.71484C44.4345 3.38198 44.1529 3.23996 44.1171 3.23552C43.7469 3.05052 43.338 2.95472 42.9236 2.95592C42.5229 2.95424 42.1266 3.03911 41.7623 3.20464C41.3979 3.37018 41.0742 3.61241 40.8136 3.91455L39.4725 5.52558C39.0761 5.36876 38.6738 5.22083 38.2655 5.08177V2.99587C38.2603 2.38711 38.0509 1.79742 37.6704 1.32C37.29 0.84259 36.7601 0.504673 36.1645 0.359651C36.1645 0.359651 35.8516 0.288643 35.1945 0.173253C34.5373 0.0578626 34.2244 0.0179172 34.2065 0.0179172C34.1068 0.0111605 34.0067 0.0111605 33.907 0.0179172C33.3481 0.0214755 32.8034 0.192987 32.3446 0.509867C31.8858 0.826747 31.5343 1.27414 31.3366 1.79315L30.2503 4.82436C30.1918 4.99134 30.1616 5.16681 30.1609 5.34361H29.8391C29.8395 5.16633 29.8077 4.99043 29.7452 4.82436L28.6455 1.77984C28.4488 1.26012 28.0977 0.812039 27.6386 0.494996C27.1796 0.177953 26.6343 0.00692788 26.0751 0.00460351C25.9694 -0.0015345 25.8634 -0.0015345 25.7577 0.00460351C25.7577 0.00460351 25.4448 0.0445489 24.7877 0.159939C24.1305 0.275329 23.8176 0.346335 23.8042 0.350773C23.2126 0.497941 22.6868 0.835629 22.3091 1.31101C21.9314 1.78639 21.723 2.37266 21.7166 2.97812V5.06845C21.3143 5.20751 20.9119 5.35545 20.5096 5.51226L19.1685 3.90124C18.9081 3.59887 18.5844 3.35647 18.22 3.19092C17.8556 3.02536 17.4593 2.94063 17.0586 2.94261C16.6395 2.94334 16.2264 3.04056 15.8516 3.22665C15.8516 3.22665 15.5655 3.37311 14.9888 3.70152C14.4122 4.02994 14.1439 4.20747 14.1305 4.21634C13.6256 4.55574 13.2482 5.05167 13.0573 5.62661C12.8665 6.20154 12.8729 6.82306 13.0755 7.394L13.8087 9.36451C13.4734 9.62636 13.1471 9.90152 12.8252 10.1811L11.0013 9.12042C10.593 8.88885 10.1305 8.76794 9.66026 8.76981C9.28611 8.76693 8.91533 8.84028 8.57087 8.98532C8.2264 9.13035 7.91557 9.344 7.65758 9.61304C7.65758 9.61304 7.43853 9.84383 7.00492 10.3542C6.5713 10.8646 6.38802 11.1087 6.37461 11.1264C6.01867 11.6178 5.83584 12.2119 5.85443 12.8169C5.87302 13.4218 6.09199 14.0038 6.47743 14.4727L7.81851 16.0704C7.59947 16.4344 7.37148 16.7983 7.17926 17.1755L5.10058 16.7983C4.95306 16.7719 4.80346 16.7585 4.65356 16.7584C4.11761 16.7598 3.59362 16.9158 3.14525 17.2073C2.69689 17.4988 2.34344 17.9133 2.12785 18.4004C2.12785 18.4004 2.00715 18.6934 1.77917 19.3147C1.55119 19.936 1.45731 20.2334 1.45284 20.2511C1.28503 20.833 1.31644 21.4537 1.54215 22.0159C1.76786 22.5781 2.17511 23.0501 2.70005 23.3578L4.53286 24.3963C4.44792 24.8135 4.3764 25.2306 4.30934 25.6523L2.23514 26.0073C1.63527 26.1218 1.09054 26.4304 0.68612 26.8849C0.281705 27.3394 0.0404184 27.9142 0 28.5193C0 28.5193 0 28.8344 0 29.5001C0 30.1658 0 30.4809 0 30.4898C0.0415755 31.0936 0.283457 31.6667 0.687843 32.1195C1.09223 32.5724 1.63634 32.8795 2.23514 32.9929L4.31381 33.3479C4.38087 33.7651 4.45239 34.1823 4.53733 34.5994L2.71793 35.6557C2.1941 35.9645 1.78778 36.4366 1.56221 36.9985C1.33665 37.5603 1.30448 38.1805 1.47072 38.7624C1.47072 38.7624 1.5646 39.0641 1.79258 39.6855C2.02056 40.3068 2.14126 40.5731 2.1502 40.613C2.3666 41.0955 2.71889 41.5055 3.16464 41.7937C3.61038 42.0819 4.13056 42.236 4.66249 42.2374C4.81241 42.2373 4.96201 42.224 5.10952 42.1974L8.23871 41.6338C8.44335 41.6095 8.64097 41.5446 8.81985 41.443L8.98078 41.7137C8.80748 41.8191 8.65581 41.9562 8.53375 42.1175L6.47743 44.523C6.09072 44.9962 5.8723 45.583 5.85613 46.1921C5.83997 46.8013 6.02695 47.3987 6.38802 47.8915C6.38802 47.8915 6.58024 48.14 7.00939 48.646C7.43853 49.1519 7.65311 49.3827 7.66205 49.396C7.92093 49.662 8.23151 49.8732 8.57498 50.0166C8.91844 50.16 9.28766 50.2327 9.66026 50.2304C10.1309 50.2309 10.5934 50.1084 11.0013 49.8753L12.8252 48.819C13.1471 49.0986 13.4734 49.3694 13.8087 49.6357L13.08 51.5973C12.8742 52.172 12.8676 52.7984 13.0611 53.3773C13.2546 53.9561 13.6373 54.4543 14.1484 54.7927C14.1484 54.7927 14.4166 54.9658 14.9933 55.2942C15.57 55.6226 15.8561 55.7691 15.865 55.778C16.2357 55.9611 16.6445 56.0554 17.0586 56.0531C17.4589 56.0556 17.8551 55.9716 18.2194 55.8068C18.5838 55.642 18.9077 55.4005 19.1685 55.0989L20.5096 53.4879C20.9075 53.6432 21.3098 53.7897 21.7166 53.9317V56.022C21.7236 56.631 21.9342 57.2204 22.3153 57.6976C22.6964 58.1748 23.2265 58.5127 23.8221 58.6583C23.8221 58.6583 24.135 58.7293 24.7877 58.8447C25.4403 58.9601 25.7622 58.9956 25.7756 59C25.8739 59 25.9768 59 26.0751 59C26.6342 58.9971 27.1792 58.8258 27.6381 58.5088C28.097 58.1919 28.4483 57.7441 28.6455 57.2248L29.3563 55.2498H30.6393L31.35 57.2248C31.5478 57.7438 31.8992 58.1912 32.358 58.508C32.8168 58.8249 33.3615 58.9964 33.9204 59C34.0251 58.9989 34.1296 58.9915 34.2333 58.9778C34.2333 58.9778 34.5552 58.9379 35.2079 58.8269C35.8605 58.716 36.1734 58.6405 36.1958 58.6361C36.7869 58.4888 37.3121 58.1509 37.6891 57.6754C38.0661 57.2 38.2735 56.6138 38.2789 56.0087V53.914C38.6857 53.7808 39.0881 53.6344 39.4859 53.4701L40.827 55.0812C41.087 55.3826 41.41 55.6242 41.7737 55.789C42.1373 55.9538 42.5328 56.0378 42.9325 56.0354C43.3498 56.0363 43.7615 55.9406 44.135 55.7558C44.135 55.7558 44.4256 55.6093 45.0067 55.2764C45.5878 54.9436 45.8471 54.7749 45.8561 54.7661C46.3631 54.4285 46.7428 53.9331 46.9354 53.3579C47.128 52.7827 47.1226 52.1602 46.92 51.5884L46.1869 49.649C46.5177 49.3827 46.844 49.112 47.1658 48.8324L48.9897 49.8886C49.3976 50.1217 49.8601 50.2442 50.3308 50.2437C50.7052 50.2457 51.0761 50.1716 51.4206 50.0258C51.765 49.88 52.0757 49.6656 52.3335 49.396C52.3335 49.396 52.5525 49.1652 52.9817 48.6593C53.4108 48.1533 53.5986 47.9048 53.6165 47.8826C53.9729 47.392 54.1556 46.7981 54.1362 46.1935C54.1168 45.589 53.8963 45.0078 53.5092 44.5407L51.4439 42.1397C51.3215 41.9786 51.1699 41.8417 50.9969 41.7359L51.1623 41.4651C51.3411 41.5668 51.5388 41.6317 51.7434 41.656L54.8726 42.2196C55.0202 42.2455 55.1697 42.2589 55.3196 42.2596C55.8548 42.2572 56.3778 42.1009 56.8253 41.8094C57.2728 41.518 57.6256 41.1039 57.8409 40.6175C57.8409 40.6175 57.966 40.3246 58.194 39.7299C58.422 39.1352 58.5159 38.8023 58.5203 38.789C58.6854 38.2066 58.6522 37.5864 58.4259 37.0246C58.1995 36.4629 57.7928 35.9911 57.2687 35.6823L55.4671 34.6172C55.5476 34.2 55.6236 33.7828 55.6862 33.3612L57.7649 33.0106C58.3651 32.8936 58.9097 32.5831 59.3138 32.1272C59.718 31.6714 59.9592 31.0957 60 30.4898C60 30.4898 60 30.1747 60 29.5178C60 28.861 60 28.5415 60 28.5237" fill="white"/>
<path d="M227.264 47.1692V44.3939H240.431C240.634 45.3388 240.909 46.2666 241.254 47.1692H227.264ZM227.264 33.8485H241.258C241.089 34.2933 240.938 34.7381 240.814 35.1828H227.264V33.8485ZM187.064 46.1463C186.239 46.7685 185.243 47.1224 184.211 47.1604V33.8441H190.139C190.041 37.5001 189.792 43.8024 187.064 46.1463ZM126.136 40.1064C125.59 44.1449 124.403 45.8572 123.746 46.5199C122.919 47.3516 121.524 47.7697 119.59 47.7697H118.919L115.938 40.9559C117.259 41.7969 118.793 42.2442 120.359 42.2457C122.516 42.229 124.587 41.3982 126.159 39.9196C126.159 39.9818 126.159 40.0397 126.136 40.1019M258.496 22C255.168 22.0022 251.902 22.9032 249.042 24.6081C246.183 26.313 243.836 28.7586 242.249 31.687V23.9703C242.249 23.5598 242.086 23.1661 241.796 22.8759C241.506 22.5856 241.113 22.4225 240.703 22.4225H174.332C174.078 22.4229 173.828 22.4855 173.604 22.6049C173.38 22.7243 173.189 22.8969 173.047 23.1075L163.626 37.0642C163.626 37.0998 163.626 36.7395 163.626 36.7395V23.9703C163.626 23.5598 163.463 23.1661 163.173 22.8759C162.883 22.5856 162.49 22.4225 162.079 22.4225H122.39C122.187 22.4225 121.986 22.4626 121.799 22.5404C121.612 22.6183 121.441 22.7323 121.298 22.8761C121.155 23.0199 121.041 23.1906 120.964 23.3783C120.887 23.5661 120.848 23.7673 120.848 23.9703V31.8782C120.684 31.8782 120.528 31.8515 120.359 31.8515C116.742 31.8515 114.418 34.1643 113.476 35.3341L112.587 33.346L112.533 33.2348L108.232 23.3654C108.111 23.0895 107.913 22.8548 107.661 22.6897C107.409 22.5247 107.115 22.4365 106.814 22.4359H102.583C102.282 22.4365 101.988 22.5247 101.736 22.6897C101.485 22.8548 101.286 23.0895 101.166 23.3654L92.1177 44.0781H86.5449C86.2859 44.0784 86.0311 44.1438 85.8038 44.2683C85.5766 44.3928 85.3843 44.5724 85.2445 44.7907C85.1047 45.0089 85.0219 45.2589 85.0038 45.5175C84.9857 45.7761 85.0327 46.0351 85.1406 46.2708L88.2203 52.9823L86.7227 56.4204C86.6191 56.6555 86.5758 56.9127 86.5968 57.1688C86.6177 57.4249 86.7022 57.6717 86.8425 57.8868C86.9829 58.102 87.1747 58.2786 87.4006 58.4008C87.6264 58.5229 87.8792 58.5867 88.1359 58.5864H97.2594C97.5593 58.5864 97.8528 58.4989 98.1038 58.3346C98.3548 58.1703 98.5525 57.9363 98.6726 57.6612L100.006 54.5835H109.449L110.782 57.6612C110.904 57.936 111.103 58.1695 111.355 58.3337C111.606 58.4978 111.9 58.5856 112.2 58.5864H120.941C122.648 58.5864 128.496 58.2528 132.314 53.943C134.887 51.0343 137.42 47.0669 137.829 33.8396H140.446V57.0341C140.446 57.4446 140.609 57.8383 140.899 58.1286C141.189 58.4188 141.582 58.5819 141.993 58.5819H161.733C161.982 58.5812 162.226 58.5206 162.447 58.4053C162.667 58.2899 162.857 58.1232 162.999 57.9192L172.776 43.8157V57.0341C172.776 57.4446 172.939 57.8383 173.229 58.1286C173.519 58.4188 173.913 58.5819 174.323 58.5819H182.988C186.153 58.5419 190.814 58.1105 194.756 54.8592C197.676 52.4486 201.213 46.8535 201.591 33.8574H204.106V57.0519C204.106 57.4624 204.269 57.8561 204.559 58.1464C204.849 58.4366 205.243 58.5997 205.653 58.5997H213.976C214.387 58.5997 214.78 58.4366 215.07 58.1464C215.36 57.8561 215.523 57.4624 215.523 57.0519V54.0542H216.074C216.723 56.9541 219.06 58.5864 222.713 58.5864H241.649C242.059 58.5864 242.453 58.4233 242.743 58.133C243.033 57.8428 243.196 57.4491 243.196 57.0386V50.8475C244.979 53.4937 247.417 55.633 250.272 57.0571C253.126 58.4813 256.301 59.1418 259.486 58.9746C262.671 58.8074 265.759 57.818 268.449 56.1027C271.139 54.3875 273.339 52.0047 274.837 49.1861C276.334 46.3676 277.077 43.2092 276.994 40.0181C276.91 36.827 276.003 33.7118 274.36 30.9755C272.718 28.2392 270.395 25.975 267.619 24.4029C264.843 22.8309 261.708 22.0046 258.519 22.0045" fill="white"/>
<path d="M77.7561 4.09313H74.2439V14H72V2H80V14H77.7561V4.09313Z" fill="#1C1F1C"/>
<path d="M84.6884 9.45455H87.2412L86.0352 5.44124H85.8812L84.6884 9.45455ZM87.7033 11.3392H84.147L83.3283 14H81L84.8424 2H87.1752L91 14H88.5484L87.7033 11.3392Z" fill="#1C1F1C"/>
<path d="M96.3802 4.00146C96.1636 4.00146 95.9555 4.00146 95.7602 4.02768C95.5648 4.0539 95.4035 4.06264 95.2846 4.08449V7.92134C95.349 7.93677 95.4142 7.94844 95.4799 7.9563L95.7602 7.97815C95.8579 7.97815 95.9555 7.97815 96.0489 7.97815H96.2528C96.5477 7.97891 96.842 7.95111 97.1318 7.89512C97.4074 7.8428 97.6711 7.73754 97.9089 7.58485C98.1408 7.42366 98.3304 7.206 98.4609 6.9512C98.6088 6.61704 98.6787 6.25185 98.6647 5.88492C98.6773 5.56544 98.61 5.24798 98.4694 4.96286C98.3445 4.72922 98.1668 4.52989 97.9513 4.38165C97.7301 4.2306 97.4818 4.1266 97.221 4.07575C96.9413 4.0188 96.6568 3.99098 96.3717 3.99272M93.0255 2.28405C93.4841 2.19665 93.9937 2.12673 94.5457 2.07429C95.0977 2.02185 95.6498 2 96.1933 2C96.7623 2.00135 97.3303 2.04958 97.8919 2.14421C98.4414 2.22857 98.9694 2.42307 99.4461 2.71668C99.9122 3.01317 100.299 3.42475 100.571 3.91406C100.88 4.53167 101.027 5.22167 100.996 5.91552C101.013 6.55512 100.884 7.18989 100.618 7.76839C100.381 8.26286 100.038 8.696 99.6159 9.03569C99.1937 9.3705 98.7119 9.61694 98.1976 9.76111C97.6597 9.91424 97.1039 9.9907 96.5458 9.98835H96.2825H95.9046C95.7772 9.98835 95.6455 9.98835 95.5224 9.96213C95.3992 9.93591 95.3058 9.94028 95.2506 9.93154V14H93L93.0255 2.28405Z" fill="#1C1F1C"/>
<path d="M106.41 8.99335H105.244V14H103V2H105.244V6.90466H106.41L109.035 2H111.589L108.357 7.79601L112 14H109.23L106.41 8.99335Z" fill="#1C1F1C"/>
<path d="M120.483 2V5.83149C120.439 6.37593 120.586 6.91883 120.902 7.37473C121.078 7.5556 121.296 7.6953 121.538 7.78298C121.78 7.87066 122.04 7.90395 122.298 7.88027C122.733 7.8832 123.166 7.83403 123.588 7.73393C123.94 7.65746 124.269 7.50583 124.551 7.29047V2H127V14H124.533V9.1663C124.137 9.37049 123.716 9.52833 123.28 9.63636C122.674 9.79413 122.047 9.86879 121.418 9.85809C120.954 9.86051 120.491 9.79928 120.045 9.67628C119.633 9.56075 119.256 9.3538 118.945 9.07242C118.633 8.79104 118.396 8.44326 118.253 8.05765C118.073 7.57247 117.988 7.05992 118.001 6.54545V2H120.483Z" fill="#1C1F1C"/>
<path d="M133.02 8.24289H133.852L135.564 2H138L135.233 10.7743C135.088 11.2336 134.913 11.6834 134.71 12.1211C134.538 12.4959 134.304 12.8399 134.017 13.1389C133.742 13.4184 133.408 13.6355 133.038 13.7751C132.596 13.9347 132.127 14.0106 131.657 13.9988C131.356 14.0009 131.057 13.9715 130.763 13.9111C130.458 13.8372 130.167 13.7173 129.9 13.5557L130.508 11.6736C130.678 11.7636 130.86 11.8315 131.049 11.8754C131.216 11.9101 131.387 11.9263 131.558 11.9237C131.777 11.9306 131.996 11.8964 132.202 11.8228C132.366 11.7615 132.51 11.6567 132.618 11.5201C132.739 11.3656 132.835 11.194 132.904 11.0112C132.992 10.7825 133.068 10.5497 133.132 10.3136H131.384L128 2.00439H130.539L133.02 8.24289Z" fill="#1C1F1C"/>
<path d="M144.428 11.6973V4.05819H142.421C142.401 5.05189 142.355 5.94883 142.285 6.749C142.219 7.54627 142.136 8.26122 142.039 8.89384C141.942 9.52646 141.823 10.0681 141.704 10.5317C141.586 10.9954 141.454 11.3983 141.335 11.6973H144.428ZM148 16H145.963V13.7382H140.041V16H138V11.6973H139.007C139.16 11.3867 139.297 11.0685 139.417 10.744C139.621 10.1805 139.776 9.60059 139.879 9.01084C140.045 8.12532 140.161 7.23131 140.226 6.33302C140.325 5.05435 140.353 3.77131 140.31 2.48963V2H146.759V11.6973H147.991L148 16Z" fill="#1C1F1C"/>
<path d="M149 2H156.911V4.09313H151.363V6.88692H156.478V8.98005H151.363V11.9113H157V14H149V2Z" fill="#1C1F1C"/>
<path d="M166.061 9.89661H168V13.1937C167.563 13.4711 167.076 13.672 166.563 13.7866C165.979 13.9303 165.378 14.002 164.775 13.9999C164.022 14.0044 163.274 13.8964 162.558 13.68C161.871 13.4707 161.246 13.1143 160.733 12.6392C160.169 12.1133 159.735 11.4786 159.46 10.7795C159.126 9.88671 158.972 8.94388 159.004 7.99852C158.973 7.02746 159.154 6.06065 159.538 5.15781C159.85 4.45755 160.316 3.82673 160.906 3.30664C161.454 2.85219 162.097 2.51066 162.795 2.30429C163.456 2.10569 164.145 2.00354 164.839 2.00145C165.441 1.99019 166.043 2.04458 166.631 2.16353C167.046 2.2509 167.449 2.37812 167.836 2.54315V5.95543H165.897V4.07441C165.524 4.01905 165.148 3.99195 164.77 3.99336C164.33 3.99094 163.894 4.07221 163.488 4.23223C163.088 4.3978 162.735 4.64912 162.457 4.96587C162.143 5.33498 161.909 5.75811 161.769 6.21135C161.593 6.78674 161.51 7.38328 161.522 7.98146C161.516 8.5308 161.594 9.07813 161.755 9.60656C161.888 10.0688 162.114 10.5031 162.421 10.8862C162.709 11.2303 163.077 11.5089 163.498 11.7008C163.951 11.8991 164.447 11.9983 164.948 11.9909C165.326 11.991 165.703 11.9581 166.075 11.8928L166.061 9.89661Z" fill="#1C1F1C"/>
<path d="M102.678 45.6198L105.202 39.9163L107.736 45.6198H102.678ZM122.954 24.0089V26.7829H128.592V29.5525H122.954V32.3221H128.583C128.583 33.5471 128.583 35.7442 128.583 36.0061C128.556 37.4488 128.451 38.889 128.266 40.3202C127.686 44.5767 126.406 46.6273 125.429 47.5993C124.297 48.7311 122.526 49.3037 120.166 49.3037H118.476L111.728 33.9732L107.343 24H103.097L93.6012 45.6109H87L90.3809 52.9344L88.5968 57H97.7536L99.5154 53.0054H110.996L112.758 57H121.531C124.533 57 128.935 56.1123 131.79 52.89C134.287 50.0804 136.723 46.2323 136.973 32.3088H142.664V56.9956H151V24.0089H122.954Z" fill="#1C1F1C"/>
<path d="M214 56.9867V24H186.219V26.7729H191.846V29.5414H186.219V32.3099H191.846C191.846 32.5672 191.81 33.5034 191.81 33.5167C191.704 37.594 191.531 44.422 188.2 47.2925C186.716 48.5703 184.656 48.7212 183.238 48.7212H182.795V24H174.502L162.28 42.115V39.5106H159.529V36.7377H162.293V35.0784H159.529V32.3099H162.293V24H154V32.3099H156.782V35.0784H154.018V36.7377H156.782V39.5106H154.018V56.9867H161.97L174.502 38.8762V56.9867H180.589H183.123C186.038 56.9468 190.326 56.5652 193.888 53.6237C196.581 51.4054 199.855 46.0813 200.156 33.4058L200.196 32.3232H205.689V57L214 56.9867Z" fill="#1C1F1C"/>
<path d="M225.251 48.6956V42.8413H238.46V36.7428H225.251V32.3044H240.093V24H217C217 24 217 51.2966 217 52.2597C217 55.6196 219.069 57 222.239 57H241V48.6956H225.251Z" fill="#1C1F1C"/>
<path d="M212 27H200V30H212V27Z" fill="#FFD900"/>
<path d="M198 27H193V30H198V27Z" fill="#E53324"/>
<path d="M210 34.0036C209.999 34.2013 209.94 34.3943 209.83 34.5582C209.719 34.7222 209.563 34.8498 209.38 34.9249C209.197 35 208.996 35.0193 208.803 34.9803C208.609 34.9413 208.431 34.8458 208.292 34.7058C208.152 34.5658 208.057 34.3876 208.019 34.1937C207.981 33.9999 208.001 33.799 208.076 33.6165C208.152 33.434 208.28 33.278 208.445 33.1683C208.609 33.0586 208.802 33 209 33C209.132 33 209.262 33.026 209.384 33.0765C209.505 33.127 209.615 33.2009 209.708 33.2942C209.801 33.3874 209.875 33.4981 209.925 33.6199C209.975 33.7416 210 33.872 210 34.0036Z" fill="white"/>
<path d="M210 39C210 39.1978 209.941 39.3911 209.831 39.5556C209.722 39.72 209.565 39.8482 209.383 39.9239C209.2 39.9996 208.999 40.0194 208.805 39.9808C208.611 39.9422 208.433 39.847 208.293 39.7071C208.153 39.5673 208.058 39.3891 208.019 39.1951C207.981 39.0011 208 38.8 208.076 38.6173C208.152 38.4346 208.28 38.2784 208.444 38.1685C208.609 38.0586 208.802 38 209 38C209.265 38 209.52 38.1054 209.707 38.2929C209.895 38.4804 210 38.7348 210 39Z" fill="white"/>
<path d="M212 45H207V50H212V45Z" fill="#FFD900"/>
<path d="M212 51H207V56H212V51Z" fill="#E53324"/>
<path d="M148 32H145V55H148V32Z" fill="#FFD900"/>
<path d="M135 27H130V33H135V27Z" fill="#FFD900"/>
<path d="M72 24V57H80.2105V32.3133H95V24H72Z" fill="#1C1F1C"/>
<path d="M93 29.8244H77.7919V41H75V27H93V29.8244Z" fill="#FFD900"/>
<path d="M77 46C77 46.1978 76.9413 46.3911 76.8315 46.5556C76.7216 46.72 76.5654 46.8482 76.3827 46.9239C76.2 46.9996 75.9989 47.0194 75.8049 46.9808C75.6109 46.9422 75.4327 46.847 75.2929 46.7071C75.153 46.5673 75.0578 46.3891 75.0192 46.1951C74.9806 46.0011 75.0004 45.8 75.0761 45.6173C75.1518 45.4346 75.28 45.2784 75.4444 45.1685C75.6089 45.0586 75.8022 45 76 45C76.1313 45 76.2614 45.0259 76.3827 45.0761C76.504 45.1264 76.6143 45.2 76.7071 45.2929C76.8 45.3858 76.8736 45.496 76.9239 45.6173C76.9741 45.7386 77 45.8687 77 46Z" fill="white"/>
<path d="M77 51C77 51.1978 76.9413 51.3911 76.8315 51.5556C76.7216 51.72 76.5654 51.8482 76.3827 51.9239C76.2 51.9996 75.9989 52.0194 75.8049 51.9808C75.6109 51.9422 75.4327 51.847 75.2929 51.7071C75.153 51.5673 75.0578 51.3891 75.0192 51.1951C74.9806 51.0011 75.0004 50.8 75.0761 50.6173C75.1518 50.4346 75.28 50.2784 75.4444 50.1685C75.6089 50.0587 75.8022 50 76 50C76.2649 50.001 76.5187 50.1066 76.706 50.294C76.8934 50.4813 76.999 50.7351 77 51Z" fill="white"/>
<path d="M157 41H155V52L157 49.4904V41Z" fill="#FFD900"/>
<path d="M161 41H159V47L161 44.4932V41Z" fill="#FFD900"/>
<path d="M197 32.4454H194.259C194.109 37.5548 194.197 44.9506 189.979 48.8513C188.159 50.5356 185.44 51.1551 182.928 51.1551H179.75V27H177V54H180.57H182.558C185.462 53.9258 189.68 53.1623 192.209 50.6534C196.59 46.2901 196.837 38.5234 196.991 32.4628" fill="#FFD900"/>
<path d="M159 56H161.068L175 35.9896V33L159 56Z" fill="#FFD900"/>
<path d="M179 53C179 53.1978 178.941 53.3911 178.831 53.5556C178.722 53.72 178.565 53.8482 178.383 53.9239C178.2 53.9996 177.999 54.0194 177.805 53.9808C177.611 53.9422 177.433 53.847 177.293 53.7071C177.153 53.5673 177.058 53.3891 177.019 53.1951C176.981 53.0011 177 52.8 177.076 52.6173C177.152 52.4346 177.28 52.2784 177.444 52.1685C177.609 52.0587 177.802 52 178 52C178.265 52 178.52 52.1054 178.707 52.2929C178.895 52.4804 179 52.7348 179 53Z" fill="#1C1F1C"/>
<path d="M183 53C183 53.1978 182.941 53.3911 182.831 53.5556C182.722 53.72 182.565 53.8482 182.383 53.9239C182.2 53.9996 181.999 54.0194 181.805 53.9808C181.611 53.9422 181.433 53.847 181.293 53.7071C181.153 53.5673 181.058 53.3891 181.019 53.1951C180.981 53.0011 181 52.8 181.076 52.6173C181.152 52.4346 181.28 52.2784 181.444 52.1685C181.609 52.0587 181.802 52 182 52C182.265 52 182.52 52.1054 182.707 52.2929C182.895 52.4804 183 52.7348 183 53Z" fill="#1C1F1C"/>
<path d="M188 51.9964C188.001 52.1941 187.943 52.3877 187.833 52.5525C187.724 52.7174 187.568 52.8461 187.386 52.9225C187.204 52.9988 187.003 53.0194 186.808 52.9815C186.614 52.9436 186.436 52.849 186.295 52.7097C186.155 52.5703 186.059 52.3925 186.02 52.1987C185.981 52.0048 186 51.8037 186.075 51.6207C186.15 51.4377 186.277 51.281 186.441 51.1706C186.605 51.0601 186.799 51.0007 186.996 51C187.261 51 187.515 51.1047 187.703 51.2914C187.891 51.478 187.998 51.7314 188 51.9964Z" fill="#1C1F1C"/>
<path d="M130.834 41.0799C129.885 46.2329 128.548 48.9271 125.37 50.7058C123.236 51.9047 119.975 51.9788 117.645 51.9701L109.777 34H108L117.188 55H119.822C122.748 55 126.863 54.564 129.837 51.3423C131.579 49.459 133.073 47.022 134 41.093L130.834 41.0799Z" fill="#FFD900"/>
<path d="M109 33L106.547 27H103.453L101 33H109Z" fill="#FFD900"/>
<path d="M96 48C95.8022 48 95.6089 48.0586 95.4444 48.1685C95.28 48.2784 95.1518 48.4346 95.0761 48.6173C95.0004 48.8 94.9806 49.0011 95.0192 49.1951C95.0578 49.3891 95.153 49.5673 95.2929 49.7071C95.4327 49.847 95.6109 49.9422 95.8049 49.9808C95.9989 50.0194 96.2 49.9996 96.3827 49.9239C96.5654 49.8482 96.7216 49.72 96.8315 49.5556C96.9414 49.3911 97 49.1978 97 49C97 48.7348 96.8946 48.4804 96.7071 48.2929C96.5196 48.1054 96.2652 48 96 48Z" fill="white"/>
<path d="M101 48C100.802 48 100.609 48.0587 100.444 48.1685C100.28 48.2784 100.152 48.4346 100.076 48.6173C100 48.8 99.9806 49.0011 100.019 49.1951C100.058 49.3891 100.153 49.5673 100.293 49.7071C100.433 49.847 100.611 49.9422 100.805 49.9808C100.999 50.0194 101.2 49.9996 101.383 49.9239C101.565 49.8482 101.722 49.72 101.831 49.5556C101.941 49.3911 102 49.1978 102 49C102 48.8685 101.975 48.7383 101.925 48.6168C101.875 48.4952 101.801 48.3848 101.708 48.2918C101.615 48.1989 101.505 48.1252 101.383 48.0751C101.262 48.0251 101.131 47.9995 101 48Z" fill="white"/>
<path d="M106 48C105.802 48 105.609 48.0586 105.444 48.1685C105.28 48.2784 105.152 48.4346 105.076 48.6173C105 48.8 104.981 49.0011 105.019 49.1951C105.058 49.3891 105.153 49.5673 105.293 49.7071C105.433 49.847 105.611 49.9422 105.805 49.9808C105.999 50.0194 106.2 49.9996 106.383 49.9239C106.565 49.8482 106.722 49.72 106.831 49.5556C106.941 49.3911 107 49.1978 107 49C107 48.7348 106.895 48.4804 106.707 48.2929C106.52 48.1054 106.265 48 106 48Z" fill="white"/>
<path d="M97.2523 41L95 46H100.743L103 41H97.2523Z" fill="#FFD900"/>
<path d="M103.744 39L106 34H100.251L98 39H103.744Z" fill="#E53324"/>
<path d="M134.987 34H130.205C130.205 35.0393 130.205 36.0208 130.205 36.1941C130.166 37.4162 130.132 38.5998 130 40H134.663C134.821 38.2342 134.932 36.2518 135 34" fill="#E53324"/>
<path d="M224 32H221V48H224V32Z" fill="#FFD900"/>
<path d="M238 40H226V42H238V40Z" fill="#FFD900"/>
<path d="M227 52C226.802 52 226.609 52.0586 226.444 52.1685C226.28 52.2784 226.152 52.4346 226.076 52.6173C226 52.8 225.981 53.0011 226.019 53.1951C226.058 53.3891 226.153 53.5673 226.293 53.7071C226.433 53.847 226.611 53.9422 226.805 53.9808C226.999 54.0194 227.2 53.9996 227.383 53.9239C227.565 53.8482 227.722 53.72 227.831 53.5556C227.941 53.3911 228 53.1978 228 53C228 52.7348 227.895 52.4804 227.707 52.2929C227.52 52.1054 227.265 52 227 52Z" fill="white"/>
<path d="M232 52C231.802 52 231.609 52.0587 231.444 52.1685C231.28 52.2784 231.152 52.4346 231.076 52.6173C231 52.8 230.981 53.0011 231.019 53.1951C231.058 53.3891 231.153 53.5673 231.293 53.7071C231.433 53.847 231.611 53.9422 231.805 53.9808C231.999 54.0194 232.2 53.9996 232.383 53.9239C232.565 53.8482 232.722 53.72 232.831 53.5556C232.941 53.3911 233 53.1978 233 53C233 52.8685 232.975 52.7383 232.925 52.6168C232.875 52.4952 232.801 52.3848 232.708 52.2918C232.615 52.1989 232.505 52.1252 232.383 52.0751C232.262 52.0251 232.131 51.9995 232 52Z" fill="white"/>
<path d="M237 52C236.802 52 236.609 52.0587 236.444 52.1685C236.28 52.2784 236.152 52.4346 236.076 52.6173C236 52.8 235.981 53.0011 236.019 53.1951C236.058 53.3891 236.153 53.5673 236.293 53.7071C236.433 53.847 236.611 53.9422 236.805 53.9808C236.999 54.0194 237.2 53.9996 237.383 53.9239C237.565 53.8482 237.722 53.72 237.831 53.5556C237.941 53.3911 238 53.1978 238 53C238 52.8685 237.975 52.7383 237.925 52.6168C237.875 52.4952 237.801 52.3848 237.708 52.2918C237.615 52.1989 237.505 52.1252 237.383 52.0751C237.262 52.0251 237.131 51.9995 237 52Z" fill="white"/>
<path d="M239 27H231V30H239V27Z" fill="#E53324"/>
<path d="M229 27H221V30H229V27Z" fill="#FFD900"/>
<path d="M139.996 27C140.194 26.9993 140.388 27.0574 140.553 27.167C140.718 27.2766 140.847 27.4328 140.923 27.6156C140.999 27.7985 141.019 27.9999 140.981 28.1942C140.942 28.3885 140.847 28.567 140.707 28.7071C140.567 28.8472 140.389 28.9425 140.194 28.981C140 29.0194 139.799 28.9993 139.616 28.9232C139.433 28.847 139.277 28.7183 139.167 28.5533C139.057 28.3883 138.999 28.1945 139 27.9964C139 27.7321 139.105 27.4787 139.292 27.2918C139.479 27.105 139.732 27 139.996 27Z" fill="white"/>
<path d="M145.996 27C146.194 26.9993 146.388 27.0574 146.553 27.167C146.718 27.2766 146.847 27.4328 146.923 27.6156C146.999 27.7985 147.019 27.9999 146.981 28.1942C146.942 28.3885 146.847 28.567 146.707 28.7071C146.567 28.8472 146.389 28.9425 146.194 28.981C146 29.0194 145.799 28.9993 145.616 28.9232C145.433 28.847 145.277 28.7183 145.167 28.5533C145.057 28.3883 144.999 28.1945 145 27.9964C145.001 27.7324 145.106 27.4795 145.293 27.2929C145.48 27.1063 145.732 27.001 145.996 27Z" fill="white"/>
<path d="M120.013 38.8234C117.657 38.8234 116.034 37.1778 115.468 36.5043C116.034 35.8307 117.657 34.1809 120.013 34.1809C122.369 34.1809 123.991 35.8307 124.554 36.5043C123.991 37.1778 122.369 38.8234 120.013 38.8234ZM125.785 36.176C125.7 36.0481 123.639 33 120 33C116.361 33 114.3 36.0481 114.215 36.176L114 36.5L114.215 36.824C114.3 36.9561 116.326 40 120 40C123.674 40 125.7 36.9561 125.785 36.824L126 36.5L125.785 36.176Z" fill="#1C1F1C"/>
<path d="M121.545 35.893C121.631 35.8927 121.716 35.9104 121.794 35.9449C121.873 35.9793 121.943 36.0297 122 36.0927C121.9 35.7441 121.674 35.4429 121.365 35.2446C121.056 35.0464 120.685 34.9645 120.319 35.0142C119.954 35.0638 119.619 35.2416 119.376 35.5147C119.134 35.7878 119 36.1378 119 36.5C119 36.8622 119.134 37.2122 119.376 37.4853C119.619 37.7584 119.954 37.9362 120.319 37.9858C120.685 38.0355 121.056 37.9536 121.365 37.7554C121.674 37.5572 121.9 37.2559 122 36.9073C121.931 36.9824 121.843 37.0393 121.746 37.0728C121.649 37.1063 121.544 37.1154 121.442 37.0992C121.341 37.0831 121.244 37.0421 121.163 36.9802C121.081 36.9182 121.017 36.8372 120.975 36.7445C120.933 36.6519 120.916 36.5505 120.925 36.4495C120.933 36.3486 120.967 36.2514 121.024 36.1668C121.081 36.0821 121.158 36.0127 121.249 35.9649C121.34 35.9171 121.442 35.8923 121.545 35.893Z" fill="#1C1F1C"/>
<path d="M270.625 42.2264C270.383 42.2264 270.147 42.1547 269.946 42.0205C269.745 41.8862 269.589 41.6953 269.496 41.4721C269.404 41.2488 269.38 41.0031 269.427 40.7661C269.474 40.529 269.59 40.3113 269.761 40.1404C269.932 39.9695 270.15 39.8532 270.387 39.806C270.624 39.7589 270.869 39.7831 271.093 39.8755C271.316 39.968 271.507 40.1246 271.641 40.3256C271.775 40.5265 271.847 40.7628 271.847 41.0045C271.848 41.1651 271.816 41.3242 271.755 41.4728C271.694 41.6213 271.604 41.7562 271.49 41.8698C271.377 41.9834 271.242 42.0734 271.093 42.1346C270.945 42.1958 270.786 42.227 270.625 42.2264ZM269.992 47.9302C269.871 48.139 269.69 48.3072 269.473 48.4135C269.256 48.5198 269.013 48.5595 268.773 48.5275C268.534 48.4955 268.31 48.3933 268.128 48.2337C267.947 48.0742 267.817 47.8645 267.755 47.6312C267.692 47.3978 267.701 47.1512 267.779 46.9226C267.856 46.694 268 46.4935 268.192 46.3466C268.384 46.1996 268.614 46.1128 268.855 46.097C269.096 46.0812 269.337 46.1372 269.546 46.2579C269.826 46.421 270.031 46.6885 270.114 47.0019C270.198 47.3154 270.154 47.6492 269.992 47.9302ZM258 49.2369C255.996 49.2414 254.06 48.5147 252.554 47.1931C251.048 45.8714 250.076 44.0458 249.821 42.0585C249.565 40.0713 250.043 38.0591 251.166 36.3994C252.288 34.7397 253.978 33.5467 255.917 33.0441V35.1891C254.529 35.6799 253.358 36.6458 252.613 37.9162C251.867 39.1865 251.595 40.6795 251.844 42.1312C252.093 43.5828 252.847 44.8997 253.973 45.8491C255.099 46.7985 256.525 47.3192 257.998 47.3192C259.471 47.3192 260.896 46.7985 262.022 45.8491C263.148 44.8997 263.902 43.5828 264.151 42.1312C264.4 40.6795 264.128 39.1865 263.383 37.9162C262.637 36.6458 261.467 35.6799 260.078 35.1891V33.0441C262.017 33.5466 263.707 34.7393 264.829 36.3985C265.952 38.0577 266.43 40.0694 266.175 42.0563C265.92 44.0432 264.949 45.8689 263.444 47.1908C261.939 48.5128 260.003 49.2403 258 49.2369ZM251.074 29.0126C251.283 28.8914 251.524 28.835 251.765 28.8505C252.006 28.866 252.238 28.9528 252.43 29.0998C252.622 29.2468 252.766 29.4474 252.844 29.6763C252.921 29.9052 252.93 30.152 252.867 30.3856C252.805 30.6191 252.674 30.8289 252.493 30.9884C252.311 31.1478 252.086 31.2498 251.846 31.2814C251.607 31.313 251.363 31.2727 251.146 31.1658C250.929 31.0588 250.749 30.8899 250.628 30.6805C250.548 30.5418 250.495 30.3885 250.474 30.2295C250.453 30.0705 250.463 29.9088 250.504 29.7538C250.546 29.5988 250.618 29.4535 250.715 29.3263C250.813 29.1991 250.935 29.0925 251.074 29.0126ZM257.157 34.8903V32.8166C257.717 32.7572 258.283 32.7572 258.843 32.8166V34.8903C258.285 34.8013 257.716 34.8013 257.157 34.8903ZM258 36.0588C259.13 36.0581 260.227 36.4418 261.11 37.1469C261.994 37.8519 262.611 38.8364 262.861 39.9386L262.995 41.1695C262.995 42.4942 262.469 43.7646 261.532 44.7013C260.595 45.638 259.325 46.1642 258 46.1642C256.675 46.1642 255.405 45.638 254.468 44.7013C253.531 43.7646 253.005 42.4942 253.005 41.1695L253.135 39.9386C253.386 38.8364 254.005 37.8523 254.888 37.1474C255.772 36.4425 256.869 36.0587 258 36.0588ZM258 27.1396C258.242 27.1387 258.479 27.2096 258.68 27.3433C258.882 27.477 259.039 27.6676 259.132 27.8908C259.225 28.114 259.25 28.3598 259.203 28.5971C259.157 28.8344 259.041 29.0526 258.87 29.2239C258.699 29.3953 258.482 29.5121 258.244 29.5596C258.007 29.6071 257.761 29.5832 257.538 29.4908C257.314 29.3985 257.123 29.2419 256.989 29.0408C256.854 28.8398 256.783 28.6034 256.783 28.3615C256.784 28.0385 256.912 27.7291 257.14 27.5003C257.368 27.2715 257.677 27.1419 258 27.1396ZM263.258 29.4407C263.334 29.2946 263.439 29.1654 263.567 29.0609C263.694 28.9565 263.842 28.8789 264 28.8329C264.158 28.7869 264.324 28.7734 264.488 28.7933C264.652 28.8131 264.81 28.8659 264.953 28.9484C265.095 29.0309 265.22 29.1415 265.319 29.2734C265.418 29.4053 265.489 29.5559 265.528 29.7161C265.567 29.8762 265.573 30.0427 265.547 30.2053C265.52 30.368 265.46 30.5236 265.372 30.6626C265.295 30.8088 265.19 30.938 265.063 31.0424C264.935 31.1469 264.788 31.2245 264.629 31.2704C264.471 31.3164 264.305 31.3299 264.141 31.3101C263.978 31.2902 263.82 31.2374 263.677 31.1549C263.534 31.0724 263.41 30.9619 263.311 30.8299C263.212 30.698 263.141 30.5474 263.102 30.3873C263.062 30.2271 263.056 30.0607 263.083 29.898C263.11 29.7353 263.169 29.5798 263.258 29.4407ZM268.32 33.6283C268.529 33.5076 268.769 33.4516 269.01 33.4674C269.251 33.4832 269.482 33.5701 269.674 33.717C269.865 33.8639 270.009 34.0644 270.087 34.293C270.165 34.5217 270.173 34.7682 270.111 35.0016C270.049 35.2349 269.919 35.4446 269.737 35.6041C269.556 35.7637 269.331 35.8659 269.092 35.8979C268.853 35.9299 268.609 35.8902 268.392 35.7839C268.175 35.6776 267.995 35.5094 267.874 35.3006C267.712 35.0196 267.668 34.6858 267.751 34.3724C267.835 34.0589 268.039 33.7914 268.32 33.6283ZM258 24C254.638 24 251.351 24.997 248.555 26.865C245.76 28.733 243.581 31.388 242.294 34.4944C241.007 37.6007 240.671 41.0189 241.327 44.3165C241.983 47.6142 243.602 50.6433 245.979 53.0208C248.357 55.3983 251.386 57.0174 254.683 57.6733C257.981 58.3293 261.399 57.9926 264.506 56.7059C267.612 55.4193 270.267 53.2403 272.135 50.4447C274.003 47.6491 275 44.3623 275 41C275 36.4913 273.209 32.1673 270.021 28.9792C266.833 25.7911 262.509 24 258 24Z" fill="#1C1F1C"/>
<path d="M257.816 51.4129C255.662 51.412 253.554 50.7922 251.742 49.6272C249.93 48.4622 248.492 46.8011 247.597 44.8417C246.703 42.8823 246.391 40.7072 246.697 38.5753C247.004 36.4434 247.917 34.4445 249.328 32.8167L247.511 31C245.161 33.6297 243.907 37.0591 244.005 40.5845C244.104 44.1098 245.549 47.4635 248.043 49.9573C250.536 52.4511 253.89 53.8957 257.416 53.9946C260.941 54.0935 264.37 52.8392 267 50.4892L265.166 48.6856C263.126 50.4551 260.516 51.4282 257.816 51.426" fill="#FFD900"/>
<path d="M255.483 43.5838C255.527 43.7056 255.606 43.8107 255.71 43.8851C255.814 43.9595 255.938 43.9996 256.065 44C256.186 43.9991 256.305 43.9624 256.407 43.8943C256.508 43.8261 256.588 43.7295 256.638 43.6159L258.029 40.282L259.327 43.6067C259.376 43.7238 259.458 43.8235 259.562 43.8935C259.666 43.9634 259.788 44.0005 259.913 44C260.038 43.9984 260.16 43.9577 260.263 43.8833C260.365 43.809 260.443 43.7045 260.485 43.5838L261.412 40.9863H263L262.866 39.7195H260.978C260.85 39.72 260.725 39.7606 260.62 39.8358C260.515 39.911 260.435 40.0173 260.391 40.1402L259.877 41.5991L258.62 38.3979C258.574 38.281 258.494 38.1808 258.393 38.1099C258.291 38.0391 258.17 38.0008 258.047 38C257.925 38.0009 257.807 38.0375 257.705 38.1057C257.604 38.1738 257.523 38.2705 257.474 38.3841L256.132 41.654L255.595 40.1448C255.553 40.0218 255.474 39.9154 255.37 39.84C255.265 39.7647 255.141 39.7242 255.013 39.7241H253.13L253 40.9908H254.584L255.483 43.5838Z" fill="#E53324"/>
<path d="M56.9956 28.9479C56.9725 28.6928 56.8696 28.4519 56.7021 28.2603C56.5347 28.0688 56.3113 27.9366 56.0646 27.883L52.9364 27.3572C52.8222 26.2257 52.6303 25.1036 52.3621 23.9992L55.1161 22.3997C55.3305 22.2638 55.4963 22.0618 55.5895 21.8233C55.6827 21.5848 55.6982 21.3223 55.6339 21.0741C55.6339 21.0741 55.5469 20.7958 55.3424 20.2258C55.1379 19.6558 55.0248 19.3819 55.0248 19.3819C54.917 19.1508 54.7395 18.9607 54.5181 18.8391C54.2967 18.7176 54.0429 18.6709 53.7935 18.7058L50.674 19.2847C50.1851 18.2661 49.6253 17.2841 48.999 16.3463L51.0525 13.8852C51.2074 13.6833 51.2948 13.4363 51.3018 13.1804C51.3089 12.9245 51.2352 12.673 51.0917 12.4625C51.0917 12.4625 50.9177 12.2327 50.5348 11.7644C50.1519 11.296 49.9518 11.0839 49.9518 11.0839C49.7731 10.904 49.5421 10.7871 49.2931 10.7505C49.044 10.7139 48.7899 10.7596 48.5683 10.8807L45.836 12.5111C45.0354 11.7244 44.1821 10.9951 43.2821 10.3284L44.3829 7.30168C44.4612 7.05928 44.4612 6.79782 44.3829 6.55541C44.3047 6.31299 44.1522 6.1023 43.9478 5.95404C43.9478 5.95404 43.7042 5.79497 43.1864 5.4901C42.6687 5.18522 42.412 5.04825 42.412 5.04825C42.1833 4.94122 41.9269 4.91136 41.6803 4.96304C41.4336 5.01472 41.2098 5.14523 41.0415 5.33545L39.0141 7.81423C37.9958 7.35092 36.946 6.96257 35.8728 6.65216V3.43108C35.8632 3.17563 35.7737 2.92993 35.6172 2.72969C35.4607 2.52945 35.2455 2.3851 35.0027 2.31762C35.0027 2.31762 34.7199 2.25134 34.1325 2.1453C33.5452 2.03925 33.2624 2.0039 33.2624 2.0039C33.0113 1.98331 32.7603 2.04462 32.5459 2.17893C32.3315 2.31323 32.1649 2.51351 32.0703 2.75063L31 5.78613V8.26491C32.9172 8.41577 34.8053 8.83049 36.6125 9.49768H36.6386C38.9526 10.3558 41.102 11.6162 42.9906 13.2225L43.0646 13.2887C43.2517 13.4478 43.4344 13.6069 43.6128 13.7704L43.6432 13.7969C46.2122 16.1639 48.1744 19.1311 49.3601 22.4417C50.5457 25.7522 50.9191 29.3063 50.4478 32.7964C50.3738 33.331 50.2825 33.8613 50.1737 34.3826C50.1757 34.3958 50.1757 34.4092 50.1737 34.4224C49.8277 36.0655 49.2918 37.6614 48.577 39.1767L50.6958 40.4139L53.8153 40.9883C54.0647 41.024 54.3188 40.9776 54.5403 40.8559C54.7619 40.7342 54.9393 40.5437 55.0465 40.3123C55.0465 40.3123 55.1596 40.0428 55.3641 39.4728C55.5686 38.9028 55.6556 38.62 55.6556 38.62C55.7193 38.3718 55.7034 38.1096 55.6103 37.8712C55.5172 37.6328 55.3517 37.4308 55.1379 37.2944L52.3621 35.6994C52.631 34.5994 52.8243 33.4817 52.9408 32.3546L56.0689 31.8111C56.3156 31.7575 56.539 31.6254 56.7065 31.4338C56.874 31.2422 56.9768 31.0013 57 30.7462C57 30.7462 57 30.4546 57 29.8625C57 29.2705 57 28.9788 57 28.9788" fill="#1C1F1C"/>
<path d="M49.6215 43.5372L47.4545 42.2852C46.4957 43.6809 45.3788 44.9607 44.126 46.0991L44.0681 46.1526C43.8902 46.313 43.7122 46.4689 43.5297 46.6204L43.374 46.7496L42.929 47.1061L42.8489 47.1684C41.2843 48.386 39.5611 49.3843 37.7272 50.1358L37.6649 50.1581C37.4468 50.2517 37.2199 50.3363 37.0018 50.4165L36.9307 50.4433C34.716 51.249 32.3847 51.6869 30.029 51.7398H29.495H28.9566C26.6023 51.6869 24.2725 51.2489 22.0594 50.4433L21.9837 50.4165C21.7612 50.3363 21.5388 50.2472 21.3207 50.1581L21.2584 50.1358C19.4224 49.3838 17.6977 48.3839 16.1322 47.164L16.0521 47.0971L15.6072 46.7452L15.4425 46.6115C15.2601 46.46 15.0865 46.3041 14.9085 46.1437L14.8462 46.0902C13.592 44.9519 12.4736 43.6721 11.5133 42.2762L11.9939 42L9.35072 43.5283L7.25042 46.01C7.09112 46.2177 7.0033 46.4714 7.00009 46.7333C6.99688 46.9951 7.07846 47.251 7.23262 47.4625C7.23262 47.4625 7.41506 47.6986 7.80664 48.1665C8.19823 48.6343 8.39847 48.8526 8.39847 48.8526C8.58184 49.0345 8.8185 49.153 9.07388 49.1906C9.32926 49.2283 9.58997 49.1833 9.81796 49.062L12.6213 47.4224C13.4417 48.2143 14.316 48.9482 15.2378 49.619L14.112 52.671C14.0316 52.9161 14.0314 53.1805 14.1114 53.4257C14.1915 53.6709 14.3476 53.8842 14.557 54.0344C14.557 54.0344 14.8062 54.1904 15.3357 54.48C15.8653 54.7696 16.1278 54.9255 16.1278 54.9255C16.3617 55.0335 16.624 55.0636 16.8762 55.0114C17.1284 54.9593 17.3573 54.8277 17.5295 54.6359L19.6031 52.1408C20.6452 52.6066 21.7187 52.9982 22.8159 53.3126V56.5563C22.824 56.8148 22.9149 57.0639 23.0751 57.2669C23.2354 57.4698 23.4564 57.6159 23.7058 57.6835C23.7058 57.6835 23.9951 57.7459 24.5958 57.8528C25.1965 57.9598 25.4857 57.9954 25.4857 57.9954C25.7422 58.0179 25.9992 57.9573 26.2187 57.8226C26.4382 57.6878 26.6087 57.486 26.705 57.2469L27.7996 54.1814C28.3648 54.2215 28.9343 54.2438 29.5084 54.2438C30.0824 54.2438 30.652 54.2215 31.2171 54.1814L32.3117 57.2469C32.408 57.486 32.5785 57.6878 32.798 57.8226C33.0175 57.9573 33.2745 58.0179 33.531 57.9954C33.531 57.9954 33.8202 57.9598 34.421 57.8528C35.0217 57.7459 35.3109 57.6835 35.3109 57.6835C35.5599 57.6152 35.7806 57.469 35.9408 57.2662C36.1009 57.0634 36.192 56.8146 36.2009 56.5563V53.3126C37.2985 52.9996 38.3722 52.608 39.4136 52.1408L41.4873 54.6359C41.6594 54.8277 41.8883 54.9593 42.1406 55.0114C42.3928 55.0636 42.655 55.0335 42.8889 54.9255C42.8889 54.9255 43.1515 54.7919 43.681 54.48C44.2105 54.1681 44.4597 54.0344 44.4597 54.0344C44.6697 53.8846 44.8262 53.6714 44.9063 53.4261C44.9864 53.1807 44.9858 52.9161 44.9047 52.671L43.7789 49.619C44.7016 48.9493 45.5759 48.2153 46.3954 47.4224L49.2032 49.062C49.4304 49.1836 49.6905 49.2289 49.9453 49.1912C50.2 49.1535 50.436 49.0348 50.6183 48.8526C50.6183 48.8526 50.8185 48.6388 51.2145 48.1665C51.6106 47.6942 51.7841 47.4625 51.7841 47.4625C51.9312 47.2512 52.0067 46.9982 51.9995 46.7408C51.9923 46.4833 51.9028 46.235 51.7441 46.0323L49.6215 43.5372Z" fill="#1C1F1C"/>
<path d="M8.58063 40.4395L10.7757 39.2002C10.0286 37.6852 9.46468 36.0899 9.09552 34.4466C9.09552 34.4466 9.09552 34.4157 9.09552 34.3979C8.9826 33.8801 8.88775 33.3534 8.81549 32.8223C8.53846 30.8665 8.53846 28.8826 8.81549 26.9268C9.16374 24.4218 9.95872 21.9963 11.1641 19.7611C12.3702 17.5267 13.9643 15.5152 15.8749 13.817L15.9065 13.7904L16.4756 13.3035L16.5524 13.2416C18.5136 11.6334 20.7448 10.371 23.1465 9.51044H23.1782C25.0528 8.84261 27.0113 8.4272 29 8.27558V5.79258L27.8889 2.75191C27.7907 2.51438 27.6178 2.31376 27.3952 2.17923C27.1726 2.0447 26.912 1.98328 26.6514 2.00391C26.6514 2.00391 26.3533 2.04375 25.7481 2.14554C25.1429 2.24734 24.8448 2.31816 24.8448 2.31816C24.5924 2.38513 24.3685 2.52956 24.2059 2.73027C24.0434 2.93098 23.9507 3.17743 23.9414 3.43351V6.66008C22.8279 6.97247 21.7382 7.36145 20.6805 7.82413L18.5758 5.34113C18.4011 5.15058 18.1687 5.01985 17.9127 4.96808C17.6567 4.91631 17.3905 4.94623 17.1531 5.05344C17.1531 5.05344 16.8911 5.19064 16.3491 5.49604C15.8071 5.80143 15.5587 5.96077 15.5587 5.96077C15.3471 6.10975 15.1892 6.32083 15.108 6.56349C15.0268 6.80616 15.0265 7.06784 15.1071 7.31071L16.2497 10.3425C15.314 11.0104 14.4267 11.741 13.594 12.529L10.7486 10.9002C10.5178 10.7785 10.2533 10.7327 9.99394 10.7693C9.73458 10.806 9.49408 10.9232 9.30779 11.1038C9.30779 11.1038 9.10455 11.3207 8.70709 11.7854C8.30963 12.2501 8.12897 12.4493 8.12897 12.4493C7.97996 12.6601 7.90354 12.9121 7.91086 13.1684C7.91817 13.4248 8.00882 13.6722 8.16962 13.8745L10.3014 16.3398C9.65105 17.2782 9.07139 18.262 8.56708 19.2831L5.32419 18.7033C5.06534 18.6683 4.80184 18.7151 4.57198 18.8368C4.34212 18.9586 4.15787 19.149 4.046 19.3805C4.046 19.3805 3.93309 19.6504 3.71629 20.2258C3.4995 20.8012 3.4182 21.0756 3.4182 21.0756C3.34918 21.3241 3.36425 21.5879 3.46116 21.8273C3.55807 22.0667 3.73158 22.2689 3.95567 22.4034L6.81465 24.0057C6.53337 25.1056 6.33263 26.2238 6.21395 27.3517L2.96654 27.9005C2.71019 27.952 2.47763 28.0832 2.30348 28.2746C2.12933 28.466 2.02289 28.7073 2 28.9628C2 28.9628 2 29.2549 2 29.848C2 30.4411 2 30.7332 2 30.7332C2.02359 30.9884 2.13028 31.2294 2.30431 31.4207C2.47834 31.612 2.71051 31.7433 2.96654 31.7954L6.21395 32.3398C6.33333 33.4688 6.53254 34.5884 6.81014 35.6903L3.95567 37.2881C3.73212 37.4232 3.55904 37.6254 3.4622 37.8647C3.36536 38.1039 3.34993 38.3674 3.4182 38.6159C3.4182 38.6159 3.50853 38.8948 3.72081 39.4702C3.93309 40.0455 4.046 40.3111 4.046 40.3111C4.1573 40.543 4.34145 40.7338 4.57146 40.8557C4.80147 40.9775 5.06527 41.024 5.32419 40.9883L8.56708 40.4129" fill="#1C1F1C"/>
<path d="M32 30C32 29.6046 31.8828 29.2181 31.6633 28.8894C31.4437 28.5606 31.1316 28.3042 30.7665 28.1527C30.4013 28.0012 29.9994 27.9613 29.6116 28.0381C29.2237 28.1149 28.8674 28.3049 28.5875 28.5841C28.3076 28.8633 28.1167 29.2193 28.039 29.6069C27.9613 29.9946 28.0002 30.3965 28.1509 30.7621C28.3015 31.1276 28.5571 31.4403 28.8854 31.6606C29.2137 31.881 29.5999 31.9991 29.9952 32C30.5261 32 31.0353 31.7894 31.4111 31.4145C31.787 31.0396 31.9987 30.5309 32 30Z" fill="black"/>
<path d="M31.2496 8V10.5265C34.0804 10.7835 36.8188 11.69 39.2628 13.1793C41.7068 14.6685 43.794 16.7024 45.3703 19.1309L43.243 20.3941C41.0125 17.0299 37.6802 14.5999 33.8523 13.5463C30.0245 12.4927 25.9555 12.8855 22.3859 14.6533L23.6159 16.8427C25.1059 16.1248 26.7078 15.6835 28.3476 15.539V18.0699C25.699 18.3574 23.2265 19.5694 21.3433 21.5036C19.46 23.4378 18.2799 25.9771 18 28.6973H20.4687C20.5721 27.8977 20.7751 27.1151 21.0728 26.3686L23.2219 27.6409C22.7984 28.8735 22.723 30.2041 23.0046 31.4789C23.2861 32.7536 23.9131 33.9206 24.8131 34.8449C25.713 35.7692 26.8493 36.4131 28.0905 36.7023C29.3317 36.9914 30.6272 36.914 31.8274 36.479L30.5668 34.2313C30.241 34.3091 29.9076 34.3483 29.5732 34.3482C28.5416 34.3514 27.5436 33.9724 26.7622 33.2808C25.9808 32.5891 25.4686 31.6311 25.3196 30.5828C25.1706 29.5345 25.3948 28.4662 25.951 27.5739C26.5072 26.6817 27.3582 26.0255 28.3476 25.7258V23.1498C26.8275 23.4394 25.4506 24.2568 24.4475 25.465L22.3027 24.1883C23.1617 23.0479 24.2636 22.1248 25.5239 21.4896C26.7842 20.8545 28.1693 20.5242 29.5732 20.5242C30.977 20.5242 32.3622 20.8545 33.6225 21.4896C34.8828 22.1248 35.9846 23.0479 36.8436 24.1883L34.6944 25.465C33.6937 24.2563 32.3179 23.4386 30.7988 23.1498V25.7348C31.5001 25.9505 32.1361 26.347 32.646 26.8866C33.156 27.4261 33.523 28.0908 33.7121 28.8172C33.9012 29.5436 33.9061 30.3077 33.7264 31.0366C33.5467 31.7655 33.1883 32.4351 32.6853 32.9815L33.9459 35.2293C34.9823 34.3188 35.7259 33.1074 36.079 31.7545C36.4322 30.4016 36.3783 28.9707 35.9244 27.6499L38.0692 26.3776C38.3681 27.1239 38.5726 27.9065 38.6776 28.7063H41.1464C40.8665 25.986 39.6864 23.4468 37.8031 21.5126C35.9198 19.5784 33.4474 18.3663 30.7988 18.0789V15.5524C33.0557 15.7542 35.2319 16.512 37.1429 17.7616C39.0539 19.0112 40.6431 20.7158 41.7759 22.7308C42.9087 24.7457 43.5516 27.0115 43.65 29.336C43.7485 31.6605 43.2995 33.9751 42.3413 36.0834L40.2096 34.8202C40.7054 33.6799 41.0216 32.466 41.1464 31.2238H38.6776C38.4889 32.6551 37.9829 34.0229 37.1985 35.2219C36.4141 36.4208 35.3724 37.4189 34.1534 38.1393C32.9344 38.8598 31.5707 39.2833 30.1673 39.3774C28.7639 39.4714 27.3581 39.2334 26.0583 38.6818L24.8196 40.8756C27.2553 41.9896 29.9896 42.2112 32.5653 41.5034C35.1411 40.7957 37.4022 39.2014 38.9709 36.987L41.1026 38.2502C40.1582 39.6345 38.9849 40.838 37.6359 41.8062L38.8659 44C42.1426 41.7091 44.5097 38.2861 45.5363 34.354C46.563 30.4218 46.181 26.2417 44.4599 22.5744L46.5871 21.3112C47.843 23.9295 48.5124 26.8033 48.5465 29.7218C48.5806 32.6404 47.9784 35.5298 46.7841 38.1783L48.9114 39.4416C50.4091 36.2161 51.1202 32.6649 50.9834 29.0942C50.8467 25.5235 49.8662 22.0406 48.1265 18.9459C46.3868 15.8512 43.9402 13.2377 40.9977 11.3307C38.0552 9.42377 34.7051 8.28066 31.2365 8" fill="#E53324"/>
<path d="M31.2187 48.5006V46.0344C33.3356 45.8837 35.4042 45.3408 37.3153 44.4343L36.0575 42.2934C32.9856 43.7031 29.5058 44.0034 26.2307 43.1414C22.9556 42.2794 20.0951 40.3103 18.1527 37.5809L20.3326 36.3456C21.0629 37.328 21.9431 38.1939 22.9422 38.9128L24.209 36.7676C22.2494 35.2867 20.9628 33.1071 20.6281 30.7011H18.108C18.2355 31.9158 18.5589 33.1029 19.0659 34.2179L16.886 35.4532C15.451 32.4367 15.145 29.0198 16.0218 25.8036C16.8987 22.5874 18.9022 19.7778 21.68 17.8691L20.4222 15.7282C18.664 16.9065 17.1458 18.3975 15.946 20.1242L13.7705 18.889C15.3828 16.5145 17.5172 14.5257 20.0165 13.0695C22.5157 11.6132 25.316 10.7266 28.2107 10.475V8C24.6636 8.27445 21.2378 9.39226 18.2287 11.257C15.2196 13.1218 12.7176 15.6775 10.9385 18.7037C9.15948 21.7299 8.15679 25.1357 8.01695 28.6274C7.87711 32.1191 8.60432 35.5917 10.1358 38.7458L12.3158 37.5105C11.0913 34.9214 10.4738 32.0956 10.5086 29.2411C10.5435 26.3866 11.2299 23.5761 12.5172 21.0166L14.6926 22.2519C13.4953 24.6905 12.9229 27.3796 13.0254 30.085C13.1279 32.7905 13.9021 35.4303 15.2806 37.7748C16.6591 40.1193 18.6002 42.0974 20.9349 43.537C23.2696 44.9765 25.9271 45.8339 28.6763 46.0344V48.5006C25.776 48.3182 22.9545 47.4983 20.4203 46.1013C17.886 44.7043 15.7037 42.7659 14.0346 40.4295L11.8547 41.6648C13.8704 44.5435 16.5689 46.8976 19.7174 48.5239C22.8659 50.1502 26.3699 51 29.9274 51C33.4848 51 36.9888 50.1502 40.1373 48.5239C43.2858 46.8976 45.9843 44.5435 48 41.6648L45.8246 40.4295C44.155 42.7655 41.9726 44.7035 39.4384 46.1004C36.9043 47.4974 34.083 48.3176 31.1829 48.5006" fill="#E53324"/>
</svg>
