<?xml version="1.0" encoding="utf-8"?>
<!-- Generator: Adobe Illustrator 24.0.2, SVG Export Plug-In . SVG Version: 6.00 Build 0)  -->
<svg version="1.1" id="Layer_1" xmlns="http://www.w3.org/2000/svg" xmlns:xlink="http://www.w3.org/1999/xlink" x="0px" y="0px"
	 viewBox="0 0 283.5 280.8" style="enable-background:new 0 0 283.5 280.8;" xml:space="preserve">
<style type="text/css">
	.st0{fill-rule:evenodd;clip-rule:evenodd;fill:#040604;}
	.st1{fill-rule:evenodd;clip-rule:evenodd;fill:#FFFFFF;}
</style>
<g>
	<g>
		<path class="st0" d="M278.6,136c-0.1-2.4-2.2-4.8-4.6-5.2l-15.5-2.6c-0.4-3.5-0.9-7-1.6-10.4l0-0.1c-0.2-0.8-0.3-1.6-0.5-2.5
			l-0.1-0.5c-0.2-0.7-0.3-1.4-0.5-2.1c-0.1-0.2-0.1-0.5-0.2-0.7l13.6-7.8c2.1-1.2,3.2-4.1,2.5-6.4c0,0-0.4-1.4-1.4-4.1
			c-1-2.8-1.6-4.1-1.6-4.1c-1-2.2-3.7-3.7-6.1-3.3L247.3,89l-0.1-0.1c-0.3-0.7-0.7-1.4-1.1-2.1l-0.2-0.4c-0.4-0.7-0.7-1.4-1.1-2.1
			l-0.2-0.3c-0.4-0.7-0.8-1.5-1.2-2.2l-0.1-0.1c-1.4-2.4-2.9-4.8-4.4-7.1l10.1-12c1.6-1.8,1.7-5,0.2-6.9c0,0-0.9-1.1-2.8-3.4
			c-1.9-2.3-2.9-3.3-2.9-3.3c-1.7-1.8-4.8-2.2-6.8-1L223.4,56c-0.5-0.5-1.1-1-1.6-1.5l0,0c-0.6-0.6-1.3-1.2-2-1.8l-0.1-0.1
			c-0.6-0.6-1.3-1.1-1.9-1.7l-0.1-0.1c-0.6-0.6-1.3-1.1-2-1.6l-0.1-0.1c-0.7-0.5-1.3-1.1-2-1.6l-0.1-0.1c-0.7-0.5-1.3-1-2-1.5
			l-0.1-0.1l-0.6-0.4l5.4-14.7c0.8-2.3-0.1-5.2-2.2-6.6c0,0-1.2-0.8-3.8-2.3c-2.6-1.5-3.8-2.1-3.8-2.1c-2.2-1.1-5.2-0.5-6.8,1.4
			l-10,12.1c-5-2.2-10.2-4.1-15.5-5.7l0.1-15.7c0-2.4-1.9-4.9-4.3-5.4c0,0-1.4-0.3-4.3-0.8c-2.9-0.5-4.3-0.7-4.3-0.7
			c-2.4-0.3-5.1,1.3-5.9,3.6L150,23.3h0l0,12.1h0v0.1c-2.7-0.2-5.5-0.3-8.3-0.3c-2.8,0-5.5,0.1-8.3,0.3v-0.1l0,0l0-12.1h0l0,0v0
			l-5.3-14.8c-0.8-2.3-3.5-3.9-5.9-3.6c0,0-1.4,0.2-4.3,0.7c-2.9,0.5-4.3,0.8-4.3,0.8c-2.4,0.6-4.3,3-4.3,5.4l0.1,15.7
			c-5.3,1.5-10.5,3.4-15.5,5.7l-10-12.1c-1.5-1.9-4.6-2.5-6.8-1.4c0,0-1.3,0.7-3.8,2.1c-2.6,1.5-3.8,2.2-3.8,2.2
			c-2,1.3-3,4.3-2.2,6.6l5.4,14.7l-0.3,0.2c-0.2,0.2-0.4,0.3-0.6,0.5c-0.5,0.4-1.1,0.8-1.6,1.2l-0.5,0.4c-0.5,0.4-1.1,0.9-1.6,1.3
			l-0.4,0.3c-0.6,0.5-1.1,0.9-1.7,1.4L65.6,51c-0.6,0.5-1.1,1-1.7,1.5l-0.3,0.3c-0.6,0.5-1.1,1-1.7,1.5l-0.4,0.3
			c-0.5,0.5-1,0.9-1.4,1.4l-13.6-7.9c-2.1-1.2-5.2-0.8-6.8,1c0,0-1,1-2.9,3.3c-1.9,2.3-2.8,3.4-2.8,3.4c-1.5,2-1.4,5.1,0.2,6.9
			l10.1,12c-1,1.6-2.1,3.1-3,4.7l-0.1,0.2c-0.4,0.7-0.9,1.4-1.3,2.1l-0.1,0.2c-0.4,0.7-0.8,1.4-1.2,2.1l-0.2,0.3
			c-0.4,0.7-0.7,1.3-1.1,2l-0.2,0.4c-0.3,0.7-0.7,1.3-1,2c0,0.1-0.1,0.1-0.1,0.2l-15.4-2.8c-2.4-0.4-5.1,1-6.1,3.3
			c0,0-0.6,1.3-1.6,4.1c-1,2.8-1.4,4.1-1.4,4.1c-0.7,2.3,0.4,5.2,2.6,6.4l13.6,7.8c-0.3,1.3-0.6,2.6-0.9,3.9
			c-0.1,0.4-0.2,0.9-0.3,1.3c-0.1,0.4-0.1,0.7-0.2,1.1c-0.1,0.6-0.2,1.3-0.4,1.9l-0.1,0.6c-0.1,0.8-0.2,1.5-0.4,2.3l-0.1,0.4
			c-0.1,0.8-0.2,1.7-0.3,2.5l0,0.2c-0.1,0.7-0.2,1.3-0.2,2l-15.5,2.7c-2.4,0.4-4.5,2.7-4.6,5.2c0,0-0.1,1.4-0.1,4.4
			c0,3,0.1,4.4,0.1,4.4c0.1,2.4,2.2,4.8,4.6,5.2l15.5,2.6l0.1,0.5l0,0.1l0,0c0.1,0.8,0.2,1.6,0.3,2.4l0,0.1l0,0l0,0
			c0,0.2,0.1,0.5,0.1,0.7l0,0l0,0.2l0.1,0.5l0,0.3l0,0l0,0.3l0,0.3l0,0l0.1,0.4l0,0.1l0,0.3l0,0l0.1,0.5l0,0.3
			c0.5,3.1,1.2,6.3,1.9,9.3l-13.6,7.8c-2.1,1.2-3.3,4.1-2.6,6.4c0,0,0.4,1.4,1.4,4.1c1,2.8,1.6,4.1,1.6,4.1c1,2.2,3.7,3.7,6.1,3.3
			l15.4-2.8c0,0,0,0,0,0l10.5-6l0-0.1l0.1-0.1c2.4,5,5.2,9.8,8.3,14.3l-0.1,0.1l-0.1,0.1l-10.3,5.9c0,0,0,0,0,0l-10.1,12
			c-1.6,1.9-1.7,5-0.2,6.9c0,0,0.9,1.1,2.8,3.4c1.9,2.3,2.9,3.3,2.9,3.3c1.7,1.8,4.8,2.2,6.8,1l13.6-7.9l0.1,0.1l0.4,0.4
			c0.3,0.3,0.6,0.6,1,0.9l0.3,0.2c0.4,0.3,0.7,0.7,1.1,1l0.1,0.1c0.4,0.4,0.8,0.7,1.2,1.1l0,0l0,0c0.4,0.4,0.8,0.7,1.3,1.1l0.1,0.1
			c0.4,0.4,0.8,0.7,1.3,1.1L67,231c0.4,0.4,0.9,0.7,1.3,1l0.1,0.1c0.4,0.3,0.8,0.6,1.2,1l0.2,0.2c0.4,0.3,0.7,0.6,1.1,0.8l0.5,0.3
			c0.2,0.2,0.5,0.4,0.7,0.5c0.2,0.2,0.4,0.3,0.6,0.5l-5.4,14.7c-0.9,2.3,0.1,5.2,2.2,6.6c0,0,1.2,0.8,3.8,2.2
			c2.6,1.5,3.8,2.1,3.8,2.1c2.2,1.1,5.2,0.5,6.8-1.4l10-12.1c5,2.2,10.2,4.1,15.5,5.7l-0.1,15.7c0,2.4,1.9,4.9,4.3,5.4
			c0,0,1.4,0.3,4.3,0.8c2.9,0.5,4.3,0.7,4.3,0.7c2.4,0.3,5.1-1.3,5.9-3.6l5.3-14.8l0.3,0c0.2,0,0.5,0,0.7,0c2.4,0.1,4.8,0.2,7.2,0.2
			c2.5,0,4.9-0.1,7.3-0.2l0.5,0l0.4,0l5.3,14.8c0.8,2.3,3.5,3.9,5.9,3.6c0,0,1.4-0.2,4.3-0.7c2.9-0.5,4.3-0.8,4.3-0.8
			c2.4-0.6,4.3-3,4.3-5.4l-0.1-15.7c5.3-1.5,10.5-3.4,15.5-5.7l10,12.1c1.5,1.9,4.6,2.5,6.8,1.4c0,0,1.3-0.6,3.8-2.1
			c2.6-1.5,3.8-2.3,3.8-2.3c2-1.3,3-4.3,2.2-6.6l-5.4-14.7c1.3-0.9,2.5-1.8,3.7-2.8l0.2-0.2l0.2-0.2c0.3-0.2,0.6-0.5,0.9-0.7
			l0.5-0.4c0.3-0.2,0.5-0.4,0.8-0.6c0.2-0.2,0.4-0.3,0.6-0.5c0.2-0.2,0.5-0.4,0.7-0.6c0.2-0.2,0.4-0.4,0.7-0.6
			c0.2-0.2,0.4-0.4,0.7-0.6c0.2-0.2,0.4-0.4,0.6-0.6c0.2-0.2,0.4-0.4,0.6-0.6c0.2-0.2,0.5-0.4,0.7-0.7c0.2-0.2,0.4-0.3,0.5-0.5
			c0.3-0.2,0.5-0.5,0.8-0.7l0.4-0.4l13.6,7.9c2.1,1.2,5.2,0.8,6.8-1c0,0,1-1.1,2.9-3.3c1.9-2.3,2.8-3.4,2.8-3.4
			c1.5-2,1.4-5.1-0.2-6.9l-10.1-12c0,0,0,0,0,0l-10.5-6l-0.1-0.1c3.1-4.5,5.9-9.3,8.3-14.3l0.1,0.1l10.5,6l0,0c0,0,0,0,0,0l15.4,2.8
			c2.4,0.4,5.1-1,6.1-3.3c0,0,0.5-1.3,1.6-4.1c1-2.8,1.4-4.1,1.4-4.1c0.7-2.3-0.4-5.2-2.5-6.4l-13.6-7.8c1.3-5.3,2.3-10.7,2.9-16.3
			L274,150c2.4-0.4,4.5-2.7,4.6-5.2c0,0,0.1-1.4,0.1-4.4C278.7,137.4,278.6,136,278.6,136z"/>
		<rect x="133.5" y="30.2" class="st1" width="16.5" height="21.4"/>
		<rect x="219.7" y="179.6" transform="matrix(0.5 -0.866 0.866 0.5 -50.7198 292.517)" class="st1" width="16.5" height="21.2"/>
		<rect x="48.6" y="178.8" transform="matrix(-0.5 -0.866 0.866 -0.5 -78.7313 333.3617)" class="st1" width="16.5" height="21.2"/>
		<path class="st1" d="M113.7,6.4c-2.4,0.6-4.3,3-4.3,5.4l0.1,15.7c-5.3,1.5-10.5,3.4-15.5,5.7l-10-12.1c-1.5-1.9-4.6-2.5-6.8-1.4
			c0,0-1.3,0.7-3.8,2.1c-2.6,1.5-3.8,2.2-3.8,2.2c-2,1.3-3,4.3-2.2,6.6l5.4,14.7l-0.3,0.2c-0.2,0.2-0.4,0.3-0.6,0.5
			c-0.5,0.4-1.1,0.8-1.6,1.2l-0.5,0.4c-0.5,0.4-1.1,0.9-1.6,1.3l-0.4,0.3c-0.6,0.5-1.1,0.9-1.7,1.4L65.6,51c-0.6,0.5-1.1,1-1.7,1.5
			l-0.3,0.3c-0.6,0.5-1.1,1-1.7,1.5l-0.4,0.3c-0.5,0.4-1,0.9-1.4,1.4l-13.6-7.9c-2.1-1.2-5.2-0.8-6.8,1c0,0-1,1-2.9,3.3
			c-1.9,2.3-2.8,3.4-2.8,3.4c-1.5,2-1.4,5.1,0.2,6.9l10.1,12c-1,1.6-2.1,3.1-3,4.7l-0.1,0.2c-0.4,0.7-0.9,1.4-1.3,2.1l-0.1,0.2
			c-0.4,0.7-0.8,1.4-1.2,2.1l-0.2,0.3c-0.4,0.7-0.7,1.3-1.1,2l-0.2,0.4c-0.3,0.7-0.7,1.3-1,2c0,0.1-0.1,0.1-0.1,0.2l-15.4-2.8
			c-2.4-0.4-5.1,1-6.1,3.3c0,0-0.6,1.3-1.6,4.1c-1,2.8-1.4,4.1-1.4,4.1c-0.7,2.3,0.4,5.2,2.6,6.4l13.6,7.8c-0.3,1.3-0.6,2.6-0.9,3.9
			c-0.1,0.4-0.2,0.9-0.3,1.3c-0.1,0.4-0.1,0.7-0.2,1.1c-0.1,0.6-0.2,1.3-0.4,1.9l-0.1,0.6c-0.1,0.8-0.2,1.5-0.4,2.3l-0.1,0.4
			c-0.1,0.8-0.2,1.7-0.3,2.5l0,0.2c-0.1,0.7-0.2,1.3-0.2,2l-15.5,2.7c-2.4,0.4-4.5,2.7-4.6,5.2c0,0-0.1,1.4-0.1,4.4
			c0,3,0.1,4.4,0.1,4.4c0.1,2.4,2.2,4.8,4.6,5.2l15.5,2.6l0.1,0.5l0,0.1l0,0c0.1,0.8,0.2,1.6,0.3,2.4l0,0.1l0,0l0,0
			c0,0.2,0.1,0.5,0.1,0.7l0,0l0,0.2l0.1,0.5l0,0.3l0,0l0,0.3l0,0.3l0,0l0.1,0.4l0,0.1l0,0.3l0,0l0.1,0.5l0,0.3
			c0.5,3.1,1.2,6.3,1.9,9.3l-13.6,7.8c-2.1,1.2-3.3,4.1-2.6,6.4c0,0,0.4,1.4,1.4,4.1c1,2.8,1.6,4.1,1.6,4.1c1,2.2,3.7,3.7,6.1,3.3
			l15.4-2.8c0,0,0,0,0,0l10.5-6l0-0.1l0.1-0.1c2.4,5,5.2,9.8,8.3,14.3l-0.1,0.1l-0.2,0.1l-10.3,5.9c0,0,0,0,0,0l-10.1,12
			c-1.6,1.9-1.7,5-0.2,6.9c0,0,0.9,1.1,2.8,3.4c1.9,2.3,2.9,3.3,2.9,3.3c1.7,1.8,4.8,2.2,6.8,1l13.6-7.9l0.1,0.1l0.4,0.4
			c0.3,0.3,0.6,0.6,1,0.9l0.3,0.2c0.4,0.3,0.7,0.7,1.1,1l0.1,0.1c0.4,0.4,0.8,0.7,1.2,1.1l0,0l0,0c0.4,0.4,0.8,0.7,1.3,1.1l0.1,0.1
			c0.4,0.4,0.8,0.7,1.3,1.1L67,231c0.4,0.4,0.9,0.7,1.3,1l0.1,0.1c0.4,0.3,0.8,0.6,1.2,1l0.2,0.2c0.4,0.3,0.7,0.6,1.1,0.8l0.5,0.3
			c0.2,0.2,0.5,0.4,0.7,0.5c0.2,0.2,0.4,0.3,0.6,0.5l-5.4,14.7c-0.9,2.3,0.1,5.2,2.2,6.6c0,0,1.2,0.8,3.8,2.2
			c2.6,1.5,3.8,2.1,3.8,2.1c2.2,1.1,5.2,0.5,6.8-1.4l10-12.1c5,2.2,10.2,4.1,15.5,5.7l-0.1,15.7c0,2.4,1.9,4.9,4.3,5.4
			c0,0,1.4,0.3,4.3,0.8c2.9,0.5,4.3,0.7,4.3,0.7c2.4,0.3,5.1-1.3,5.9-3.6l5.3-14.8l0.3,0c0.2,0,0.5,0,0.7,0c2.4,0.1,4.8,0.2,7.2,0.2
			c2.5,0,4.9-0.1,7.3-0.2l0.5,0l0.4,0l5.3,14.8c0.8,2.3,3.5,3.9,5.9,3.6c0,0,1.4-0.2,4.3-0.7c2.9-0.5,4.3-0.8,4.3-0.8
			c2.4-0.6,4.3-3,4.3-5.4l-0.1-15.7c5.3-1.5,10.5-3.4,15.5-5.7l10,12.1c1.5,1.9,4.6,2.5,6.8,1.4c0,0,1.3-0.6,3.8-2.1
			c2.6-1.5,3.8-2.3,3.8-2.3c2-1.3,3-4.3,2.2-6.6l-5.4-14.7c1.3-0.9,2.5-1.8,3.7-2.8l0.2-0.2l0.2-0.2c0.3-0.2,0.6-0.5,0.9-0.7
			l0.5-0.4c0.3-0.2,0.5-0.4,0.8-0.6c0.2-0.2,0.4-0.3,0.6-0.5c0.2-0.2,0.5-0.4,0.7-0.6c0.2-0.2,0.4-0.4,0.7-0.6
			c0.2-0.2,0.4-0.4,0.7-0.6c0.2-0.2,0.4-0.4,0.6-0.6c0.2-0.2,0.4-0.4,0.6-0.6c0.2-0.2,0.5-0.4,0.7-0.7c0.2-0.2,0.4-0.3,0.5-0.5
			c0.3-0.2,0.5-0.5,0.8-0.7l0.4-0.4l13.6,7.9c2.1,1.2,5.2,0.8,6.8-1c0,0,1-1.1,2.9-3.3c1.9-2.3,2.8-3.4,2.8-3.4
			c1.5-2,1.4-5.1-0.2-6.9l-10.1-12c0,0,0,0,0,0l-10.5-6l-0.1-0.1c3.1-4.5,5.9-9.3,8.3-14.3l0.1,0.1l10.5,6l0,0c0,0,0,0,0,0l15.4,2.8
			c2.4,0.4,5.1-1,6.1-3.3c0,0,0.5-1.3,1.6-4.1c1-2.8,1.4-4.1,1.4-4.1c0.7-2.3-0.4-5.2-2.5-6.4l-13.6-7.8c1.3-5.3,2.3-10.7,2.9-16.3
			L274,150c2.4-0.4,4.5-2.7,4.6-5.2c0,0,0.1-1.4,0.1-4.4c0-3-0.1-4.4-0.1-4.4c-0.1-2.4-2.2-4.8-4.6-5.2l-15.5-2.6
			c-0.4-3.5-0.9-7-1.6-10.4l0-0.1c-0.2-0.8-0.3-1.6-0.5-2.5l-0.1-0.5c-0.2-0.7-0.3-1.4-0.5-2.1c-0.1-0.2-0.1-0.4-0.2-0.7l13.6-7.8
			c2.1-1.2,3.2-4.1,2.5-6.4c0,0-0.4-1.4-1.4-4.1c-1-2.8-1.6-4.1-1.6-4.1c-1-2.2-3.7-3.7-6.1-3.3L247.3,89l-0.1-0.1
			c-0.3-0.7-0.7-1.4-1.1-2.1l-0.2-0.4c-0.4-0.7-0.7-1.4-1.1-2.1l-0.2-0.3c-0.4-0.7-0.8-1.5-1.2-2.2l-0.1-0.1
			c-1.4-2.4-2.9-4.8-4.4-7.1l10.1-12c1.6-1.8,1.7-5,0.2-6.9c0,0-0.9-1.1-2.8-3.4c-1.9-2.3-2.9-3.3-2.9-3.3c-1.7-1.8-4.8-2.2-6.8-1
			L223.4,56c-0.5-0.5-1.1-1-1.6-1.5l0,0c-0.6-0.6-1.3-1.2-2-1.8l-0.1-0.1c-0.6-0.6-1.3-1.1-1.9-1.7l-0.1-0.1c-0.6-0.6-1.3-1.1-2-1.6
			l-0.1-0.1c-0.7-0.5-1.3-1.1-2-1.6l-0.1-0.1c-0.7-0.5-1.3-1-2-1.5l-0.1-0.1l-0.6-0.4l5.4-14.7c0.8-2.3-0.1-5.2-2.2-6.6
			c0,0-1.2-0.8-3.8-2.3c-2.6-1.5-3.8-2.1-3.8-2.1c-2.2-1.1-5.2-0.5-6.8,1.4l-10,12.1c-5-2.2-10.2-4.1-15.5-5.7l0.1-15.7
			c0-2.4-1.9-4.9-4.3-5.4c0,0-1.4-0.3-4.3-0.8c-2.9-0.5-4.3-0.7-4.3-0.7c-2.4-0.3-5.1,1.3-5.9,3.6L150,23.3h0l0,12.1l0,0l0,0.1
			c-2.7-0.2-5.5-0.3-8.3-0.3c-2.8,0-5.5,0.1-8.3,0.3l0-0.1l0,0l0-12.1l0,0l0,0l0,0l-5.3-14.8c-0.8-2.3-3.5-3.9-5.9-3.6
			c0,0-1.4,0.2-4.3,0.7C115.1,6.1,113.7,6.4,113.7,6.4L113.7,6.4z M280.8,129.5c1.5,1.7,2.5,3.8,2.7,6.1c0,0.1,0,0.1,0,0.2
			c0,0,0.1,1.5,0.1,4.7c0,3.2-0.1,4.7-0.1,4.7l0,0c-0.1,2.3-1.2,4.5-2.7,6.2c-1.5,1.6-3.5,2.9-5.7,3.3c-0.1,0-0.2,0-0.3,0.1l-11.9,2
			c-0.2,1.7-0.5,3.3-0.7,4.9c-0.3,1.6-0.6,3.2-1,4.9l10.5,6c1.9,1.1,3.3,2.8,4.2,4.7c0.1,0.2,0.2,0.3,0.2,0.5c0.8,2.1,1,4.6,0.4,6.8
			l0,0c0,0,0,0.1,0,0.1c0,0-0.6,1.8-1.5,4.3c-1.1,2.9-1.7,4.3-1.7,4.3l0,0c0,0,0,0,0,0c-0.9,2.2-2.6,3.9-4.7,5
			c-2,1.1-4.4,1.6-6.7,1.1l0,0l-15.1-2.7c-0.6-0.1-1.2-0.2-1.7-0.5l0,0l0,0c0,0-0.1,0-0.1-0.1l-6.2-3.6c-0.5,1-1.1,2-1.7,3
			c-0.6,1-1.2,2-1.8,3l5.9,3.4c0.7,0.3,1.2,0.8,1.7,1.4l10,11.8l0,0c1.5,1.8,2.3,4.1,2.4,6.4c0.1,2.3-0.6,4.6-2,6.5l0,0c0,0,0,0,0,0
			c0,0-1.1,1.4-2.9,3.6l0,0c0,0,0,0,0,0c-2.2,2.7-3,3.5-3,3.5l0,0c0,0,0,0-0.1,0.1c-1.6,1.7-3.8,2.8-6.1,3.1c-2.3,0.3-4.7,0-6.7-1.2
			l-10.5-6.1l-0.1,0.1l0,0c0,0,0,0,0,0l0,0c-0.1,0.1-0.2,0.2-0.3,0.3l-0.2,0.2c0,0-0.1,0.1-0.1,0.1l-0.3,0.3l0,0c0,0,0,0,0,0l0,0
			c-0.1,0.1-0.2,0.2-0.3,0.3l-0.3,0.3l0,0c0,0,0,0,0,0l-0.6,0.5c0,0-0.1,0.1-0.1,0.1l-0.4,0.3l0,0c0,0,0,0,0,0l-0.1,0.1
			c-0.1,0.1-0.2,0.2-0.3,0.3l-0.2,0.2c0,0-0.1,0.1-0.1,0.1l-0.3,0.3l0,0c0,0,0,0,0,0l-0.3,0.2c0,0-0.1,0.1-0.1,0.1l-0.3,0.2
			c0,0-0.1,0.1-0.1,0.1l-0.4,0.3c0,0-0.1,0.1-0.1,0.1l-0.4,0.4l0,0c0,0,0,0,0,0l-0.1,0.1c-0.1,0.1-0.2,0.2-0.3,0.3l-0.2,0.2l0,0
			c0,0,0,0,0,0l-0.2,0.2c-0.3,0.3-0.7,0.5-0.9,0.7l4.2,11.4l0,0c0.8,2.2,0.8,4.6,0,6.8c-0.7,2.1-2.1,4-3.9,5.3
			c-0.1,0.1-0.2,0.2-0.3,0.2c0,0-0.3,0.2-3.6,2.2c-0.1,0.1-0.2,0.1-0.2,0.2c-1.9,1.1-3.2,1.8-3.8,2.1c-0.1,0.1-0.2,0.1-0.3,0.2
			c-2.1,1.1-4.5,1.3-6.8,0.8c-2.3-0.5-4.4-1.7-5.9-3.5l0,0l-7.7-9.3c-1.5,0.6-3.1,1.2-4.6,1.8c-1.6,0.6-3.1,1.1-4.7,1.6l0.1,12.1
			c0,0,0,0,0,0c0,2.3-0.9,4.6-2.3,6.4c-1.4,1.8-3.4,3.2-5.6,3.7c-0.1,0-0.2,0-0.3,0.1c0,0-1.2,0.3-4.4,0.8c-2,0.4-3.5,0.6-4.2,0.7
			c-0.1,0-0.3,0.1-0.4,0.1c-2.3,0.3-4.7-0.3-6.6-1.5c-2-1.2-3.6-3.1-4.4-5.3l0,0l-4.1-11.4c-0.4,0-0.7,0-1.1,0
			c-1.6,0.1-2.9,0.1-3.8,0.1c-0.9,0-2.2,0-3.8-0.1c-0.4,0-0.8,0-1.2,0l-4.1,11.4l0,0c-0.8,2.2-2.4,4-4.4,5.3c-2,1.2-4.3,1.8-6.6,1.5
			l0,0c0,0,0,0-0.1,0c0,0-1.8-0.2-4.5-0.7c-3.2-0.6-4.4-0.8-4.4-0.8l0,0c-0.1,0-0.1,0-0.2,0c-2.3-0.5-4.3-1.9-5.7-3.7
			c-1.4-1.8-2.3-4.1-2.3-6.4l0.1-12.1c-1.5-0.5-3.1-1-4.7-1.6c-1.5-0.6-3.1-1.2-4.6-1.8l-7.7,9.3c-1.5,1.8-3.6,3-5.9,3.5
			c-2.2,0.5-4.7,0.2-6.8-0.8l0,0c-0.2-0.1-1.7-0.9-4.1-2.3l0,0c-3.5-2-3.9-2.3-3.9-2.3l0,0c0,0-0.1,0-0.1-0.1
			c-2-1.3-3.4-3.3-4.1-5.5c-0.7-2.1-0.8-4.4,0-6.5c0-0.1,0.1-0.2,0.1-0.3l4.2-11.4l-0.1-0.1l-0.2-0.2l0,0c0,0,0,0,0,0l-0.6-0.5
			l-0.4-0.3c-0.1-0.1-0.2-0.1-0.3-0.2l-0.1-0.1l0,0c-0.8-0.6-0.4-0.3-0.7-0.5l-0.4-0.3c-0.1-0.1-0.2-0.1-0.3-0.2l-0.1-0.1l-0.7-0.6
			c-0.8-0.7,0.6,0.5-0.4-0.3c-0.1-0.1-0.2-0.1-0.3-0.2l-0.1-0.1l0,0c0,0,0,0,0,0c-0.1-0.1-0.3-0.3-0.7-0.6c-0.8-0.7-0.2-0.1-0.7-0.6
			l0,0c0,0,0,0,0,0l0,0c-1-0.9,0,0-0.6-0.6c-0.8-0.7,0.4,0.4-0.4-0.3c-0.1-0.1-0.2-0.2-0.3-0.2l-0.1-0.1l0,0
			c-0.1-0.1-0.2-0.2-0.3-0.2L49,236.9l0,0c-2,1.2-4.4,1.6-6.7,1.2c-2.2-0.3-4.3-1.3-5.9-2.9c-0.1-0.1-0.2-0.2-0.2-0.3
			c0,0-1-1.1-3-3.5c-1.3-1.5-2.2-2.7-2.6-3.2c-0.1-0.1-0.2-0.2-0.3-0.4c-1.4-1.9-2-4.2-2-6.5c0.1-2.3,0.9-4.6,2.4-6.4l10-11.8
			c0.4-0.5,0.8-0.9,1.4-1.2l6.1-3.5c-0.6-1-1.2-2-1.8-3c-0.6-1-1.1-2-1.7-3l-5.8,3.4c-0.4,0.3-0.9,0.5-1.4,0.7
			c-0.3,0.1-0.6,0.1-0.9,0.2l-14.8,2.7c-0.1,0-0.1,0-0.2,0c-2.3,0.4-4.7,0-6.7-1.1c-2-1.1-3.7-2.8-4.7-5l0,0c0,0,0,0,0,0
			c0,0-0.6-1.4-1.7-4.3c-0.7-1.8-1.2-3.3-1.4-3.9c-0.1-0.2-0.1-0.3-0.2-0.5c-0.7-2.2-0.5-4.7,0.4-6.8c0.8-2.1,2.4-4,4.4-5.2l10.5-6
			c-0.1-0.4-0.2-0.8-0.3-1.3c-0.3-1.7-0.6-3.3-0.9-4.9l0-0.3l0,0c0,0,0,0,0,0l0-0.2c0-0.1-0.1-0.3-0.1-0.4l0-0.3l0,0c0,0,0,0,0-0.1
			l-0.1-0.4l0,0c0,0,0,0,0,0l0-0.3l0-0.3l0,0c0,0,0,0,0,0l0,0l0-0.3l0,0c0,0,0,0,0,0l-0.1-0.5l0-0.2l0,0c0,0,0,0,0-0.1l0-0.1
			c0,0,0,0.1,0-0.3l-11.9-2l0,0c-2.3-0.4-4.4-1.7-5.9-3.4c-1.5-1.6-2.4-3.8-2.6-6c0-0.1,0-0.1,0-0.2c0,0-0.1-1.5-0.1-4.7
			c0-3.2,0.1-4.7,0.1-4.7l0,0c0.1-2.3,1.2-4.5,2.7-6.2c1.5-1.6,3.5-2.9,5.7-3.3c0.1,0,0.2,0,0.3-0.1l11.9-2l0.1-1.1
			c0-0.1,0-0.1,0-0.2l0.1-0.4c0-0.3,0-0.2,0.2-1.2l0.2-1c0-0.1,0-0.2,0-0.2l0.1-0.6c0.1-0.3,0-0.1,0.2-1c0.2-0.8,0.1-0.8,0.2-1
			l0.1-0.3c0-0.1,0-0.2,0-0.3l0.1-0.6l0,0c0,0,0,0,0,0l0.1-0.5c0-0.1,0-0.1,0-0.2l0.1-0.5c0-0.1,0-0.1,0-0.2c0-0.2,0.1-0.3,0.1-0.5
			l-10.5-6l0,0c-2-1.2-3.6-3.1-4.4-5.2c-0.8-2.1-1-4.6-0.4-6.8l0,0c0,0,0-0.1,0-0.1c0,0,0.6-1.8,1.5-4.3c0.8-2.1,1.3-3.4,1.5-4
			c0-0.1,0.1-0.2,0.1-0.3c0.9-2.1,2.6-3.9,4.7-5c2-1.1,4.4-1.5,6.7-1.1l11.9,2.2c0.2-0.4,0.2-0.4,0.3-0.5c0.3-0.6-0.1,0.3,0.6-1
			l0.2-0.3c0.6-1,0.5-0.9,0.6-1.1c0.2-0.4,0,0,0.5-0.8c0-0.1,0.1-0.2,0.1-0.3l0.1-0.2c0.3-0.5,0.5-0.9,0.6-1.1
			c0.3-0.6,0.6-0.9,0.7-1.1l0,0c0,0,0,0,0,0l0.1-0.2c0.4-0.6,0.8-1.3,1.1-1.8l-7.8-9.2l0,0c-1.5-1.8-2.3-4.1-2.4-6.4
			c-0.1-2.3,0.6-4.6,2-6.5l0,0c0,0,0,0,0,0c0,0,1.1-1.4,2.9-3.6c2-2.4,3-3.5,3-3.5l0,0c0,0,0,0,0.1-0.1c1.6-1.7,3.8-2.8,6.1-3.1
			c2.1-0.3,4.3,0,6.2,1c0.2,0.1,0.3,0.2,0.5,0.3L59.5,50c0,0,0,0,0.1-0.1c0.4-0.4,0.7-0.6,0.9-0.8l0.3-0.3l0,0c0,0,0,0,0,0
			c0.5-0.4,0.8-0.7,0.9-0.8c0.4-0.3,0.7-0.6,0.9-0.8l0,0c0,0,0,0,0,0l0.1-0.1c0.1-0.1,0.2-0.2,0.3-0.3l0.9-0.7
			c0.2-0.2,0.1,0,0.9-0.7l0.3-0.2c0,0,0.1-0.1,0.1-0.1c0.4-0.4,0.7-0.6,0.8-0.7l0,0c0,0,0,0,0,0c1.3-1,0,0,0.8-0.7l0,0c0,0,0,0,0,0
			l0.2-0.2l-4.2-11.4l0,0c-0.8-2.2-0.8-4.6,0-6.8c0.7-2,1.9-3.8,3.6-5.1c0.2-0.2,0.4-0.3,0.6-0.5c0,0,0.4-0.3,3.9-2.3
			c2.7-1.5,4.1-2.3,4.1-2.3c2.1-1,4.5-1.3,6.7-0.8c2.3,0.5,4.4,1.7,5.9,3.5l0,0l7.7,9.3c1.5-0.6,3.1-1.2,4.6-1.8
			c1.6-0.6,3.1-1.1,4.7-1.6l-0.1-12.1c0-2.2,0.8-4.3,2-6.1c0.1-0.1,0.2-0.2,0.3-0.4c1.4-1.8,3.4-3.1,5.6-3.7c0.1,0,0.2,0,0.3-0.1
			c0,0,1.2-0.3,4.4-0.8c2-0.4,3.6-0.6,4.2-0.7c0.1,0,0.3,0,0.4-0.1c2.1-0.2,4.3,0.3,6.2,1.3c0.2,0.1,0.3,0.2,0.5,0.3
			c1.9,1.2,3.5,3,4.3,5.3l5.2,14.6c0.2,0.6,0.4,1.2,0.4,1.8l0,7.1c1.3,0,2.5-0.1,3.4-0.1c1,0,2.1,0,3.4,0.1l0-6.7c0-0.1,0-0.3,0-0.4
			c0-0.7,0.2-1.5,0.5-2.1l5-13.9c0-0.1,0.1-0.3,0.1-0.4c0.8-2.2,2.4-4,4.4-5.2c2-1.2,4.3-1.8,6.6-1.5l0,0c0,0,0.1,0,0.1,0
			c0,0,1.8,0.2,4.5,0.7c3.2,0.6,4.4,0.8,4.4,0.8l0,0c0.1,0,0.1,0,0.2,0c2.3,0.5,4.3,1.9,5.7,3.7c1.4,1.8,2.3,4.1,2.3,6.4l0,0
			l-0.1,12.1c1.5,0.5,3.1,1,4.7,1.6c1.6,0.6,3.1,1.2,4.6,1.8l7.5-9c0.1-0.1,0.1-0.2,0.2-0.3c1.5-1.8,3.6-3,5.9-3.5
			c2.2-0.5,4.7-0.2,6.8,0.8l0,0c0.2,0.1,1.5,0.8,4.1,2.3c3.5,2,3.9,2.3,3.9,2.3l0,0c0,0,0.1,0.1,0.1,0.1c1.9,1.3,3.4,3.3,4.1,5.5
			c0.7,2,0.8,4.3,0.1,6.4c0,0.1-0.1,0.3-0.1,0.4l-4.2,11.4l0,0l0,0c0,0,0,0,0,0l1,0.8c0.8,0.6,0.9,0.7,1,0.8l0,0c0,0,0,0,0,0
			l0.1,0.1c0.8,0.7,0.9,0.7,1,0.8c0.1,0.1,0.5,0.4,1,0.9l0.1,0.1c0.2,0.1,0.5,0.4,1,0.9c0.1,0.1,0.4,0.3,0.8,0.7
			c0.1,0.1,0.2,0.1,0.2,0.2c0,0,0.1,0.1,0.1,0.1c0.2,0.2,0.6,0.5,1,0.9c0,0,0,0,0,0l10.5-6.1l0,0c2-1.2,4.4-1.6,6.7-1.2
			c2.2,0.3,4.3,1.3,5.9,2.9c0.1,0.1,0.2,0.2,0.2,0.3c0,0,1,1.1,3,3.5c1.4,1.7,2.4,2.9,2.8,3.4c0.1,0.1,0.1,0.1,0.2,0.2
			c1.4,1.9,2,4.2,2,6.5c-0.1,2.2-0.8,4.5-2.3,6.3c0,0-0.1,0.1-0.1,0.1l-7.8,9.2c0.1,0.2,0.2,0.4,0.4,0.6c0.6,1,1.3,2.1,2.1,3.5
			c0.1,0.1,0.1,0.2,0.2,0.2l0.1,0.1l0,0c0,0,0,0,0,0c0.6,1.1,0.4,0.7,0.7,1.1c0.1,0.2,0.1,0.2,0.6,1.1l0.2,0.3
			c0.7,1.2,0.3,0.6,0.6,1.1c0.1,0.1,0.1,0.2,0.3,0.5l11.9-2.2c2.3-0.4,4.7,0,6.7,1.1c2,1.1,3.7,2.8,4.7,5l0,0c0,0,0,0,0,0
			c0,0,0.6,1.4,1.7,4.3c0.7,1.8,1.2,3.3,1.4,3.9c0.1,0.1,0.1,0.3,0.2,0.5c0.7,2.2,0.5,4.7-0.4,6.8c-0.8,2.1-2.4,4-4.4,5.2l-10.5,6
			c0,0.1,0.1,0.3,0.2,1.1l0.3,1.3l0,0.1c0.3,1.8,0.7,3.6,0.9,5.4c0.1,0.6,0.2,1.2,0.3,1.8l11.9,2
			C277.1,126.5,279.2,127.7,280.8,129.5L280.8,129.5C280.8,129.5,280.8,129.5,280.8,129.5L280.8,129.5z M243.9,206.4
			c0-0.1,0-0.2,0-0.2h0L243.9,206.4z"/>
	</g>
</g>
</svg>
