<?xml version="1.0" encoding="UTF-8" standalone="no"?> <!-- Created with Vectornator (http://vectornator.io/) --><!DOCTYPE svg PUBLIC "-//W3C//DTD SVG 1.1//EN" "http://www.w3.org/Graphics/SVG/1.1/DTD/svg11.dtd">
<svg height="100%" stroke-miterlimit="10" style="fill-rule:nonzero;clip-rule:evenodd;stroke-linecap:round;stroke-linejoin:round;" version="1.1" viewBox="0 0 370 112" width="100%" xml:space="preserve" xmlns="http://www.w3.org/2000/svg" xmlns:vectornator="http://vectornator.io" xmlns:xlink="http://www.w3.org/1999/xlink">
<metadata>
<vectornator:setting key="IsTimeLapseWatermarkDisabled" value="false"/>
<vectornator:setting key="UndoHistoryDisabled" value="true"/>
<vectornator:setting key="VNDimensionsVisible" value="true"/>
<vectornator:setting key="VNSnapToGuides" value="true"/>
<vectornator:setting key="WDCMYKEnabledKey" value="false"/>
<vectornator:setting key="WDDisplayWhiteBackground" value="false"/>
<vectornator:setting key="WDDynamicGuides" value="false"/>
<vectornator:setting key="WDGuidesVisible" value="true"/>
<vectornator:setting key="WDIsolateActiveLayer" value="false"/>
<vectornator:setting key="WDOutlineMode" value="false"/>
<vectornator:setting key="WDRulersVisible" value="true"/>
<vectornator:setting key="WDSnapToEdges" value="false"/>
<vectornator:setting key="WDSnapToGrid" value="false"/>
<vectornator:setting key="WDSnapToPoints" value="false"/>
<vectornator:setting key="WDUnits" value="Points"/>
</metadata>
<defs/>
<g id="Untitled" vectornator:layerName="Untitled">
<path d="M16.3 10.7L9.79995 10.7L9.79995 28.1L5.69995 28.1L5.69995 7L20.4 7L20.4 28.1L16.3 28.1L16.3 10.7Z" fill="#1d1e1c" fill-rule="evenodd" opacity="0" stroke="#ffffff" stroke-linecap="butt" stroke-linejoin="miter" stroke-width="6"/>
<path d="M34.1999 23.4L27.8999 23.4L26.4999 28.1L22.3999 28.1L29.1999 7L33.2999 7L40.0999 28.1L35.7999 28.1L34.1999 23.4ZM28.7999 20.1L33.2999 20.1L31.1999 13L30.8999 13L28.7999 20.1Z" fill="#1d1e1c" fill-rule="evenodd" opacity="0" stroke="#ffffff" stroke-linecap="butt" stroke-linejoin="miter" stroke-width="6"/>
<path d="M42.5999 7.20001C43.3999 7.00001 44.2 6.90001 45.2 6.80001C46.2 6.70001 47.2 6.70001 48.2 6.70001C49.2 6.70001 50.3 6.80001 51.4 7.00001C52.5 7.20001 53.4 7.50001 54.3 8.00001C55.1 8.50001 55.8 9.20001 56.4 10.1C56.9 11 57.2 12.2 57.2 13.7C57.2 15 57 16.1 56.5 17C56 17.9 55.4 18.7 54.7 19.3C53.9 19.9 53.1 20.3 52.1 20.6C51.1 20.9 50.1 21 49.1 21C49 21 48.8 21 48.6 21C48.4 21 48.1 21 47.9 21C47.7 21 47.4 21 47.2 21C47 21 46.8 21 46.7 20.9L46.7 28.2L42.6 28.2L42.5999 7.20001ZM48.5 10.2C48.1 10.2 47.7 10.2 47.4 10.2C47 10.2 46.7 10.3 46.5 10.3L46.5 17.2C46.6 17.2 46.7 17.2 46.9 17.3C47.1 17.3 47.2 17.3 47.4 17.3C47.6 17.3 47.8 17.3 47.9 17.3C48.1 17.3 48.2 17.3 48.3 17.3C48.8 17.3 49.4 17.3 49.9 17.2C50.4 17.1 50.9 16.9 51.3 16.6C51.7 16.3 52.1 15.9 52.3 15.5C52.6 15 52.7 14.4 52.7 13.6C52.7 12.9 52.6 12.4 52.3 12C52.1 11.6 51.7 11.2 51.3 11C50.9 10.7 50.5 10.6 50 10.5C49.6 10.3 49.1 10.2 48.5 10.2Z" fill="#1d1e1c" fill-rule="evenodd" opacity="0" stroke="#ffffff" stroke-linecap="butt" stroke-linejoin="miter" stroke-width="6"/>
<path d="M65.9999 19.3L63.8999 19.3L63.8999 28.1L59.7999 28.1L59.7999 7L63.8999 7L63.8999 15.6L65.9999 15.6L70.7999 7L75.4999 7L69.5999 17.2L76.2999 28.1L71.1999 28.1L65.9999 19.3Z" fill="#1d1e1c" fill-rule="evenodd" opacity="0" stroke="#ffffff" stroke-linecap="butt" stroke-linejoin="miter" stroke-width="6"/>
<path d="M91.2 6.99999L91.2 13.7C91.2 14.9 91.4 15.8 91.9 16.4C92.4 17 93.2 17.3 94.2 17.3C95 17.3 95.7 17.2 96.4 17C97.1 16.8 97.6 16.6 98 16.2L98 6.89999L102.1 6.89999L102.1 28L98 28L98 19.5C97.5 19.8 96.8 20.1 95.9 20.3C95 20.6 94 20.7 92.8 20.7C92 20.7 91.2 20.6 90.5 20.4C89.8 20.2 89.2 19.8 88.7 19.4C88.2 18.9 87.8 18.3 87.5 17.6C87.2 16.9 87.1 16 87.1 14.9L87.1 6.89999L91.2 6.99999Z" fill="#1d1e1c" fill-rule="evenodd" opacity="0" stroke="#ffffff" stroke-linecap="butt" stroke-linejoin="miter" stroke-width="6"/>
<path d="M112.6 18.1L114.1 18.1L117.1 7L121.4 7L116.6 22.6C116.3 23.5 116 24.3 115.7 25C115.4 25.7 115 26.3 114.5 26.8C114 27.3 113.5 27.7 112.8 27.9C112.1 28.2 111.3 28.3 110.4 28.3C109.8 28.3 109.3 28.2 108.8 28.1C108.3 28 107.8 27.8 107.3 27.5L108.4 24.2C108.8 24.4 109.1 24.5 109.3 24.6C109.6 24.7 109.9 24.7 110.2 24.7C110.6 24.7 111 24.6 111.3 24.5C111.6 24.4 111.8 24.2 112 24C112.2 23.8 112.4 23.5 112.5 23.1C112.6 22.7 112.8 22.3 112.9 21.9L109.9 21.9L104 7.1L108.4 7.1L112.6 18.1Z" fill="#1d1e1c" fill-rule="evenodd" opacity="0" stroke="#ffffff" stroke-linecap="butt" stroke-linejoin="miter" stroke-width="6"/>
<path d="M139.6 32.2L136 32.2L136 28.1L125.5 28.1L125.5 32.2L121.9 32.2L121.9 24.4L123.7 24.4C123.9 24 124.1 23.4 124.4 22.7C124.7 21.9 125 20.9 125.2 19.6C125.5 18.3 125.7 16.7 125.8 14.8C126 12.9 126 10.6 125.9 7.9L125.9 7L137.3 7L137.3 24.4L139.5 24.4L139.5 32.2L139.6 32.2ZM133.3 24.4L133.3 10.6L129.7 10.6C129.7 12.4 129.6 14 129.5 15.4C129.4 16.8 129.2 18.1 129.1 19.3C128.9 20.4 128.7 21.4 128.5 22.3C128.3 23.1 128.1 23.8 127.8 24.4L133.3 24.4Z" fill="#1d1e1c" fill-rule="evenodd" opacity="0" stroke="#ffffff" stroke-linecap="butt" stroke-linejoin="miter" stroke-width="6"/>
<path d="M142 7L155.9 7L155.9 10.7L146.2 10.7L146.2 15.6L155.2 15.6L155.2 19.3L146.2 19.3L146.2 24.5L156.1 24.5L156.1 28.2L142.1 28.2L142 7Z" fill="#1d1e1c" fill-rule="evenodd" opacity="0" stroke="#ffffff" stroke-linecap="butt" stroke-linejoin="miter" stroke-width="6"/>
<path d="M171.3 21L174.6 21L174.6 27C174 27.5 173.1 27.8 172.1 28.1C171.1 28.4 170.1 28.5 169 28.5C167.7 28.5 166.4 28.3 165.2 27.9C164 27.5 162.9 26.9 162 26C161.1 25.1 160.4 24 159.8 22.6C159.3 21.2 159 19.5 159 17.5C159 15.4 159.3 13.7 159.9 12.3C160.5 10.9 161.3 9.8 162.3 8.9C163.3 8 164.3 7.4 165.5 7.1C166.7 6.7 167.9 6.5 169 6.5C170.2 6.5 171.2 6.6 172.1 6.8C172.9 7 173.6 7.2 174.2 7.5L174.2 13.8L170.9 13.8L170.9 10.4C170.3 10.3 169.6 10.2 169 10.2C168.2 10.2 167.5 10.3 166.8 10.6C166.1 10.9 165.5 11.3 165 11.9C164.5 12.5 164.1 13.3 163.8 14.2C163.5 15.1 163.4 16.2 163.4 17.4C163.4 18.5 163.5 19.5 163.8 20.4C164.1 21.3 164.4 22.1 164.9 22.7C165.4 23.3 166 23.8 166.7 24.2C167.4 24.5 168.3 24.7 169.2 24.7C169.9 24.7 170.5 24.6 171.1 24.5L171.1 21L171.3 21Z" fill="#1d1e1c" fill-rule="evenodd" opacity="0" stroke="#ffffff" stroke-linecap="butt" stroke-linejoin="miter" stroke-width="6"/>
<path d="M94.4 46.2L94.4 51.1L104.3 51.1L104.3 56L94.4 56L94.4 60.9L104.3 60.9C104.3 63.1 104.3 66.9 104.3 67.4C104.2 69.8 104.1 72 103.8 75C102.8 82.5 100.5 86.1 98.8 87.8C96.8 89.8 93.7 90.8 89.6 90.8L86.6 90.8L74.8 63.8L67.1 46.3L59.7 46.3L43.1 84.3L31.5 84.3L37.4 97.2L34.3 104.4L50.3 104.4L53.4 97.4L73.5 97.4L76.6 104.4C76.6 104.4 81.4 104.4 83 104.4C86.4 104.4 91.3 104.4 92 104.4C97.3 104.4 105 102.8 109.9 97.2C114.3 92.3 118.5 85.5 119 61L129 61L129 104.4L143.6 104.4L143.6 46.3L94.4 46.2ZM58.9 84.2L63.3 74.2L67.7 84.2L58.9 84.2Z" fill="#1d1e1c" fill-rule="evenodd" opacity="1" stroke="#ffffff" stroke-linecap="butt" stroke-linejoin="miter" stroke-width="6"/>
<path d="M255.3 104.2L255.3 46.1L206.3 46.1L206.3 51L216.2 51L216.2 55.9L206.3 55.9L206.3 60.8L216.2 60.8C216.2 61.3 216.1 62.9 216.1 62.9C215.9 70.1 215.6 82.1 209.7 87.1C207.1 89.3 203.5 89.6 201 89.6C200.8 89.6 200.5 89.6 200.2 89.6L200.2 46.1L185.6 46.1L164.1 78L164.1 73.4L159.2 73.4L159.2 68.5L164.1 68.5L164.1 65.6L159.2 65.6L159.2 60.7L164.1 60.7L164.1 46.1L149.5 46.1L149.5 60.7L154.4 60.7L154.4 65.6L149.5 65.6L149.5 68.5L154.4 68.5L154.4 73.4L149.5 73.4L149.5 104.2L163.5 104.2L185.6 72.3L185.6 104.2L196.3 104.2C196.3 104.2 200.6 104.2 200.8 104.2C205.9 104.1 213.5 103.5 219.8 98.3C224.5 94.4 230.3 85 230.8 62.7L230.9 60.8L240.6 60.8L240.6 104.2L255.3 104.2Z" fill="#1d1e1c" fill-rule="evenodd" opacity="1" stroke="#ffffff" stroke-linecap="butt" stroke-linejoin="miter" stroke-width="6"/>
<path d="M275.9 89.6L275.9 79.3L299.3 79.3L299.3 68.6L275.9 68.6L275.9 60.8L302.2 60.8L302.2 46.2L261.2 46.2C261.2 46.2 261.2 94.2 261.2 95.9C261.2 101.8 264.9 104.2 270.5 104.2L303.9 104.2L303.9 89.6L275.9 89.6Z" fill="#1d1e1c" fill-rule="evenodd" opacity="1" stroke="#ffffff" stroke-linecap="butt" stroke-linejoin="miter" stroke-width="6"/>
<path d="M252.4 51.1L231 51.1L231 56L252.4 56L252.4 51.1Z" fill="#ffda00" fill-rule="evenodd" opacity="1" stroke="#ffffff" stroke-linecap="butt" stroke-linejoin="miter" stroke-width="6"/>
<path d="M228 51.1L219.1 51.1L219.1 56L228 56L228 51.1Z" fill="#e63323" fill-rule="evenodd" opacity="1" stroke="#ffffff" stroke-linecap="butt" stroke-linejoin="miter" stroke-width="6"/>
<path d="M250.1 63.2C250.1 64.4 249.1 65.3 248 65.3C246.8 65.3 245.9 64.3 245.9 63.2C245.9 62 246.9 61.1 248 61.1C249.1 61.1 250.1 62 250.1 63.2Z" fill="#ffffff" fill-rule="evenodd" opacity="1" stroke="#ffffff" stroke-linecap="butt" stroke-linejoin="miter" stroke-width="6"/>
<path d="M250.1 73C250.1 74.2 249.1 75.1 248 75.1C246.8 75.1 245.9 74.1 245.9 73C245.9 71.8 246.9 70.9 248 70.9C249.1 70.8 250.1 71.8 250.1 73Z" fill="#ffffff" fill-rule="evenodd" opacity="1" stroke="#ffffff" stroke-linecap="butt" stroke-linejoin="miter" stroke-width="6"/>
<path d="M252.4 82.2L243.6 82.2L243.6 90.3L252.4 90.3L252.4 82.2Z" fill="#ffda00" fill-rule="evenodd" opacity="1" stroke="#ffffff" stroke-linecap="butt" stroke-linejoin="miter" stroke-width="6"/>
<path d="M252.4 93.3L243.6 93.3L243.6 101.4L252.4 101.4L252.4 93.3Z" fill="#e63323" fill-rule="evenodd" opacity="1" stroke="#ffffff" stroke-linecap="butt" stroke-linejoin="miter" stroke-width="6"/>
<path d="M138.6 60.8L133.7 60.8L133.7 101.3L138.6 101.3L138.6 60.8Z" fill="#ffda00" fill-rule="evenodd" opacity="1" stroke="#ffffff" stroke-linecap="butt" stroke-linejoin="miter" stroke-width="6"/>
<path d="M116 51.1L107.2 51.1L107.2 60.8L116 60.8L116 51.1Z" fill="#ffda00" fill-rule="evenodd" opacity="1" stroke="#ffffff" stroke-linecap="butt" stroke-linejoin="miter" stroke-width="6"/>
<path d="M5.69995 46.2L5.69995 104.2L20.3 104.2L20.3 60.8L46.5999 60.8L46.5999 46.2L5.69995 46.2Z" fill="#1d1e1c" fill-rule="evenodd" opacity="1" stroke="#ffffff" stroke-linecap="butt" stroke-linejoin="miter" stroke-width="6"/>
<path d="M42 55.9L15.4 55.9L15.4 75.2L10.5 75.2L10.5 51.1L42 51.1L42 55.9Z" fill="#ffda00" fill-rule="evenodd" opacity="1" stroke="#ffffff" stroke-linecap="butt" stroke-linejoin="miter" stroke-width="6"/>
<path d="M15.1 84.9C15.1 86.1 14.1 87 13 87C11.8 87 10.9 86 10.9 84.9C10.9 83.7 11.9 82.8 13 82.8C14.2 82.7 15.1 83.7 15.1 84.9Z" fill="#ffffff" fill-rule="evenodd" opacity="1" stroke="#ffffff" stroke-linecap="butt" stroke-linejoin="miter" stroke-width="6"/>
<path d="M15.1 94.6C15.1 95.8 14.1 96.7 13 96.7C11.8 96.7 10.9 95.7 10.9 94.6C10.9 93.4 11.9 92.5 13 92.5C14.2 92.5 15.1 93.4 15.1 94.6Z" fill="#ffffff" fill-rule="evenodd" opacity="1" stroke="#ffffff" stroke-linecap="butt" stroke-linejoin="miter" stroke-width="6"/>
<path d="M155.4 76.4L152.4 76.4L152.4 95.4L155.4 91.1L155.4 76.4Z" fill="#ffda00" fill-rule="evenodd" opacity="1" stroke="#ffffff" stroke-linecap="butt" stroke-linejoin="miter" stroke-width="6"/>
<path d="M161.2 76.4L158.3 76.4L158.3 86.8L161.2 82.4L161.2 76.4Z" fill="#ffda00" fill-rule="evenodd" opacity="1" stroke="#ffffff" stroke-linecap="butt" stroke-linejoin="miter" stroke-width="6"/>
<path d="M226 60.8L221.1 60.8C220.8 69.9 221 83.2 213.5 90.2C210.3 93.2 205.5 94.3 201 94.3C197.7 94.3 195.4 94.3 195.4 94.3L195.4 51.1L190.5 51.1L190.5 99.4L196.8 99.4C197.1 99.4 200.3 99.4 200.3 99.4C205.4 99.3 212.9 97.9 217.4 93.4C225.3 85.6 225.7 71.7 226 60.8Z" fill="#ffda00" fill-rule="evenodd" opacity="1" stroke="#ffffff" stroke-linecap="butt" stroke-linejoin="miter" stroke-width="6"/>
<path d="M158.3 101.3L161.9 101.3L185.7 66.6L185.7 61.4L158.3 101.3Z" fill="#ffda00" fill-rule="evenodd" opacity="1" stroke="#ffffff" stroke-linecap="butt" stroke-linejoin="miter" stroke-width="6"/>
<path d="M195.1 97.2C195.1 98.4 194.1 99.3 193 99.3C191.8 99.3 190.9 98.3 190.9 97.2C190.9 96 191.9 95.1 193 95.1C194.2 95 195.1 96 195.1 97.2Z" fill="#1d1e1c" fill-rule="evenodd" opacity="1" stroke="#ffffff" stroke-linecap="butt" stroke-linejoin="miter" stroke-width="6"/>
<path d="M202.6 96.9C202.6 98.1 201.6 99 200.5 99C199.3 99 198.4 98 198.4 96.9C198.4 95.7 199.4 94.8 200.5 94.8C201.7 94.7 202.6 95.7 202.6 96.9Z" fill="#1d1e1c" fill-rule="evenodd" opacity="1" stroke="#ffffff" stroke-linecap="butt" stroke-linejoin="miter" stroke-width="6"/>
<path d="M210.1 95.8C210.1 97 209.1 97.9 208 97.9C206.8 97.9 205.9 96.9 205.9 95.8C205.9 94.6 206.9 93.7 208 93.7C209.2 93.7 210.1 94.6 210.1 95.8Z" fill="#1d1e1c" fill-rule="evenodd" opacity="1" stroke="#ffffff" stroke-linecap="butt" stroke-linejoin="miter" stroke-width="6"/>
<path d="M109.3 76.4C107.6 85.6 105.2 90.4 99.4999 93.6C95.6999 95.8 89.7999 95.9 85.5999 95.9L71.4999 63.7L68.2999 63.7L84.7999 101.3C84.7999 101.3 89.1999 101.3 89.4999 101.3C94.7999 101.3 102.1 100.5 107.5 94.8C110.6 91.4 113.3 87.1 115 76.4L109.3 76.4Z" fill="#ffda00" fill-rule="evenodd" opacity="1" stroke="#ffffff" stroke-linecap="butt" stroke-linejoin="miter" stroke-width="6"/>
<path d="M70.2999 60.8L65.9999 51.1L60.6999 51.1L56.3999 60.8L70.2999 60.8Z" fill="#ffda00" fill-rule="evenodd" opacity="1" stroke="#ffffff" stroke-linecap="butt" stroke-linejoin="miter" stroke-width="6"/>
<path d="M48.1 88.6C46.9 88.6 46 89.6 46 90.7C46 91.9 47 92.8 48.1 92.8C49.3 92.8 50.2 91.8 50.2 90.7C50.2 89.5 49.3 88.6 48.1 88.6Z" fill="#ffffff" fill-rule="evenodd" opacity="1" stroke="#ffffff" stroke-linecap="butt" stroke-linejoin="miter" stroke-width="6"/>
<path d="M56.9001 88.6C55.7001 88.6 54.8 89.6 54.8 90.7C54.8 91.9 55.8001 92.8 56.9001 92.8C58.1001 92.8 59 91.8 59 90.7C59.1 89.5 58.1001 88.6 56.9001 88.6Z" fill="#ffffff" fill-rule="evenodd" opacity="1" stroke="#ffffff" stroke-linecap="butt" stroke-linejoin="miter" stroke-width="6"/>
<path d="M65.8 88.6C64.6 88.6 63.7 89.6 63.7 90.7C63.7 91.9 64.7 92.8 65.8 92.8C67 92.8 67.9 91.8 67.9 90.7C67.9 89.5 66.9 88.6 65.8 88.6Z" fill="#ffffff" fill-rule="evenodd" opacity="1" stroke="#ffffff" stroke-linecap="butt" stroke-linejoin="miter" stroke-width="6"/>
<path d="M50 75.4L46.2 84.2L55.9 84.2L59.7999 75.4L50 75.4Z" fill="#ffda00" fill-rule="evenodd" opacity="1" stroke="#ffffff" stroke-linecap="butt" stroke-linejoin="miter" stroke-width="6"/>
<path d="M61.0999 72.5L64.8999 63.7L55.0999 63.7L51.2999 72.5L61.0999 72.5Z" fill="#e63323" fill-rule="evenodd" opacity="1" stroke="#ffffff" stroke-linecap="butt" stroke-linejoin="miter" stroke-width="6"/>
<path d="M115.9 63.7L107.1 63.7C107.1 65.4 107.1 67 107.1 67.3C107 69.3 107 71.2 106.7 73.5L115.2 73.5C115.6 70.6 115.8 67.4 115.9 63.7Z" fill="#e63323" fill-rule="evenodd" opacity="1" stroke="#ffffff" stroke-linecap="butt" stroke-linejoin="miter" stroke-width="6"/>
<path d="M273.1 60.8L267.2 60.8L267.2 89.6L273.1 89.6L273.1 60.8Z" fill="#ffda00" fill-rule="evenodd" opacity="1" stroke="#ffffff" stroke-linecap="butt" stroke-linejoin="miter" stroke-width="6"/>
<path d="M296.5 73.5L276 73.5L276 76.4L296.5 76.4L296.5 73.5Z" fill="#ffda00" fill-rule="evenodd" opacity="1" stroke="#ffffff" stroke-linecap="butt" stroke-linejoin="miter" stroke-width="6"/>
<path d="M278.9 94.8C277.7 94.8 276.8 95.8 276.8 96.9C276.8 98.1 277.8 99 278.9 99C280.1 99 281 98 281 96.9C281 95.8 280.1 94.8 278.9 94.8Z" fill="#ffffff" fill-rule="evenodd" opacity="1" stroke="#ffffff" stroke-linecap="butt" stroke-linejoin="miter" stroke-width="6"/>
<path d="M287.7 94.8C286.5 94.8 285.6 95.8 285.6 96.9C285.6 98.1 286.6 99 287.7 99C288.9 99 289.8 98 289.8 96.9C289.8 95.8 288.8 94.8 287.7 94.8Z" fill="#ffffff" fill-rule="evenodd" opacity="1" stroke="#ffffff" stroke-linecap="butt" stroke-linejoin="miter" stroke-width="6"/>
<path d="M296.4 94.8C295.2 94.8 294.3 95.8 294.3 96.9C294.3 98.1 295.3 99 296.4 99C297.5 99 298.5 98 298.5 96.9C298.6 95.8 297.6 94.8 296.4 94.8Z" fill="#ffffff" fill-rule="evenodd" opacity="1" stroke="#ffffff" stroke-linecap="butt" stroke-linejoin="miter" stroke-width="6"/>
<path d="M299.3 51.1L284.7 51.1L284.7 56L299.3 56L299.3 51.1Z" fill="#e63323" fill-rule="evenodd" opacity="1" stroke="#ffffff" stroke-linecap="butt" stroke-linejoin="miter" stroke-width="6"/>
<path d="M281.8 51.1L267.2 51.1L267.2 56L281.8 56L281.8 51.1Z" fill="#ffda00" fill-rule="evenodd" opacity="1" stroke="#ffffff" stroke-linecap="butt" stroke-linejoin="miter" stroke-width="6"/>
<path d="M126.4 51.3C127.6 51.3 128.5 52.3 128.5 53.4C128.5 54.6 127.5 55.5 126.4 55.5C125.2 55.5 124.3 54.5 124.3 53.4C124.3 52.3 125.2 51.3 126.4 51.3Z" fill="#ffffff" fill-rule="evenodd" opacity="1" stroke="#ffffff" stroke-linecap="butt" stroke-linejoin="miter" stroke-width="6"/>
<path d="M136.1 51.3C137.3 51.3 138.2 52.3 138.2 53.4C138.2 54.6 137.2 55.5 136.1 55.5C134.9 55.5 134 54.5 134 53.4C134 52.3 135 51.3 136.1 51.3Z" fill="#ffffff" fill-rule="evenodd" opacity="1" stroke="#ffffff" stroke-linecap="butt" stroke-linejoin="miter" stroke-width="6"/>
<path d="M333.5 45.4C317.1 45.4 303.7 58.7 303.7 75.2C303.7 91.6 317 105 333.5 105C349.9 105 363.3 91.7 363.3 75.2C363.3 58.8 350 45.4 333.5 45.4ZM351.6 62.3C352.6 61.7 353.9 62.1 354.5 63.1C355.1 64.1 354.7 65.4 353.7 66C352.7 66.6 351.4 66.2 350.8 65.2C350.2 64.2 350.6 62.9 351.6 62.3ZM342.7 55C343.3 54 344.6 53.6 345.6 54.2C346.6 54.8 347 56.1 346.4 57.1C345.8 58.1 344.5 58.5 343.5 57.9C342.5 57.3 342.1 56 342.7 55ZM333.5 51C334.7 51 335.6 52 335.6 53.1C335.6 54.3 334.6 55.2 333.5 55.2C332.3 55.2 331.4 54.2 331.4 53.1C331.4 51.9 332.4 51 333.5 51ZM333.5 66.6C337.6 66.6 341.1 69.4 342 73.4L342.2 75.6C342.1 80.3 338.2 84.1 333.5 84.1C328.7 84.1 324.9 80.3 324.8 75.6L325 73.4C325.9 69.4 329.4 66.6 333.5 66.6ZM332.1 64.5L332.1 60.9C332.6 60.9 333.1 60.8 333.6 60.8C334.1 60.8 334.6 60.8 335.1 60.9L335.1 64.5C334.6 64.4 334.1 64.4 333.6 64.4C333 64.4 332.5 64.4 332.1 64.5ZM321.4 54.2C322.4 53.6 323.7 54 324.3 55C324.9 56 324.5 57.3 323.5 57.9C322.5 58.5 321.2 58.1 320.6 57.1C320 56.1 320.4 54.8 321.4 54.2ZM333.5 89.6C325.5 89.6 319.1 83.1 319.1 75.2C319.1 68.5 323.7 62.9 329.9 61.3L329.9 65.1C325.7 66.6 322.6 70.6 322.6 75.4C322.6 81.4 327.5 86.3 333.5 86.3C339.5 86.3 344.4 81.4 344.4 75.4C344.4 70.7 341.4 66.6 337.1 65.1L337.1 61.3C343.3 62.9 347.9 68.5 347.9 75.2C348 83.2 341.5 89.6 333.5 89.6ZM354.5 87.3C353.9 88.3 352.6 88.7 351.6 88.1C350.6 87.5 350.2 86.2 350.8 85.2C351.4 84.2 352.7 83.8 353.7 84.4C354.8 85 355.1 86.3 354.5 87.3ZM355.6 77.3C354.4 77.3 353.5 76.3 353.5 75.2C353.5 74 354.5 73.1 355.6 73.1C356.8 73.1 357.7 74.1 357.7 75.2C357.8 76.4 356.8 77.3 355.6 77.3Z" fill="#1d1e1c" fill-rule="evenodd" opacity="1" stroke="#ffffff" stroke-linecap="butt" stroke-linejoin="miter" stroke-width="6"/>
<path d="M333.5 95.3C322.4 95.3 313.4 86.3 313.4 75.2C313.4 70.2 315.3 65.6 318.3 62.1L315.1 58.9C311.2 63.3 308.9 69 308.9 75.3C308.9 88.9 320 99.9 333.5 99.9C339.8 99.9 345.5 97.5 349.8 93.7L346.6 90.5C343.1 93.4 338.5 95.3 333.5 95.3Z" fill="#ffda00" fill-rule="evenodd" opacity="1" stroke="#ffffff" stroke-linecap="butt" stroke-linejoin="miter" stroke-width="6"/>
<path d="M329.2 79.9C329.4 80.3 329.7 80.6 330.2 80.6C330.6 80.6 331 80.3 331.2 79.9L333.6 74.2L335.9 79.9C336.1 80.3 336.5 80.6 336.9 80.6C337.3 80.6 337.7 80.3 337.9 79.9L339.5 75.5L342.3 75.5L342.1 73.3L338.8 73.3C338.3 73.3 337.9 73.6 337.8 74L336.9 76.5L334.7 71C334.5 70.6 334.2 70.3 333.7 70.3C333.2 70.3 332.9 70.6 332.7 71L330.3 76.6L329.4 74C329.2 73.6 328.8 73.3 328.4 73.3L325.1 73.3L324.9 75.5L327.7 75.5L329.2 79.9Z" fill="#e63323" fill-rule="evenodd" opacity="1" stroke="#ffffff" stroke-linecap="butt" stroke-linejoin="miter" stroke-width="6"/>
<path d="M16.3 10.7L9.79995 10.7L9.79995 28.1L5.69995 28.1L5.69995 7L20.4 7L20.4 28.1L16.3 28.1" fill="#1d1e1c" fill-rule="evenodd" opacity="1" stroke="none"/>
<path d="M34.1999 23.4L27.8999 23.4L26.4999 28.1L22.3999 28.1L29.1999 7L33.2999 7L40.0999 28.1L35.7999 28.1L34.1999 23.4ZM28.7999 20.1L33.2999 20.1L31.1999 13L30.8999 13L28.7999 20.1Z" fill="#1d1e1c" fill-rule="evenodd" opacity="1" stroke="none"/>
<path d="M43 7C43.8 6.8 44.2 6.90001 45.2 6.80001C46.2 6.70001 47.2 6.70001 48.2 6.70001C49.2 6.70001 50.3 6.80001 51.4 7.00001C52.5 7.20001 53.4 7.50001 54.3 8.00001C55.1 8.50001 55.8 9.20001 56.4 10.1C56.9 11 57.2 12.2 57.2 13.7C57.2 15 57 16.1 56.5 17C56 17.9 55.4 18.7 54.7 19.3C53.9 19.9 53.1 20.3 52.1 20.6C51.1 20.9 50.1 21 49.1 21C49 21 48.8 21 48.6 21C48.4 21 48.1 21 47.9 21C47.7 21 47.4 21 47.2 21C47 21 46.8 21 46.7 20.9L46.7 28.2L42.6 28.2L42.6 7.20001L43 7ZM48.5 10.3C48.1 10.3 47.7 10.3 47.4 10.3C47 10.3 46.7 10.3 46.5 10.3L46.5 17.2C46.6 17.2 46.7 17.2 46.9 17.3C47.1 17.3 47.2 17.3 47.4 17.3C47.6 17.3 47.8 17.3 47.9 17.3C48.1 17.3 48.2 17.3 48.3 17.3C48.8 17.3 49.4 17.3 49.9 17.2C50.4 17.1 50.9 16.9 51.3 16.6C51.7 16.3 52.1 15.9 52.3 15.5C52.6 15 52.7 14.4 52.7 13.6C52.7 12.9 52.6 12.4 52.3 12C52.1 11.6 51.7 11.2 51.3 11C50.9 10.7 50.5 10.6 50 10.5C49.6 10.3 49.1 10.3 48.5 10.3Z" fill="#1d1e1c" fill-rule="evenodd" opacity="1" stroke="none"/>
<path d="M71.1999 28.1L76.2999 28.1L69.5999 17.2L75.4999 7L70.7999 7L65.9999 15.6L63.8999 15.6L63.8999 7L59.7999 7L59.7999 28.1L63.8999 28.1L63.8999 19.3L65.9999 19.3L71.1999 28.1Z" fill="#1d1e1c" fill-rule="evenodd" opacity="1" stroke="none"/>
<path d="M91.2 6.99999L91.2 13.7C91.2 14.9 91.4 15.8 91.9 16.4C92.4 17 93.2 17.3 94.2 17.3C95 17.3 95.7 17.2 96.4 17C97.1 16.8 97.6 16.6 98 16.2L98 6.89999L102.1 6.89999L102.1 28L98 28L98 19.5C97.5 19.8 96.8 20.1 95.9 20.3C95 20.6 94 20.7 92.8 20.7C92 20.7 91.2 20.6 90.5 20.4C89.8 20.2 89.2 19.8 88.7 19.4C88.2 18.9 87.8 18.3 87.5 17.6C87.2 16.9 87.1 16 87.1 14.9L87.1 6.89999L91.2 6.99999Z" fill="#1d1e1c" fill-rule="evenodd" opacity="1" stroke="none"/>
<path d="M112.6 18.1L114.1 18.1L117.1 7L121.4 7L116.6 22.6C116.3 23.5 116 24.3 115.7 25C115.4 25.7 115 26.3 114.5 26.8C114 27.3 113.5 27.7 112.8 27.9C112.1 28.2 111.3 28.3 110.4 28.3C109.8 28.3 109.3 28.2 108.8 28.1C108.3 28 107.8 27.8 107.3 27.5L108.4 24.2C108.8 24.4 109.1 24.5 109.3 24.6C109.6 24.7 109.9 24.7 110.2 24.7C110.6 24.7 111 24.6 111.3 24.5C111.6 24.4 111.8 24.2 112 24C112.2 23.8 112.4 23.5 112.5 23.1C112.6 22.7 112.8 22.3 112.9 21.9L109.9 21.9L104 7.1L108.4 7.1L112.6 18.1Z" fill="#1d1e1c" fill-rule="evenodd" opacity="1" stroke="none"/>
<path d="M139.6 32.2L136 32.2L136 28.1L125.5 28.1L125.5 32.2L121.9 32.2L121.9 24.4L123.7 24.4C123.9 24 124.1 23.4 124.4 22.7C124.7 21.9 125 20.9 125.2 19.6C125.5 18.3 125.7 16.7 125.8 14.8C126 12.9 126 10.6 125.9 7.9L125.9 7L137.3 7L137.3 24.4L139.5 24.4L139.5 32.2L139.6 32.2ZM133.3 24.4L133.3 10.6L129.7 10.6C129.7 12.4 129.6 14 129.5 15.4C129.4 16.8 129.2 18.1 129.1 19.3C128.9 20.4 128.7 21.4 128.5 22.3C128.3 23.1 128.1 23.8 127.8 24.4L133.3 24.4Z" fill="#1d1e1c" fill-rule="evenodd" opacity="1" stroke="none"/>
<path d="M142 7L155.9 7L155.9 10.7L146.2 10.7L146.2 15.6L155.2 15.6L155.2 19.3L146.2 19.3L146.2 24.5L156.1 24.5L156.1 28.2L142.1 28.2L142 7Z" fill="#1d1e1c" fill-rule="evenodd" opacity="1" stroke="none"/>
<path d="M171.3 21L174.6 21L174.6 27C174 27.5 173.1 27.8 172.1 28.1C171.1 28.4 170.1 28.5 169 28.5C167.7 28.5 166.4 28.3 165.2 27.9C164 27.5 162.9 26.9 162 26C161.1 25.1 160.4 24 159.8 22.6C159.3 21.2 159 19.5 159 17.5C159 15.4 159.3 13.7 159.9 12.3C160.5 10.9 161.3 9.8 162.3 8.9C163.3 8 164.3 7.4 165.5 7.1C166.7 6.7 167.9 6.5 169 6.5C170.2 6.5 171.2 6.6 172.1 6.8C172.9 7 173.6 7.2 174.2 7.5L174.2 13.8L170.9 13.8L170.9 10.4C170.3 10.3 169.6 10.2 169 10.2C168.2 10.2 167.5 10.3 166.8 10.6C166.1 10.9 165.5 11.3 165 11.9C164.5 12.5 164.1 13.3 163.8 14.2C163.5 15.1 163.4 16.2 163.4 17.4C163.4 18.5 163.5 19.5 163.8 20.4C164.1 21.3 164.4 22.1 164.9 22.7C165.4 23.3 166 23.8 166.7 24.2C167.4 24.5 168.3 24.7 169.2 24.7C169.9 24.7 170.5 24.6 171.1 24.5L171.1 21L171.3 21Z" fill="#1d1e1c" fill-rule="evenodd" opacity="1" stroke="none"/>
<path d="M94.4 46.2L94.4 51.1L104.3 51.1L104.3 56L94.4 56L94.4 60.9L104.3 60.9C104.3 63.1 104.3 66.9 104.3 67.4C104.2 69.8 104.1 72 103.8 75C102.8 82.5 100.5 86.1 98.8 87.8C96.8 89.8 93.7 90.8 89.6 90.8L86.6 90.8L74.8 63.8L67.1 46.3L59.7 46.3L43.1 84.3L31.5 84.3L37.4 97.2L34.3 104.4L50.3 104.4L53.4 97.4L73.5 97.4L76.6 104.4C76.6 104.4 81.4 104.4 83 104.4C86.4 104.4 91.3 104.4 92 104.4C97.3 104.4 105 102.8 109.9 97.2C114.3 92.3 118.5 85.5 119 61L129 61L129 104.4L143.6 104.4L143.6 46.3L94.4 46.2ZM58.9 84.2L63.3 74.2L67.7 84.2L58.9 84.2Z" fill="#1d1e1c" fill-rule="evenodd" opacity="1" stroke="none"/>
<path d="M255.3 104.2L255.3 46.1L206.3 46.1L206.3 51L216.2 51L216.2 55.9L206.3 55.9L206.3 60.8L216.2 60.8C216.2 61.3 216.1 62.9 216.1 62.9C215.9 70.1 215.6 82.1 209.7 87.1C207.1 89.3 203.5 89.6 201 89.6C200.8 89.6 200.5 89.6 200.2 89.6L200.2 46.1L185.6 46.1L164.1 78L164.1 73.4L159.2 73.4L159.2 68.5L164.1 68.5L164.1 65.6L159.2 65.6L159.2 60.7L164.1 60.7L164.1 46.1L149.5 46.1L149.5 60.7L154.4 60.7L154.4 65.6L149.5 65.6L149.5 68.5L154.4 68.5L154.4 73.4L149.5 73.4L149.5 104.2L163.5 104.2L185.6 72.3L185.6 104.2L196.3 104.2C196.3 104.2 200.6 104.2 200.8 104.2C205.9 104.1 213.5 103.5 219.8 98.3C224.5 94.4 230.3 85 230.8 62.7L230.9 60.8L240.6 60.8L240.6 104.2L255.3 104.2Z" fill="#1d1e1c" fill-rule="evenodd" opacity="1" stroke="none"/>
<path d="M275.9 89.6L275.9 79.3L299.3 79.3L299.3 68.6L275.9 68.6L275.9 60.8L302.2 60.8L302.2 46.2L261.2 46.2C261.2 46.2 261.2 94.2 261.2 95.9C261.2 101.8 264.9 104.2 270.5 104.2L303.9 104.2L303.9 89.6L275.9 89.6Z" fill="#1d1e1c" fill-rule="evenodd" opacity="1" stroke="none"/>
<path d="M252.4 51.1L231 51.1L231 56L252.4 56L252.4 51.1Z" fill="#ffda00" fill-rule="evenodd" opacity="1" stroke="none"/>
<path d="M228 51.1L219.1 51.1L219.1 56L228 56L228 51.1Z" fill="#e63323" fill-rule="evenodd" opacity="1" stroke="none"/>
<path d="M250.1 63.2C250.1 64.4 249.1 65.3 248 65.3C246.8 65.3 245.9 64.3 245.9 63.2C245.9 62 246.9 61.1 248 61.1C249.1 61.1 250.1 62 250.1 63.2Z" fill="#ffffff" fill-rule="evenodd" opacity="1" stroke="none"/>
<path d="M250.1 73C250.1 74.2 249.1 75.1 248 75.1C246.8 75.1 245.9 74.1 245.9 73C245.9 71.8 246.9 70.9 248 70.9C249.1 70.8 250.1 71.8 250.1 73Z" fill="#ffffff" fill-rule="evenodd" opacity="1" stroke="none"/>
<path d="M252.4 82.2L243.6 82.2L243.6 90.3L252.4 90.3L252.4 82.2Z" fill="#ffda00" fill-rule="evenodd" opacity="1" stroke="none"/>
<path d="M252.4 93.3L243.6 93.3L243.6 101.4L252.4 101.4L252.4 93.3Z" fill="#e63323" fill-rule="evenodd" opacity="1" stroke="none"/>
<path d="M138.6 60.8L133.7 60.8L133.7 101.3L138.6 101.3L138.6 60.8Z" fill="#ffda00" fill-rule="evenodd" opacity="1" stroke="none"/>
<path d="M116 51.1L107.2 51.1L107.2 60.8L116 60.8L116 51.1Z" fill="#ffda00" fill-rule="evenodd" opacity="1" stroke="none"/>
<path d="M5.69995 46.2L5.69995 104.2L20.3 104.2L20.3 60.8L46.5999 60.8L46.5999 46.2L5.69995 46.2Z" fill="#1d1e1c" fill-rule="evenodd" opacity="1" stroke="none"/>
<path d="M42 55.9L15.4 55.9L15.4 75.2L10.5 75.2L10.5 51.1L42 51.1L42 55.9Z" fill="#ffda00" fill-rule="evenodd" opacity="1" stroke="none"/>
<path d="M15.1 84.9C15.1 86.1 14.1 87 13 87C11.8 87 10.9 86 10.9 84.9C10.9 83.7 11.9 82.8 13 82.8C14.2 82.7 15.1 83.7 15.1 84.9Z" fill="#ffffff" fill-rule="evenodd" opacity="1" stroke="none"/>
<path d="M15.1 94.6C15.1 95.8 14.1 96.7 13 96.7C11.8 96.7 10.9 95.7 10.9 94.6C10.9 93.4 11.9 92.5 13 92.5C14.2 92.5 15.1 93.4 15.1 94.6Z" fill="#ffffff" fill-rule="evenodd" opacity="1" stroke="none"/>
<path d="M155.4 76.4L152.4 76.4L152.4 95.4L155.4 91.1L155.4 76.4Z" fill="#ffda00" fill-rule="evenodd" opacity="1" stroke="none"/>
<path d="M161.2 76.4L158.3 76.4L158.3 86.8L161.2 82.4L161.2 76.4Z" fill="#ffda00" fill-rule="evenodd" opacity="1" stroke="none"/>
<path d="M226 60.8L221.1 60.8C220.8 69.9 221 83.2 213.5 90.2C210.3 93.2 205.5 94.3 201 94.3C197.7 94.3 195.4 94.3 195.4 94.3L195.4 51.1L190.5 51.1L190.5 99.4L196.8 99.4C197.1 99.4 200.3 99.4 200.3 99.4C205.4 99.3 212.9 97.9 217.4 93.4C225.3 85.6 225.7 71.7 226 60.8Z" fill="#ffda00" fill-rule="evenodd" opacity="1" stroke="none"/>
<path d="M158.3 101.3L161.9 101.3L185.7 66.6L185.7 61.4L158.3 101.3Z" fill="#ffda00" fill-rule="evenodd" opacity="1" stroke="none"/>
<path d="M195.1 97.2C195.1 98.4 194.1 99.3 193 99.3C191.8 99.3 190.9 98.3 190.9 97.2C190.9 96 191.9 95.1 193 95.1C194.2 95 195.1 96 195.1 97.2Z" fill="#1d1e1c" fill-rule="evenodd" opacity="1" stroke="none"/>
<path d="M202.6 96.9C202.6 98.1 201.6 99 200.5 99C199.3 99 198.4 98 198.4 96.9C198.4 95.7 199.4 94.8 200.5 94.8C201.7 94.7 202.6 95.7 202.6 96.9Z" fill="#1d1e1c" fill-rule="evenodd" opacity="1" stroke="none"/>
<path d="M210.1 95.8C210.1 97 209.1 97.9 208 97.9C206.8 97.9 205.9 96.9 205.9 95.8C205.9 94.6 206.9 93.7 208 93.7C209.2 93.7 210.1 94.6 210.1 95.8Z" fill="#1d1e1c" fill-rule="evenodd" opacity="1" stroke="none"/>
<path d="M109.3 76.4C107.6 85.6 105.2 90.4 99.4999 93.6C95.6999 95.8 89.7999 95.9 85.5999 95.9L71.4999 63.7L68.2999 63.7L84.7999 101.3C84.7999 101.3 89.1999 101.3 89.4999 101.3C94.7999 101.3 102.1 100.5 107.5 94.8C110.6 91.4 113.3 87.1 115 76.4L109.3 76.4Z" fill="#ffda00" fill-rule="evenodd" opacity="1" stroke="none"/>
<path d="M70.2999 60.8L65.9999 51.1L60.6999 51.1L56.3999 60.8L70.2999 60.8Z" fill="#ffda00" fill-rule="evenodd" opacity="1" stroke="none"/>
<path d="M48.1 88.6C46.9 88.6 46 89.6 46 90.7C46 91.9 47 92.8 48.1 92.8C49.3 92.8 50.2 91.8 50.2 90.7C50.2 89.5 49.3 88.6 48.1 88.6Z" fill="#ffffff" fill-rule="evenodd" opacity="1" stroke="none"/>
<path d="M56.9001 88.6C55.7001 88.6 54.8 89.6 54.8 90.7C54.8 91.9 55.8001 92.8 56.9001 92.8C58.1001 92.8 59 91.8 59 90.7C59.1 89.5 58.1001 88.6 56.9001 88.6Z" fill="#ffffff" fill-rule="evenodd" opacity="1" stroke="none"/>
<path d="M65.8 88.6C64.6 88.6 63.7 89.6 63.7 90.7C63.7 91.9 64.7 92.8 65.8 92.8C67 92.8 67.9 91.8 67.9 90.7C67.9 89.5 66.9 88.6 65.8 88.6Z" fill="#ffffff" fill-rule="evenodd" opacity="1" stroke="none"/>
<path d="M50 75.4L46.2 84.2L55.9 84.2L59.7999 75.4L50 75.4Z" fill="#ffda00" fill-rule="evenodd" opacity="1" stroke="none"/>
<path d="M61.0999 72.5L64.8999 63.7L55.0999 63.7L51.2999 72.5L61.0999 72.5Z" fill="#e63323" fill-rule="evenodd" opacity="1" stroke="none"/>
<path d="M115.9 63.7L107.1 63.7C107.1 65.4 107.1 67 107.1 67.3C107 69.3 107 71.2 106.7 73.5L115.2 73.5C115.6 70.6 115.8 67.4 115.9 63.7Z" fill="#e63323" fill-rule="evenodd" opacity="1" stroke="none"/>
<path d="M273.1 60.8L267.2 60.8L267.2 89.6L273.1 89.6L273.1 60.8Z" fill="#ffda00" fill-rule="evenodd" opacity="1" stroke="none"/>
<path d="M296.5 73.5L276 73.5L276 76.4L296.5 76.4L296.5 73.5Z" fill="#ffda00" fill-rule="evenodd" opacity="1" stroke="none"/>
<path d="M278.9 94.8C277.7 94.8 276.8 95.8 276.8 96.9C276.8 98.1 277.8 99 278.9 99C280.1 99 281 98 281 96.9C281 95.8 280.1 94.8 278.9 94.8Z" fill="#ffffff" fill-rule="evenodd" opacity="1" stroke="none"/>
<path d="M287.7 94.8C286.5 94.8 285.6 95.8 285.6 96.9C285.6 98.1 286.6 99 287.7 99C288.9 99 289.8 98 289.8 96.9C289.8 95.8 288.8 94.8 287.7 94.8Z" fill="#ffffff" fill-rule="evenodd" opacity="1" stroke="none"/>
<path d="M296.4 94.8C295.2 94.8 294.3 95.8 294.3 96.9C294.3 98.1 295.3 99 296.4 99C297.5 99 298.5 98 298.5 96.9C298.6 95.8 297.6 94.8 296.4 94.8Z" fill="#ffffff" fill-rule="evenodd" opacity="1" stroke="none"/>
<path d="M299.3 51.1L284.7 51.1L284.7 56L299.3 56L299.3 51.1Z" fill="#e63323" fill-rule="evenodd" opacity="1" stroke="none"/>
<path d="M281.8 51.1L267.2 51.1L267.2 56L281.8 56L281.8 51.1Z" fill="#ffda00" fill-rule="evenodd" opacity="1" stroke="none"/>
<path d="M126.4 51.3C127.6 51.3 128.5 52.3 128.5 53.4C128.5 54.6 127.5 55.5 126.4 55.5C125.2 55.5 124.3 54.5 124.3 53.4C124.3 52.3 125.2 51.3 126.4 51.3Z" fill="#ffffff" fill-rule="evenodd" opacity="1" stroke="none"/>
<path d="M136.1 51.3C137.3 51.3 138.2 52.3 138.2 53.4C138.2 54.6 137.2 55.5 136.1 55.5C134.9 55.5 134 54.5 134 53.4C134 52.3 135 51.3 136.1 51.3Z" fill="#ffffff" fill-rule="evenodd" opacity="1" stroke="none"/>
<path d="M333.5 45.4C317.1 45.4 303.7 58.7 303.7 75.2C303.7 91.6 317 105 333.5 105C349.9 105 363.3 91.7 363.3 75.2C363.3 58.8 350 45.4 333.5 45.4ZM351.6 62.3C352.6 61.7 353.9 62.1 354.5 63.1C355.1 64.1 354.7 65.4 353.7 66C352.7 66.6 351.4 66.2 350.8 65.2C350.2 64.2 350.6 62.9 351.6 62.3ZM342.7 55C343.3 54 344.6 53.6 345.6 54.2C346.6 54.8 347 56.1 346.4 57.1C345.8 58.1 344.5 58.5 343.5 57.9C342.5 57.3 342.1 56 342.7 55ZM333.5 51C334.7 51 335.6 52 335.6 53.1C335.6 54.3 334.6 55.2 333.5 55.2C332.3 55.2 331.4 54.2 331.4 53.1C331.4 51.9 332.4 51 333.5 51ZM333.5 66.6C337.6 66.6 341.1 69.4 342 73.4L342.2 75.6C342.1 80.3 338.2 84.1 333.5 84.1C328.7 84.1 324.9 80.3 324.8 75.6L325 73.4C325.9 69.4 329.4 66.6 333.5 66.6ZM332.1 64.5L332.1 60.9C332.6 60.9 333.1 60.8 333.6 60.8C334.1 60.8 334.6 60.8 335.1 60.9L335.1 64.5C334.6 64.4 334.1 64.4 333.6 64.4C333 64.4 332.5 64.4 332.1 64.5ZM321.4 54.2C322.4 53.6 323.7 54 324.3 55C324.9 56 324.5 57.3 323.5 57.9C322.5 58.5 321.2 58.1 320.6 57.1C320 56.1 320.4 54.8 321.4 54.2ZM333.5 89.6C325.5 89.6 319.1 83.1 319.1 75.2C319.1 68.5 323.7 62.9 329.9 61.3L329.9 65.1C325.7 66.6 322.6 70.6 322.6 75.4C322.6 81.4 327.5 86.3 333.5 86.3C339.5 86.3 344.4 81.4 344.4 75.4C344.4 70.7 341.4 66.6 337.1 65.1L337.1 61.3C343.3 62.9 347.9 68.5 347.9 75.2C348 83.2 341.5 89.6 333.5 89.6ZM354.5 87.3C353.9 88.3 352.6 88.7 351.6 88.1C350.6 87.5 350.2 86.2 350.8 85.2C351.4 84.2 352.7 83.8 353.7 84.4C354.8 85 355.1 86.3 354.5 87.3ZM355.6 77.3C354.4 77.3 353.5 76.3 353.5 75.2C353.5 74 354.5 73.1 355.6 73.1C356.8 73.1 357.7 74.1 357.7 75.2C357.8 76.4 356.8 77.3 355.6 77.3Z" fill="#1d1e1c" fill-rule="evenodd" opacity="1" stroke="none"/>
<path d="M333.5 95.3C322.4 95.3 313.4 86.3 313.4 75.2C313.4 70.2 315.3 65.6 318.3 62.1L315.1 58.9C311.2 63.3 308.9 69 308.9 75.3C308.9 88.9 320 99.9 333.5 99.9C339.8 99.9 345.5 97.5 349.8 93.7L346.6 90.5C343.1 93.4 338.5 95.3 333.5 95.3Z" fill="#ffda00" fill-rule="evenodd" opacity="1" stroke="none"/>
<path d="M329.2 79.9C329.4 80.3 329.7 80.6 330.2 80.6C330.6 80.6 331 80.3 331.2 79.9L333.6 74.2L335.9 79.9C336.1 80.3 336.5 80.6 336.9 80.6C337.3 80.6 337.7 80.3 337.9 79.9L339.5 75.5L342.3 75.5L342.1 73.3L338.8 73.3C338.3 73.3 337.9 73.6 337.8 74L336.9 76.5L334.7 71C334.5 70.6 334.2 70.3 333.7 70.3C333.2 70.3 332.9 70.6 332.7 71L330.3 76.6L329.4 74C329.2 73.6 328.8 73.3 328.4 73.3L325.1 73.3L324.9 75.5L327.7 75.5L329.2 79.9Z" fill="#e63323" fill-rule="evenodd" opacity="1" stroke="none"/>
</g>
</svg>
